<svg version="1.1" viewBox="0 0 350 350" xmlns="http://www.w3.org/2000/svg" xmlns:xlink="http://www.w3.org/1999/xlink">
    //<mask id="screen"><rect width="310" height="310" x="20" y="20" rx="20" fill="white" /></mask>
    <defs>
        <filter id="tvnoisefilter">
            <feTurbulence type="fractalNoise" result="static1" baseFrequency="0.1" numOctaves="1" seed="0"><animate attributeName="baseFrequency" values="0 0.65;0 0.8;0 0.65;0 0.80.65;0 0.8" dur="2.5s" repeatCount="indefinite" />
            </feTurbulence>
            <feTurbulence type="fractalNoise" result="static2" baseFrequency="0.1" numOctaves="5" seed="2"><animate attributeName="baseFrequency" values="0.9 0.5;0.8 0.8;0.9 0.9;" dur="0.2s" repeatCount="indefinite" />
            </feTurbulence>
            <feComposite operator="lighter" in="static1" in2="static2" result="blackcomposite"/>
            <feColorMatrix in="blackcomposite" type="matrix"
            values="0   0   0   0   0
                    0   0   0   0   0
                    0   0   0   0   0
                    0   0   0   1   0" />
        </filter>
        

    </defs>
    
    
    <rect width="100%" height="100%" rx="20" fill="green" stroke-width="0.1" stroke="black"/>
    <g mask="url(#screen)">
        <rect width="310" height="310" x="20" y="20" rx="20" fill="white" />
        <rect width="310" height="310" x="20" y="20" rx="20" filter="url(#tvnoisefilter)" />
    </g>
    <g>
<path d="m113 189c-4.74 4.71-14.9 6.06-15.4 13.7 0.803 4.46-3.27 12.5 3.46 11.7 1.09 3.93 0.489 7.08 5.61 7.6 5.6 2.51 3.62 9.63 5.66 14.4 1.42 7.43 4.21 14.6 9.15 20.4 4.44 8.72 3.62 18.9 5.54 28.3 2.44 6.51-5.21 8.2-6.96 12.3 4.21 0.26 3.88 0.681 3.81 4.03 7.4 4.38 15.6-3.16 13.3-11-0.445-8.86 0.735-17.6 2.7-26.2 1.62-6.63 0.181-16.2 9.5-15.5 16.3-3.9 32.6-7.79 48.9-11.7 2.58 8.42 1.35 18.5 7.89 25.3 5.56 6.16 12 12.5 12.5 21.3 2.53 6.04-1.11 11.2-5.3 14.3 4.68 4.74 13 0.766 11.2-6.14-0.645-3.58 3.36-8.33 3.86-2.18 1.71 4.94-6.61 15.7 2.93 13.6 6.82-5.13-0.3-14.3 0.0172-21.1-2.08-8.4-6.43-16-9.73-24-6.17-13.4-13.4-26.4-20.7-39.1-6.81-5.19-16.2-1.23-24.1-2.91-12.7-0.589-25.4-1.3-38-2.45-5.68-3.63-8.8-9.94-13.6-14.5-3.27-4.31-7.11-7.98-12.2-10z" fill="#f0e4d1" fill-rule="evenodd"/>
  <path d="m228 304c-0.757-5.19 9.68-0.881 3.18-0.172-1.01 0.168-2.17 0.683-3.18 0.172zm-1.39-0.603c-2.19-4.69 5.22-10.9 0.0227-14.6-0.135 2.73-2.61 11.7-4.48 9.28 3.25-3.61 3.13-12.8-2.73-12.2-0.403 7.39-1.14-5.04-2.15-7.08-5.72-7.69-14.3-13.9-16.8-23.7-3.46-7.66-13.6-8.52-20.6-5.69-8.37 2.37-16.5 5.43-24.4 9.2-8.58-0.535-14.5 6.48-13.2 14.8-3.54 7.96-0.837 16.7-5.09 24.2-0.54 7.14-17 7.81-12.8 0.514 2.92-2.05-3.02 4.65 2.57 3.65 3.87 1.31 11.7-2.12 8.73-7.16-1.4 3.9-6.23-3.35-5.96 1.93-5.3 2.14 4.4-8.5 2.01-12.1-0.653-7.35 1.41-15.6-3.41-22-6.72-2.13-2.42 9.61-1.89 13.3-0.142 4.16 6.45 10.7 0.194 12.7-0.573-8.28-2.26-16.5-2.37-24.8-1.73-8.63-10.3-13.8-11.7-22.6-2.58-6.15-4.67-11.6-7.27-17.3-4.31-2.88-9.48-2.64-10.2-9.05-1.99-5.64 2.47-9.79 0.84-15.6 2.75-5.41-3.62-13 0.748-16.8 5.71 0.893 10.7 7.97 16.8 3.41 3.49-3.16 6.41-4.57 9.05 0.447 5.22 5.81 8.98 12.8 14.5 18.3 6.18 6.23 16.4-0.759 22.4 5.66 7.42 2.56 15.4 0.632 23-0.166 8.19-0.171 2.69-8.28 6.25-12.6 4.29-7.76 16.1-12.7 23.4-6.05 5.51 5.22 7.98 13.3 7.61 20.7-2.81 6.81 1.62 12 4.93 17.4 3.36 6.72 3.09 14.4 1.97 21.6-0.295 8.53-0.644 18.1 5.1 25 2.96 6.12 2.05 13.1 3.21 19.6 0.942 4.24-3.17 7.19-3.44 1.34-2.14-3.76-6.1 4.96-4.71 6.21zm4.84-7.85c-0.571-0.871-0.142 1.17 0 0zm-1.59-2.16c-0.68-0.496-0.293 0.919 0 0zm-2.93-9.8c-0.433-0.765-0.288 0.678 0 0zm-0.713-1.02c-8e-3 -4.52-4.37-1.01 0 0zm-16.1-19c-0.227-0.619-0.321 0.658 0 0zm-0.555-1.62c-1.05-3.53-2.82-0.0775 0 0zm-2.06-2.46c0.0868-1.86-2.28-0.137 0 0zm-1.11-2.4c-1.74-4.29-2.64 1.11 0 0zm-77.3-2.2c2.67-5.76 6.86-17.1-3.37-17.3-2.13-1.35 2.44-7.47 1.56-9.14-3.08 1.2-9.87 7.94-10.2 2.79-3.96-0.671-5.88 2.73-3.1 4.04 2.34-0.631 7.82 5.88 1.8 2.91-2.85-1.28-0.249 11.6 1.42 6.74-1.15-4.28 3.83-3.65 2.44 0.312 1.65 3.93 9.96 6.76 9.48 9.61zm-0.718-2.23c0.45-2.13 1.36 1.12 0 0zm-7.32-11.3c0.512-2.2 1.04 1.93 0 0zm-5.51-0.123c0.763-3.58 3.66 1.51 0 0zm8.88-0.674c-5.76-2.35-2.31-4.63 0.231-0.801zm-1.27-4.21c-0.844-2.67 1.16 1.47 0 0zm-2.93-1.02c0.15-1.52 1.42 1.16 0 0zm-1.98-0.609c0.664-2.19 1.65 0.688 0 0zm3.59-2.04c-0.415-0.861 0.981 0.218 0 0zm81.7 22.1c-0.614-1.18-0.821 1.31 0 0zm-81.6-5.77c-0.643-0.513-0.337 0.376 0 0zm-3.05-4.16c-1.03-1.59-0.598 0.784 0 0zm-4.45-5.23c1.37-4.42-3.04 1.51 0 0zm-0.623-4.31c-0.635-0.335-0.05 0.817 0 0zm4.77-7.51c-0.808-0.967-0.636 1.31 0 0zm-5-3.9c0.473-2.22-3.23-2.98 1.13-4.05 4.2-2.94 10.1-7.79 8.2-11.9 0.881-4.53-10.5-6.69-12-1.34-7.23-4.12-4.78 10.8 1.59 4.47 3.7-0.438 3.39 2.04 1.37 3.26 0.745 2.77-6.99 10.4-0.325 9.57zm4.59-12.3c0.684-2.36 3.25 0.851 0 0zm-4.83 10.3c-0.227-0.619-0.321 0.658 0 0zm-15.1-5.52c-0.576-0.934-0.488 0.932 0 0zm5.03-2.57c2.2-3.97-6.01-2.95-0.44-0.443l0.263 0.265zm-0.176-0.821c0.133-1.26 1.15 0.879 0 0zm0.176-2.82c-0.488-0.738-0.414 0.699 0 0zm8.13-6.63c-0.57-0.813-0.423 0.995 0 0zm-9.47-0.445c-0.889-0.932-0.187 1.6 0 0zm108-10.9c-0.838-0.448 0.0701 1.29 0 0zm8.59 108c-1.37-1.45 3.94 0.788 0 0zm-4.14-0.297c-7.1-2.27 8.77-8.13 1.35-3.14-5.25 2.39 6.09 1.58-0.37 3.51-0.326-0.124-0.652-0.249-0.977-0.373zm-94-1.28c0.822-2.04 2.69 1.18 0 0zm3.61-0.146c0.605-0.806 0.469 0.741 0 0zm8.6-0.972c-1.65-1.75 1.67 0.171 0 0zm-13.4-0.501c0.998-2.49 2.26-0.687 0 0zm5.13-2.2c0.899-3.4 3.79-5.1 1.43-0.683-0.264 0.487-0.852 0.894-1.43 0.683z" fill="#e4cca9"/>
  <path d="m229 304c1.23-3.12 4.01 1.48 0 0zm-103-1.29c1.38-1.97 3.33 0.0453 0 0zm-1.14-0.376c0.227-0.619 0.321 0.658 0 0zm4.45 3e-3c1.76-1.67 1.09 0.794 0 0zm-7.19-0.825c0.488-0.932 0.576 0.934 0 0zm0.439-1.31c2-2.76 1.47-0.0621 0 0zm13.7-0.955c0.627-2.1 0.29 1.17 0 0zm78.6 0.272c0.517-2.63 2.53 1.45 0 0zm6.63-0.178c0.793-2.03 2.09 0.836 0 0zm-101-1.23c0.643-0.513 0.337 0.376 0 0zm90.9-0.0932c1.35-3.09 4.59-1.96 0 0zm21.9-0.393c-2.31-7.67-5.4-15.1-6.9-23-3.31-5.15-13.5-1.05-13.6-9.69-1.95-7.14-10.3-10-13.2-15.6 6.01 0.807-3.82-4.5-4.11 0.103-6.4-2.64-12.6-2.2-18.9 0.728-6.62 1.32-12.9 3.71-18.6 7.3-2.9 1.9-7.63 0.273-2.43-1.6 4.27-0.629 9.07-5.69 6.35-8.94-2.75 0.364-3.97 2.66-3.99-0.0918-3.73-1.64-4.3 1.63-3.85 2.93-4.18-0.107-12.1 6.95-5.64 8.68 9.73-2.58-8.58 7.36-4.04 0.01-2.99-3.86-5.05 6.94-8.65 7.97-1.17 3.23-4.4 7.16-3.88 1.29-0.325-5.74-0.936-11 1.93-16 0.101-5.95 1.12-12.3-0.969-18-2.24-2.79-6.98 2.82-3.49-2.13 2.95-3.22 3.74-12.7-2.68-7.34-2.42 1.32-13.3 2.2-6.73 5.45-2.46 3.11-10.9-0.131-9.23 6.11-5.8-3.71-2.34-15.1-12-14.5-4.58-1.83 6.46-3.26 0.862-3.19-6.07 2.74-7.46-10.8-4.21-9 6.2-1.18 1.67 9.59 8.3 6.49 2.92-1.95 9.56-4.37 5.79 1.22 6.84-2.54-5.71 9.3 2.14 9.59 7.73 0.108 5.84-8.65 10.7-12 5.68-5.68 3.5-17.3-3.66-20.4-1.75 3.03 6.75 8.85-0.0301 5.6-5.25 4.8-9.7-5.19-14.7-0.589-5.52 2.47-4.45-3.98-3.5-6.81-3.42-2.98-7.56-2.33-5.49-8.62 3.56-3.95 8.66 5.82 14.1 4.02 5.11 0.638 8.1-9.9 12.2-2.07 4.92 6.49 9.48 13.3 14.9 19.4 6.35 6.05 16.5-0.559 22.7 5.66 7.01 3.04 14.6-0.168 21.9 0.289 9.02 0.0379 4.41-9.4 8.28-13.9 2-3.21 4.5 7.41 5.1 1.69 2.09 3.88 2.98 0.891 3.24 1.32 0.993-3.59 1.6 0.424 2.93-1.59 2.43 1.49 3.5-0.255 4.13 2.15 2.67-1.54 2.21 1.29 3.69-0.65 3.69 0.726 3.54 7.89 7.15 2.92 4.45 0.197 3.48 11.2 2.94 17.3 0.0735 3.28-0.0196 6.44 1.18 8.12-4.13 1.64-2.16 10.2-4.26 10.9 5.76 1.85-0.127 2.04-2.37 2.14 3.98 0.555 5.92 3.22 5.75 6.4 1.26 1.72 6.04 4.66 6.06 0.565 2.91 6.17-0.693 13.4 2.01 19.7-0.455 4.88 2.54 9.32 5.49 11.7 0.298 6.04 2.44 12 1.38 18.1zm0.436-1.51c-0.376 0.337 0.513 0.643 0 0zm-6.45-21.7c-0.224-0.651-0.487 0.396 0 0zm-14.5-11.7c-0.227-0.619-0.321 0.658 0 0zm2.52-3.45c2.47-0.442-1.38-0.318 0 0zm-3.57-1.34c-1.65-1.26 0.468 1.59 0 0zm3.19-0.127c-1.24-1 0.141 0.67 0 0zm1.9-0.158c-0.321-0.658-0.227 0.619 0 0zm-2.85-0.159c-0.364-0.67-0.364 0.67 0 0zm-0.913-0.911c-0.843-4.08-2.98 1.08 0 0zm-2.42-0.0855c-0.772-3.03-2.99-0.0291 0 0zm3.65-0.192c-0.417-0.92-0.393 0.915 0 0zm1.52-0.148c-0.871-3.47-4.52 0.542 0 0zm5.03-2.16c-0.773-1.33-2.6 1.23 0 0zm-5.33-0.342c-0.423-0.995-0.57 0.813 0 0zm6.21-0.859c1.77-1.56-2.3 0.728-0.169 0.0305zm-57.9-0.622c-2.24-1.85 0.898 1.88 0 0zm60.6-0.012-0.328 0.036zm-9.12-0.753c-1.68-2.56-3.62-0.0442 0 0zm-11.1-0.181c-0.591-0.644-0.35 0.937 0 0zm-0.801-0.334c-0.721-0.857-0.274 1.27 0 0zm-38.8-0.686c-0.712-1.72-1.29 0.447 0 0zm43.1-1.09c-0.133-0.926-0.645 0.573 0 0zm-4.66-1.23c-1.4-0.0483 0.503 2.54 0 0zm-7.45 0.552c1.21-2.65 9.76-2.34 5.52-6.6-4.81-2.42-4.49 2.84-7.86 3.97-0.262 1.36 1.51 2.02 2.34 2.62zm0.99-2.79c0.751-0.519 0.128 0.419 0 0zm2.6-1.18c0.62-1.36 0.71 0.75 0 0zm-0.645-0.982c-0.854-1.54 3.13 1.24 0 0zm13.8 4.62c-1.21-0.498 0.534 1.08 0 0zm1.67-0.414c-1.19-2.22-2.13 1.85 0 0zm-12.6-0.214c3.43-1.04-1.79-0.63 0 0zm-50.3-0.138c-0.407-1.11-0.792 0.75 0 0zm12.8 5e-3c-0.364-0.67-0.364 0.67 0 0zm-13.8-0.446c-1.02-1.7-1.42 0.43 0 0zm2.02-0.14c-1.32-2.06-2.76 0.488 0 0zm50.6-0.0474c-0.321-0.658-0.227 0.619 0 0zm-11.1-0.887c4.15-2.5-3.42-1.87 0 0zm0.0243-1.04c0.423-0.995 0.57 0.813 0 0zm-38.5 0.822c5.18 0.0428-3.12-2.05 0 0zm0.396-0.574c0.568-0.52 0.302 1.08 0 0zm-3.96 0.591c-0.461-1.42-0.719 0.691 0 0zm0.363-0.51c-1.39-1.04 0.0735 0.93 0 0zm39.6-0.519c0.375-3.37-2.8 1.4 0 0zm22.2 0.235c-0.709-1.77-1.21 1.17 0 0zm-60.2-0.332c2.57-2.32 11.3-0.822 3.66-3.43-3.97-1.46-1.42 0.262-4.9 0.862-1.56 1.02-0.546 3 1.23 2.57zm4.05-2.3c-0.444-1.06 1.85 1.45 0 0zm18.9 1.36c-1.31-4.72-2.99 1.77 0 0zm20.1 0.45c1.17-1.78-2.21 1.43 0 0zm-12.1-0.142c-0.227-0.619-0.321 0.658 0 0zm3.04-0.571c3.38 2.8 6.08-6.16 2.08-1.26-0.775 0.304-5.16 1.05-2.08 1.26zm-26.8 0.254c-0.678-0.821-0.58 0.766 0 0zm55.5-0.217c0.543-1.86-2.17 2.03 0 0zm1.6-0.0995c0.271-1.16-1.15 1.58 0 0zm-40.6-0.17c-0.472-0.76-0.472 0.76 0 0zm18.3-0.147c-0.84-0.799-0.937 0.855 0 0zm19.3 0c-0.364-0.67-0.364 0.67 0 0zm-22.2-0.158c-0.414-0.699-0.488 0.738 0 0zm1.59 0c-0.536-0.749-0.536 0.749 0 0zm18.2-0.409c1.02-1.68-3.27 1.25 0 0zm-52-1.18c-2.46-1.75-1.36 0.699 0 0zm3.03-0.603c-2.88-0.547 0.169 1.23 0 0zm35.7 0.35c3.74-2.54-6.4 0.721 0 0zm-38.4-0.197c1.69-3.2-2.44-0.9 0 0zm33.4-0.186c-0.227-0.619-0.321 0.658 0 0zm21.1-0.289c0.852-1.85-3.97 1.96 0 0zm4.32 0.157c-2.1-1.44-1.02 0.735 0 0zm-54.6-0.317c-0.801-0.862-0.631 1.32 0 0zm23.6-0.0369c0.0666-0.887-0.678 0.834 0 0zm-32.3-0.472c3.65-0.44-2.11-2.73 0 0zm55.1-0.311c-0.329-1.52-0.873 0.898 0 0zm2.46-0.157c-0.53-1.26-0.432 1.14 0 0zm-16.9 0c-0.58-0.766-0.678 0.821 0 0zm-27.2-0.657c3.77-0.399 1.38-0.859-0.833-0.0752zm-12.1-0.833c-0.0422-2.22-1.43 0.639 0 0zm39.7-0.0836c-0.613-1.13-0.676 1.21 0 0zm-38.9 0.0852c-0.452-0.662-0.605 0.438 0 0zm42.5-4.05c1.2-3.56-2.95 1.23 0 0zm2.7-0.637c0.0811-1.19-2.44 1.22 0 0zm-69.6-1.11c-0.645-0.635-0.254 1.04 0 0zm68-0.188c-0.999-0.94-0.485 1.58 0 0zm-66.9 0.187c-0.504-1.2-1.14 0.856 0 0zm70.1-0.485c-0.414-0.699-0.488 0.738 0 0zm-1.43-0.646c-0.716-0.408-0.346 0.88 0 0zm-3.99-0.205c-0.24-1.44-1.1 1.21 0 0zm-85.1-2.64c1.47-3.16-2.27 2.89 0 0zm20.3-5.8c3.74-2.34-0.303-2.43-1.01-0.0257zm13.4-0.849c-0.536-0.749-0.536 0.749 0 0zm-44.1-0.158c-0.364-0.67-0.364 0.67 0 0zm1.33-0.174c4.92-2-2.1-1.14 0 0zm45-0.756c0.443-2.18-1.74 1.83 0 0zm-27.8-1.13c-0.871-0.868-0.735 0.812 0 0zm27.6-0.102c-0.288-0.596-0.476 1.26 0 0zm-13.9-0.154c7.25-0.942-2.25-0.787 0 0zm13.3-0.242c3.65-7.34-4.11 1.17 0 0zm-11.6-1.34c1.14-1.38-2.17 0.73 0 0zm-38.5-0.44c0.606-2.08-1.91 0.78 0 0zm37-1.33c-0.456-0.752-0.315 1.03 0 0zm1.85 0.103c3.37-0.712-1.87-3.5 0 0zm11.2-0.397c-0.126-1.69-0.874 1.6 0 0zm-0.143-1.17c2.73-5.12-5.54-0.574 0 0zm-9.43-0.939c-0.227-0.619-0.321 0.658 0 0zm0.297-2.93c-2.35-1.46-2.23 5.34-0.405 0.756zm1.29-1.35c-1.12-0.456-0.568 1.44 0 0zm-1.24-1.07c1.51-2.2-2 0.302 0 0zm75.3-0.569c5.28-5.1-2.91-1.25 0 0zm2.87-0.0582c2.73-3.37-2.03 0.367 0 0zm-23.5-3.52c-0.172-0.896-0.542 0.632 0 0zm2.42-0.585c0.145-1.86-1.38 0.505 0 0zm-3.22-0.851c-0.536-0.749-0.536 0.749 0 0zm5.56-0.584c-1.07-2.44-0.0457 1.65 0 0zm-81.2-2.74c3.14-4.04-3.79 0.175 0 0zm1.31 0.15c-0.434-0.831-0.457 0.494 0 0zm72-0.0897c8e-3 -2.05-1.19 0.423 0 0zm-74-1.26c-1.3-3.01-2.1 1.59 0 0zm-2.48-0.158c-0.312-1.43-0.716 1.65 0 0zm2.4-1.8c-0.185-1.19-0.798 1.03 0 0zm-0.7-0.716c-0.661-1.86-1.16 1.23 0 0zm2.5-0.709c-1.2-3.69-4.38 0.8 0 0zm5.37-0.459c2.23-3.58-1.91 0.889 0 0zm-23-3.42c1.32-3.43-3.86 0.0381 0 0zm-4.21-3.7c-0.667-1.63-0.729 1.13 0 0zm2.42-0.828c-1.58-2.51-1.69 0.402 0 0zm125 112c7e-3 -3.52 1.29 0.586 0 0zm-94.9-2.26c-1.97-3.76 1.86 1.04 0 0zm96.1-3.59c1.32-4.26-8.32-9.66-6.14-2.68 1.37-8.85-5.49-15.4-11-21.2-3.29-4.04-6.88-8.43-7.34-13.8 6.48 5.52 10.7 13.1 16.9 19 3.86 4.57 12.4 12.7 7.6 18.7zm-98.4-5.12c-0.592-4.34 1.08-4.45 0 0zm-0.896-8.51c-1.3-2.83-0.432-9.87-0.0755-2.87-0.103 0.817 0.896 2.21 0.0755 2.87zm97.7-4.88c-8e-3 -1.25 0.735 1.02 0 0zm-2.06-0.476c0.236-1.25 0.868 1.21 0 0zm-91.3-7.8c-2.73-6.91-11.1-9.09-14.4-15.8 2.32-2.08 9.98 4.56 12.2 8 0.835 1.47 4 7.87 2.17 7.76zm67.3-14c-0.555-3.48 3.03-0.59 0 0zm-39.9-0.744c-1.36-1.03 3.71 1.45 0 0zm1.43-0.383c0.414-0.699 0.488 0.738 0 0zm67.1-2.96c-0.588-1.11 1.29 0.309 0 0zm-6.14-0.529c0.597-0.821 0.653 0.637 0 0zm6.49-0.489c-0.324-1.24 0.742 0.391 0 0zm-7.36-3.16c0.321-0.658 0.227 0.619 0 0zm-1.14-5.97c0.751-0.519 0.127 0.419 0 0zm-94.2-9.88c0.433-0.765 0.288 0.678 0 0zm95.8-0.545c0.172-0.896 0.542 0.632 0 0zm-102-3.24c-0.432-0.935 0.613 0.223 0 0zm-18.9-14.7c1.81-4.66 11.8-9.18 13.3-5.65-4.13 2.55-8.95 3.56-13.3 5.65zm-1.72-3.55c-0.247-2.28 0.951 1.58 0 0zm1.19-0.506c-5.43-1.48-0.784-16.9 0.953-9.03-1.52 3.12-2 5.7-0.372 8.81zm115 0.114c-0.162-1.95 1.06 0.537 0 0zm-90.2-1.46c0.804-1.45 0.663 1.05 0 0zm93.8-0.872c0.628-0.919 0.628 0.919 0 0zm-94.2-0.0894c-2.4-1 2.61-0.0355 0 0zm-3.53-0.993c-0.708-1.72 1.4 0.857 0 0zm76.6-1.31c-1.03-1.55 1.11 0.302 0 0zm19.9-1.13c-0.293-1.47 0.998 0.728 0 0zm-21.7-0.224c-0.432-0.935 0.613 0.223 0 0zm1.19-0.114c0.177-0.576 0.0794 0.809 0 0zm-4.23-3.31c-1.89-2.94 1.61 0.946 0 0zm2.05-0.0989c-2.09-3.69 5.83-2.74 0.498-0.342l-0.308 0.211zm15.6-3.66c-1.99-1.59 0.995-1.47 0 0zm-6.95-1.55c-0.254-2.48 1.27 1.13 0 0zm-3.83-0.0686c0.925-1.56 0.956 0.845 0 0zm2.05-0.179c-0.0821-1.03 1.08 1.24 0 0zm5.15-0.0831c-0.0223-1.29 0.974 0.754 0 0zm-0.942-0.145c0.227-0.619 0.321 0.658 0 0z" fill="#ca9962"/>
  <path d="m229 303c0.367-0.913 0.367 0.913 0 0zm-14.2-3.84c9e-3 -1.16 1.31 0.626 0 0zm-2.95-2.04c1.12-2.18 1.44 0.277 0 0zm12.8-5.79c-4.6-7.06-9.33-14.2-14.7-20.6-3.64-3.87-10.2-11.9-9.19-15.2 6.38 4.86 9.96 12.5 16 17.8 3.89 4.72 11.5 11.3 7.82 18zm-6.32-2.37c-0.95-3.87 0.584-5.01 0 0zm-93.5-12.6c-1.34-2.55 0.857-1.43 0 0zm100-11.6c-2.02-1.19 1.8 0.598 0 0zm-95.5-0.986c-1.61-5.69-13.6-10.6-12.4-13.7 4.81 2.45 8.83 2.91 11 9.05 0.699 1.45 1.27 2.99 1.42 4.61zm-11.9-13.7c-1.07-1.17-1.02 0.861 0 0zm106 12.1c-0.416-0.898 1.23 0.972 0 0zm-78.8-2.03c1.91-2.78 0.133 1.97 0 0zm79.5 0.0945c-3.38-2.43 4.29-0.433 0 0zm-89.4-0.874c1.45-2.84 10.2-7.52 5-1.27-1.09 1.19-3.63 3.02-5 1.27zm89.8-1.4c-1.01-2.42 1.22 0.55 0 0zm-67.5-1.51c-0.72-2.45 1.24 1.37 0 0zm-12.9-0.714c-1.44-4.7 4.03-3.51 0 0zm14.8 0.266c0.418-0.689 0.498 0.374 0 0zm65.3-0.416c-0.273-1.12 1.32 0.604 0 0zm-88.6-1.8c-0.0615-1.11 0.724 0.552 0 0zm6.29-0.199c-0.0216-0.925 0.826 0.597 0 0zm-2.15-1.89c0.334-1.48 0.599 0.723 0 0zm4.89 0.0435c2.54-5.1 5.68 0.961 0 0zm-3.01-0.0806c-3.16-2.63 2.32-1.71 0 0zm31.2-1.87c-3.44-3.94 6.44-3.01 8.6-4.59 2.59-1.53 11.7 1.56 9.37 2.16-5.92-3.69-11.6 3.28-17.2 1.46l-0.414 0.348zm1.67-0.0504c0.442-1.83 0.38 0.809 0 0zm-7.25-1.83c-6.42-1.56 5.03-7.49 2.21-2.62-1.2 0.383-0.451 3.42-2.21 2.62zm2.55-0.718c-1.64-2.07 3.31 0.956 0 0zm-27.4-0.797c-0.536-6.6 3.3-3.12 0 0zm-1.19-1.83c0.783-1 0.878 1.24 0 0zm-1.54-0.446c0.994-1.04 1.66 1.29 0 0zm1.06-0.731c0.707-0.803 0.707 0.803 0 0zm-1.9-0.466c0.252-0.896 0.603 0.697 0 0zm-1.43-0.168c0.364-0.67 0.364 0.67 0 0zm1.9-1.57c1.04-1.47 0.796 1.66 0 0zm1.78-0.427c-2.83-2.63 2.28 0.932 0 0zm-4.94-0.126c-1.08-3.54 5.63-10.2 4.11-3.1-0.799 1.64-2.65 2.23-4.11 3.1zm1.96-2.99c-0.437-1.76-0.627 2.17 0 0zm-0.711 2.8c0.568-0.52 0.302 1.08 0 0zm1.9-0.694c0.364-0.67 0.364 0.67 0 0zm-0.951-0.308c0.142-1.17 0.571 0.871 0 0zm38.9-0.666c-0.976-1.43 1.99 0.9 0 0zm0.904-0.16c1.78-2.24-3.81-3.54 0.584-3.99 0.935-4.66 10.4-4.24 8.29-9.63 3.15-3.34-6.92 2.98-3.23-2.73 1.98-2.98-3.16 2.24-4.19-1.45-4.5-0.34-2.68-3.36 0.0971-1.18 3.3-1.42 5.03-1.59 7.14-0.698 6.76-5.54-3.71-6.98-7.27-4.63 1.46-1.41-5.41-0.555-1.41-2.48 5.22 1.24 10.1-5.95 14.9-1.49 4.9-2.04 8.42-10.3 14.6-4.84 3.85 3.23 6.12 9.35 6.4 13.3-3.2-2.46-8.1-3.79-11.2-1.22-2.31-3.62-10.6-1.77-11.9-2.39-3.82 3.78 2.78 0.245 2.36 5.27-0.951 3.46-1.28 13.8-5.69 12-1.84-2.44-6.8 6.28-9.48 6.2zm3.13-5.52c-0.227-0.619-0.321 0.658 0 0zm8.96-9.5c-0.613-1.13-0.676 1.21 0 0zm2.62-0.17c-0.488-0.738-0.414 0.699 0 0zm-7.72-0.949c-0.386-1.11-0.331 1.71 0 0zm3.6 0.403c-0.299-0.662-0.583 0.474 0 0zm-1.3-0.534c-0.673-0.506-0.309 0.937 0 0zm0.512-1.13c-0.388-1.26-1.28 1.13 0 0zm3.57-9e-3c-0.414-0.699-0.488 0.738 0 0zm-8.14-0.262c0.139-3.83-3.57 0.187 0 0zm7.37-0.243c-0.43 0.117 0.538 0.769 0 0zm-0.516-0.745c0.0245-1.29-0.963 0.457 0 0zm-1.59-1.42c0.402-2.2-2 0.605 0 0zm11.7-5.35c0.813-1.22-1.89 0.926 0 0zm-13.5-0.395c-0.249-1.62-1.5 0.854 0 0zm16.3-1.18c-0.295-1.28-1.24 1.71 0 0zm-7.74-0.713c0.986-1.35-1.72 1.31 0 0zm-55.3 27.6c0.414-0.699 0.488 0.738 0 0zm49.5-1.9c1.27-1.94 1.7 2.18 0 0zm-48.7-0.468c-0.0266-0.832 0.541 0.557 0 0zm-31.5-1.93c-5.24-2.13-2.04-9.99-6.32-12.7 1.19-4.26 11.5-4.72 4.81 0.295-3.04 3.74 4.92 5.72 4.3 5.73 4.38-3.65 9.21-5.82 13.3-9.78 2.48 0.606 5-9.79 6.52-5.39-3.45 6.85-10.4 10.7-15.9 15.4 7.19 2.76-7.29 0.66-6.69 6.45zm3.11-6c-0.488-0.738-0.414 0.699 0 0zm11.1-7.93c-0.227-0.619-0.321 0.658 0 0zm29.4 13.8c1.78-1.13 0.354-5.63-0.827-1.97-4.06-6.02 2.95-11.5 4.13-17.1 4.58-0.605-0.298 6.2 1.15 1.24-3.39 3.07-1.34 8.71-3.89 12.6 3.12-0.77 1.1 4.98-0.556 5.18zm0.251-11.6c-0.549-0.272-0.389-0.192 0 0zm-13.3 11c-4.42-2.38 3.81-8.18 1.49-1.92-0.282 0.55-0.414 2.14-1.49 1.92zm0.571-4.65c-0.227-0.619-0.321 0.658 0 0zm12 3.91c0.426-1.71 0.653 0.994 0 0zm-1.61-2.11c0.751-0.519 0.128 0.419 0 0zm20.3 8e-3c-0.328-1.45 1.58 0.977 0 0zm5.36-0.375c0.329-1.52 0.873 0.898 0 0zm-46.1-0.95c0.605-0.806 0.469 0.741 0 0zm43.7-0.933c0.382-0.991 0.696 0.505 0 0zm1.11-0.494c0.321-0.658 0.227 0.619 0 0zm-33.4-0.188c0.873-1.87 1.44 0.923 0 0zm32.1 0.0398c-2.53-1.24 1.22-0.553 0 0zm-30.4-0.477c0.172-0.896 0.542 0.632 0 0zm34.2-0.247c0.316-0.889 0.316 0.889 0 0zm-46.2-0.498c3.53-4.44 6.21-11.9 8.73-15.3-1.1 5.07-3.58 13.7-8.73 15.3zm8.13-13.5c-0.227-0.619-0.321 0.658 0 0zm28.9 13.6c0.668-1.14 1.09 0.427 0 0zm-26.6-0.257c-1.41-2.15 2.59 0.679 0 0zm37-0.883c-0.309-1.06 1.07 0.379 0 0zm-44.6-0.406c0.1-1.67 0.598 0.686 0 0zm46.8-0.369c0.341-0.991 0.43 0.66 0 0zm-6.05-0.387c0.364-0.67 0.364 0.67 0 0zm3.32-0.0545c-1.71-1.99 1.13-0.753 0 0zm-3.33-0.729c-1.42-3.29 7.07-1.99 2.28-1.22l-1.13 0.82zm-4.12-0.326c0.871-0.868 0.735 0.812 0 0zm-73.5-2.08c-2.5-2.42 8.89-3.4 1.27-2.95-7.44 1.56-5.39-14-0.735-6.38-1.39 8.59 10.1 1.13 11.8 2.24-2.21 4.38-7.57 6.9-12.3 7.08zm-0.042-4.64c1.06-2.32-3.03 1.36 0 0zm76.9 4.24c-1.25-1.47 2.47 0.749 0 0zm-21.9-1.2c0.116-1.7 1.33 1.11 0 0zm27.5-0.918c0.157-1.55 2.01 0.67 0 0zm-1.5-0.278c-1.34-3.49 2.94-0.497 0 0zm-24.9-0.23c0.073-2.02 1.11 0.872 0 0zm23-0.267c-0.0977-1.76 2.08 1.62 0 0zm5.81 0.0468c-0.218-0.981 0.861 0.415 0 0zm-1.38-0.295c-5.76-3.69 4.11-0.0169 0 0zm13.7 0.128c-1.91-2 1.76-0.137 0 0zm4.16-0.0437c0.59-1.64 0.85 0.802 0 0zm-12-0.484c0.583-0.475 0.283 0.668 0 0zm20.4 1e-3c0.488-0.737 0.414 0.699 0 0zm-81.9-0.634c0.289-2.88 3.07 0.661 0 0zm56.4 0.0105c-0.0207-2.61 1.04 0.99 0 0zm-28.4-0.102c1.24-1.64 2.21 0.841 0 0zm32.9 0.145c0.0463-1.83 2.11 0.0664 0 0zm-9.3-0.251c0.891-0.661 0.868 0.714 0 0zm-16.2-0.317c1.7-1.53 6e-3 1.48 0 0zm12.4-0.138c0.802-0.755-0.0768 0.496 0 0zm12.3 0.0197c0.678-0.821 0.58 0.766 0 0zm-14.5-0.404c0.334-1.48 0.599 0.723 0 0zm13.2-0.0186c-0.319-1.03 0.922-0.137 0 0zm-6.99-0.458c-0.366-1.19 1.02 0.502 0 0zm-54.4-0.211c0.341-1.63 1.17 0.981 0 0zm59-0.335c-0.0549-1.43 1.45 0.721 0 0zm-57.6-0.188c0.309-0.937 0.673 0.506 0 0zm31.5-1.22c1.21-5.92 4.37 0.271 0 0zm1.59-1.6c-0.364-0.67-0.364 0.67 0 0zm-31.9 1.11c0.364-0.67 0.364 0.67 0 0zm7.21-2.85c1.09-1.15-0.408 1.08 0 0zm8-0.616c0.321-1.62 0.624 0.999 0 0zm14.9-0.175c0.536-0.749 0.536 0.749 0 0zm-4.16-0.559c0.259-1.92 0.826 1.35 0 0zm2.46 0.295c-0.371-1.15 2.1 1.14 0 0zm45.3-3.3c0.552-1.06 0.481 0.897 0 0zm-94.9-1.26c0.202-4.61 9.08-0.463 2.58-0.0888l-1.29 0.147zm-7.32-1.16c-1.95-1.56 0.322-1.52 0.446-0.0252zm29-2.42c0.452-0.662 0.605 0.438 0 0zm2.85 5e-3c1-1.07 0.317 0.681 0 0zm0.243-0.785c-3.84-0.367 1.7-1.72 0 0zm-4.78-0.395c-4.66-3.44 1.04-7.46-3.73-9.83-2.41-1.63-5.83-10.6-1.31-5.04 2.93 4.1 7.98 8.37 8.71 13.1-1.26 0.551-3.11 0.203-3.67 1.8zm-23-1.19c-4.31-6.82 10.9-6.91 5.7-1.68-2.4 0.338-4.37-0.102-5.7 1.68zm86.3-0.481c0.364-0.67 0.364 0.67 0 0zm-91.9-2.52c0.05-0.817 0.635 0.335 0 0zm25.4-1.45c0.0226-1.79 2.07-0.0994 0 0zm71-0.376c-0.176-1.25 0.849 0.697 0 0zm-72.8-0.788c-2.84-1.75-9.03-8.07-2.03-5.21 1.78 0.462 3.4 3.84 2.03 5.21zm-23.6-0.11c0.102-1.34 1.17 1.3 0 0zm16.1 0.0503c-0.0878-1.19 0.87 0.45 0 0zm-2.6-0.924c-0.0285-1.39 1.19 0.994 0 0zm3.63-0.354c-3.46-2.88 0.993-2.12 1.12 0.175zm-1.57 0.177c-0.415-0.861 0.981 0.218 0 0zm-16.4-2.04c-0.385-2 1.16 1.37 0 0zm6.53-0.581c-5.16-6.77 6.11 0.499 0 0zm-4.39-0.753c0.414-0.699 0.488 0.737 0 0zm18-4.26c0.05-0.817 0.635 0.335 0 0z" fill="#a96e38"/>
  <path d="m212 297c0.424-1.92 0.911 0.548 0 0zm12.3-6.82c-5.07-6.36-9.12-13.5-14.4-19.6-4.23-4.57-8.35-9.62-9.99-15.8 6.75 4.89 10.5 12.7 16.6 18.3 4.48 4.72 10.6 10.6 8.42 17.7-0.236 0.524-1.09-0.46-0.608-0.722zm-6.05-1.24c-0.95-3.87 0.584-5.01 0 0zm-93.6-13.9c0.271-0.685-0.0317 1.08 0 0zm4.4-12.2c-0.924-5.21-13.3-8.76-10.9-11.9 5.79 1.39 9.63 6.28 10.9 11.9zm-5.7-9.07c-0.364-0.67-0.364 0.67 0 0zm21.7 6.39c0.428-1.43 0.696 0.693 0 0zm33.2-11.8c5.8-5.72 0.489 3 0 0zm-0.699-3.8e-4c0.321-0.658 0.227 0.619 0 0zm13.6-0.873c-4.76 0.536 1.77-2.07 0 0zm-7.9-1.48c0.124-0.9 0.781 0.172 0 0zm1.34-0.36c-0.146-1.67 1.25 1.11 0 0zm-75.2-12.3c-4.09-2.48-3.27-10.1-5.09-12.8 1.86-2.69 8.68-2.72 3.87 1.04-3.34 5.64 7.14 8.77 7.97 7.08-3.38-0.508-4.37 3.49-6.74 4.71zm3.64-5.72c0.164-3.67 7.38-3.03 2.14-0.841l-1.01 0.582zm-1.37-0.828c0.727-2.52 1.5 0.743 0 0zm7.61-2.2c0.516-1.82 2.26 5e-3 0 0zm2.13-1.62c0.321-0.658 0.227 0.619 0 0zm1.19-0.932c0.05-0.817 0.635 0.335 0 0zm-24.7-1.27c-1.23-2.8 6.61-1.36 4.49-4.84 2.86-1.46 11.5-4.36 5.19 0.714-2.82 2.06-5.91 4.76-9.68 4.13zm-0.748-3.01c-5.03-1.82-3.37-12.8 1.64-6.53 0.244 2.55-3.75 6.82 1.54 4.82 2.4 0.695-2.66 2.66-3.19 1.72zm102-5.1c2.24-3.98 5.42-0.27 0 0zm4.02-2.08c-7.66-5.54 9.16-5.46 2.74-1.66-1.44-0.673-1.06 2.59-2.74 1.66zm-3.43-1.27c0.62-1.36 0.71 0.75 0 0zm-93.6-5.9c2.77-5.3 6.33 2.1 0 0zm-8.89-1.66c-0.432-0.935 0.613 0.223 0 0zm27.3-4.71c-1.02-4.31 2.99-1.91 0 0zm-5.42-6.79c-1.4-2.38 2.09 0.531 0 0zm4.24-0.502c-3.29-2.85 0.455-3.38 0 0zm-1.83-3.16c-0.878-1.15 1.04 0.75 0 0zm-4.28-4.97c-0.048-0.847 0.737 0.421 0 0z" fill="#504c43"/>
</g>
</svg>