<?xml version="1.0" encoding="UTF-8"?>
<svg width="450.95mm" height="404.85mm" version="1.1" viewBox="0 0 1597.8 1434.5" xmlns="http://www.w3.org/2000/svg" xmlns:rdf="http://www.w3.org/1999/02/22-rdf-syntax-ns#" xmlns:xlink="http://www.w3.org/1999/xlink">
<metadata>
<rdf:RDF/>
</metadata>
<g transform="translate(-2289.3 411.33)">
<path d="m2515.8-276.75c-54.178 35.45-108.36 70.899-162.53 106.35-2.0066 53.509-4.0132 107.02-6.0198 160.53 18.653 5.3737 62.286-11.199 50.448 20.963 0.6282 21.464-16.284 54.87 17.626 53.677 19.055 9.8858 52.278 6.46 62.028 25.089 21.49 90.344 37.221 183.29 70.719 269.83 25.114 40.12 53.992 78.723 76.794 119.78 21.823 99.284 30.76 200.56 43.439 301.26-6.3394 23.015-9.1037 49.724-35.605 57.684-16.176 8.3668-47.17 15.097-46.97 36.017 7.1549 27.008 40.268-0.916 58.495 12.648-24.059 15.881-31.472 30.195 1.5282 37.532 27.555 18.569 58.856 3.3118 88.768 0.59272 17.713-16.757 34.332-34.051 32.967-60.162 17.628-76.091-6.403-155.37 14.692-231.06 15.55-85.525 31.1-171.05 46.65-256.58 198.65-47.489 397.3-94.979 595.96-142.47 14.715 73.575 29.43 147.15 44.145 220.72 49.939 61.03 104.04 119.94 151.4 182.28 10.982 53.133 33.324 105.03 25.978 160.15 5.4878 26.182-7.6188 44.689-30.254 56.639-31.093 3.151-26.98 32.844-34.756 26.319-7.0034 24.684 37.295 10.72 52.661 19.615 19.023 2.4651 52.379 2.7487 60.941-13.082 6.9463-42.309 13.893-84.619 20.839-126.93 32.717-19.481 24.588 17.798 27.651 39.524 4.2368 35.35 8.455 73.356-15.505 103.13-22.88 19.337-3.9106 44.861 22.477 37.591 19.867-4.0718 55.041 4.8947 54.748-24.016 10.404-34-7.5397-69.436-9.8563-104.08-12.29-57.009-12.306-117.68-41.032-169.79-54.1-124.77-105.88-250.68-172.65-369.44-49.376-87.755-90.578-182.36-155.78-259.67-124.8 7.2758-253.56-4.7499-379.6-10.499-88.542-5.2362-177.05-11.016-265.53-17.297-66.286-75.157-130.27-153.17-197.98-226.55-22.295-12.103-44.59-24.206-66.885-36.309z" fill="#f0e4d1" fill-rule="evenodd"/>
<path d="m3742.6 945.94c9.0198-37.711 23.894-33.117 40.694-17.638 59.808-3.8897-28.763 28.5-40.694 17.638zm-14.815-6.4322c-26.94-42.045 45.59-92.698 11.026-143.52-19.601-53.741-13.471 67.924-39.749 83.147-62.518 54.835 33.281-57.903-1.1501-91.017-11.298-37.63-61.927-65.161-45.008-5.2117-20.048 14.867-1.8144-102.93-41.462-127.31-55.381-64.983-122.27-122.8-154.67-204.59-20.169-99.419-136.2-120.19-219.05-88.966-92.327 25.626-182.43 59.126-268.57 100.56-67.432 5.4654-145.58 31.038-134.94 114.93-3.0063 74.726-49.852 155.2-29.065 224.93-26.276 64.228-45.586 153.88-137.22 133.4-43.211 6.5271-66.302-49.204-14.098-57.06-47.722 34.032 5.4543 56.756 37.171 35.909 46.101 43.021 106.16-75.849 59.639-68.404-15.316 48.662-53.1-45.734-56.079 20.612-43.759 34.633-10.396-16.346-3.5636-36.781 41.498-50.463 17.098-130.31 24.072-198.09 5.6144-39.537-28.212-182.34-74.164-123.58-2.9912 61.802 15.789 121.93 29.254 182.11 10.935 24.232 46.873 79.779-8.6027 90.214-2.9574-74.136-21.337-147.09-23.244-222.26 8.2434-94.342-70.484-152.39-109.53-228.02-19.775-55.594-32.305-126.53-71.509-160.43 11.078-67.058-40.012-108.56-101.11-108.27-20.447-46.086-67.118-108.83-16.711-158.75-22.669-59.771 18.568-143.41-15.902-208.49-12.506-86.218 68.479-27.926 102.72-4.239 56.279 33.251 119.56-18.689 147.16-44.117 50.166 43.128 85.587 100.72 127.7 151.26 35.717 54.634 76.343 119.21 149.5 119.21 52.596-0.39732 120.24-14.308 159.07 29.508 59.573 24.695 130.24 8.8295 193.78 5.852 48.593-8.0764 134.18-8.2181 99.341-78.267 5.8611-90.698 96.618-159.2 183.35-161.73 98.277 2.4342 149.94 107.9 162.76 192.89 22.199 63.736-34.596 138.68 20.389 189.76 56.842 72.028 76.663 167.82 59.24 257.48-7.9222 82.703-6.331 168.78 17.897 248.56 46.252 48.548 57.882 108.7 58.914 173.67 1.0326 39.055 29.256 140.27-16.606 138.24 0.7421-40.269-32.292-77.961-49.039-21.646-8.1499 13.33-25.644 32.837-11.919 48.514zm51.573-83.71c-5.644-9.2431-2.2744 12.018 0 0zm-16.9-23.037c-6.8464-4.7224-4.3447 9.0688 0 0zm-31.265-104.46c-5.3346-7.363-2.6007 6.9791 0 0zm-7.605-10.885c-4.6948-49.358-43.736-10.471 0 0zm-171.54-202.05c-2.2247-6.408-3.7932 6.5445 0 0zm-5.9149-17.236c-16.276-39.327-26.395 1.9239 0 0zm-21.989-26.235c1.4421-19.959-26.585-5.0758 0 0zm-11.811-25.556c-24.503-46.438-22.697 16.01 0 0zm-823.83-23.501c15.336-57.712 82.496-164.62-16.592-179.56-32.906-9.8528-37.137 0.0482-17.102-24.372-23.999-36.38 62.739-94.651-5.5432-73.346-22.922 20.019-57.473 53.873-89.886 46.555 38.199-50.135-106.18-0.40722-28.017 12.715-18.707 32.358 25.787-0.78247 27.417 23.19 51.011 38.146-2.4953 30.071-20.655 10.341-2.709 29.129-14.49 95.105 25.721 92.479-8.3569-39.828-2.0667-56.479 24.131-43.236-19.982 69.193 72.146 72.205 96.645 127.53-1.1519 1.5776-5.7867 26.305 3.8822 7.7042zm-7.652-23.744c5.6232-21.153 14.039 10.88 0 0zm-78.095-120.29c3.8963-23.295 14.402 20.167 0 0zm-58.789-1.3068c6.8264-37.997 43.899 13.323 0 0zm94.634-7.1825c-29.348-11.545-65.22-56.398-12.922-22.338 11.402-0.47635 24.067 9.4423 12.922 22.338zm-13.562-44.895c-7.6885-27.306 12.564 16.721 0 0zm-31.223-10.875c1.6323-15.518 15.634 10.97 0 0zm-21.125-6.4981c10.996-24.379 17.368 8.698 0 0zm38.261-21.715c-4.0818-8.8868 10.214 1.6123 0 0zm870.64 235.64c-6.5761-11.933-9.3849 13.051 0 0zm-869.61-61.517c-8.1389-4.1948-2.7952 3.4971 0 0zm-32.532-44.314c-6.3658-9.192-7.1059 5.6687 0 0zm-47.435-55.805c12.493-46.618-31.922 17.823 0 0zm-6.6449-45.991c-6.3493-3.2602-1.5792 8.3436 0 0zm50.879-80.033c-8.0602-9.5536-8.3159 12.613 0 0zm-53.35-41.552c19.693-24.112-45.572-23.573 4.845-37.309 37.626-31.39 93.345-65.207 102.97-113.42-42.797-4.4975 27.222-30.903-19.165-50.226-41.177-14.126-92.934-37.689-116.74 16.405-67.662-49.236-66.09 106.87 5.2183 48.633 30.443-4.7168 72.953 9.028 24.273 27.463 17.634 30.434-76.23 120.38-1.4005 108.45zm48.945-131.17c-2.0121-18.752 44.87-0.73977 0 0zm-51.545 109.3c-2.2249-6.4079-3.7932 6.5446 0 0zm-160.94-58.833c-6.6224-9.0994-5.317 9.2662 0 0zm53.622-27.357c31.536-29.594-63.984-49.727-13.632-9.0852l8.9454 4.3607zm-1.8792-8.7559c1.2133-12.677 12.864 7.7023 0 0zm1.8792-30.114c-5.7999-7.0301-4.371 6.8919 0 0zm86.648-70.663c-5.8844-8.1331-5.2709 9.8043 0 0zm-101.01-4.7488c-8.8252-9.5503-3.2979 16.228 0 0zm1150.9-115.76c-7.6834-5.2875-1.4745 13.354 0 0zm91.622 1147.5c-10.356-14.493 36.396 8.7349 0 0zm-44.098-3.1679c-93.796-17.855 110.43-93.793 14.367-33.488-61.503 39.093 59.668-1.1701 5.2903 37.107l-9.236 0.361zm-1002.8-13.651c4.7114-21.198 34.832 9.3734 0 0zm38.448-1.5546c7.3793-7.4613 4.7615 7.246 0 0zm91.646-10.363c-14.913-19.168 16.846 2.6266 0 0zm-143.19-5.3401c16.906-30.668 24.306-6.9632 0 0zm54.721-23.498c11.925-33.356 41.455-66.372 17.379-12.869-1.5068 7.5222-8.7555 15.705-17.379 12.869z" fill="#e4cca9"/>
<path d="m3756.7 945.44c2.3091-32.74 57.908 10.699 0 0zm-1096.6-13.711c15.13-21.406 39.402-1.1968 0 0zm-12.178-4.0093c2.2248-6.4081 3.7934 6.5446 0 0zm47.457 0.0316c21.865-15.582 9.3428 7.9894 0 0zm-76.645-8.7986c5.3171-9.2662 6.6225 9.0995 0 0zm4.6827-13.967c17.165-24.982 20.526-4.8661 0 0zm145.62-10.187c7.7581-20.352 2.1494 13.111 0 0zm837.54 2.8962c4.0613-27.903 30.538 13.761 0 0zm70.672-1.9004c9.8958-20.718 21.458 7.8326 0 0zm-1072.8-13.134c8.1389-4.1948 2.7952 3.4971 0 0zm968.8-0.99324c24.953-40.459 44.548-17.054 0 0zm233.06-4.1942c-24.634-81.892-57.595-161.25-73.536-245.62-23.629-57.791-117.02-2.8854-135.88-79.003-21.518-66.998-67.549-116.6-125.05-156.63-29.914-8.8728-39.466-57.272-0.3344-28.732-8.4365-35.298-75.332-32.826-58.809-10.726-20.794 26.916-91.443-40.743-136.09-8.9717-66.017 24.152-136.57 34.197-199.92 59.595-38.554 19.001-91.971 64.159-131.49 46.384 31.425-37.361 118.77-37.132 100.32-90.35 32.17-39.514-22.718-29.84-37.367-10.583-24.203 0.70836 24.41-18.446-18.426-18.598-38.849-7.2711-35.908 14.012-20.35 30.324-43.474 7.4329-133.76 51.489-78.74 97.586 23.715-9.717 76.538-11.511 25.46 5.6898-30.708 10.196-88.708 52.497-58.491-9.0295-9.0914-68.473-38.176 43.345-63.77 52.774-32.91 24.229-37.439 64.896-65.095 85.45-9.8557-51.266-3.4232-108.74-10.058-157.86 16.271-25.464 38.172-45.189 24.404-85.027 10.087-54.291 5.4921-116.48-10.926-168.12-32.531 1.7548-67.584 33.324-33.804-11.109 15.163-39.396 55.467-136.74-23.187-85.626-22.754 36.794-108.04-0.75578-101.46 53.745 62.766 14.262-30.89 34.78-57.123 27.76-32.188 4.1698-0.1237 78.733-34.658 25.874-44.105-25.778-10.968-141.12-99.599-129.35-53.49-17.24-13.424-21.919 13.174-31.008 16.476-31.505-41.614 20.477-53.928-19.286-43.532-17.331-20.25-112.97-7.2237-91.317-4.1746 25.437 50.057-0.82463 41.964 46.158 2.6792 100.27 122.73-39.606 123.63 16.097-27.458 31.963-16.921 34.335 16.372 23.331-32.323 34.534-69.336 140.88 19.379 96.341 67.755-10.04 26.336-76.249 80.747-112.06 65.026-62.006 44.842-159.23-11.629-213.79-43.262-37.49-24.63 38.28 7.5571 47.776 13.578 46.551-28.104-25.585-46.289 15.322-30.135-0.0164-72.192-2.0904-91.674-39.145-36.104 12.026-102.2 58.378-95.571-17.412 36.157-40.929-13.857-52.633-34.096-68.392-19.884 46.338-36.187-129.24 29.152-58.831 41.414 33.763 127.2 68.221 163.18 15.745 45.213-86.2 87.487 46.764 125.95 74.791 51.332 54.293 77.776 142.9 157.09 163.25 62.731 13.406 141.26-17.828 191.18 33.898 61.524 28.64 133.05 5.5923 198 3.3882 64.244 5.804 124.42-21.629 99.24-92.237 3.5044-33.702 44.094-104.3 50.814-37.582 4.7793 16.08 40.218 29.873 27.783-0.83454 11.158 16.188 41.881 47.319 26.259 4.7377 15.264 36.338 9.5075-42.863 29.651 5.3323 0.2121-37.408 27.546 15.515 47.26-10.848-6.6342 52.231 28.998-13.887 35.722 28.748 3.8423-45.844 41.929 24.975 45.887 6.3319-0.2389 55.003 30.075 27.069 47.66-0.0962 24.977 13.467-4.4186 45.84 21.863 28.361 21.711 69.22-9.462 155.8 7.8261 214.24-33.159 31.391 47.619 26.137-7.7367 43.868-19.822 25.662-8.1775 70.877-23.282 96.132 23.285 11.824-44.943 2.3026 7.0548 19.418 59.532 30.91-79.352 2.0794-28.67 23.49 25.808 4.9457 63.414 18.381 40.398 51.247 30.423 31.662 54.624 54.51 74.665 17.164 32.025 45.086-6.4369 121.51 15.976 178.62 13.214 53.179 1.3257 130.98 63.598 143.32 0.4117 68.673 27.211 137.6 15.049 205.88zm4.6482-16.086c-3.497 2.7952 4.1947 8.139 0 0zm-68.719-231.85c-3.1063-6.4102-5.0345 3.7492 0 0zm-154.64-124.31c-2.2248-6.4081-3.7935 6.5446 0 0zm26.899-36.758c24.257-5.7255-15.642-2.6028 0 0zm-38.062-14.274c-17.275-12.921 4.5233 17.726 0 0zm33.977-1.3586c-12.077-7.1228 2.8798 6.2204 0 0zm20.28-1.69c-3.7931-6.5446-2.2248 6.4079 0 0zm-30.42-1.69c-4.0785-6.6368-4.0784 6.6368 0 0zm-9.7394-9.7175c-12.464-43.237-29.486 12.701 0 0zm-25.751-0.91264c-11.737-32.657-29.731-0.18742 0 0zm38.87-2.0449c-4.6684-9.3101-4.2971 9.3132 0 0zm16.244-1.574c-12.498-35.361-45.519 2.8407 0 0zm53.68-22.982c-6.801-12.573-29.385 8.8385 0 0zm-56.791-3.6455c-5.271-9.8043-5.8843 8.1331 0 0zm66.263-9.1616c12.094-10.269 1.5454-7.6421-9.6367 1.7357zm-617.54-6.6306c-23.476-18.336 10.131 20.763 0 0zm645.85-0.12186-3.4974 0.38498zm-97.224-8.0298c-22.237-28.941-40.066-0.89214 0 0zm-118.55-1.9342c-5.8993-6.4116-4.7736 9.2008 0 0zm-8.5393-3.5608c-7.053-8.9044-4.1424 12.757 0 0zm-414.05-7.3091c-8.42-17.877-14.793 3.5066 0 0zm459.68-11.663c-2.1949-9.3822-6.6098 5.7178 0 0zm-49.681-13.112c-12.344-1.9374 0.2765 27.649 0 0zm-79.488 5.8812c8.5977-38.328 82.046-2.2906 69.152-62.964-24.817-23.689-75.787-15.663-60.744 16.841-36.325 9.3626-49.411 24.476-8.4081 46.123zm10.551-29.696c9.1778-3.5174-0.7627 3.873 0 0zm27.725-12.627c9.2286-12.854 5.7033 7.9029 0 0zm-6.8719-10.47c-10.436-14.596 31.939 8.5352 0 0zm147.11 49.263c-12.84-4.4401 5.6997 11.085 0 0zm17.83-4.4121c-11.167-23.852-27.02 18.692 0 0zm-134.1-2.2784c32.281-13.653-18.969-4.525 0 0zm-536.4-1.4739c-5.4105-10.888-8.2415 7.1976 0 0zm136.89 0.053c-4.0784-6.6368-4.0785 6.6368 0 0zm-147.03-4.757c-13.818-16.652-14.117 3.6431 0 0zm21.52-1.4976c-17.597-21.506-27.229 4.5108 0 0zm539.56-0.50539c-3.7935-6.5446-2.225 6.4082 0 0zm-118.17-9.4595c40.439-28.037-32.958-22.27 0 0zm0.2594-11.137c5.2712-9.8044 5.8843 8.1332 0 0zm-410.21 8.7669c44.143 1.6573 5.6177-19.73-9.8563-5.4292zm4.225-6.1219c4.608-5.7528 5.2609 10.552 0 0zm-42.25 6.3027c-4.4403-9.5131-6.026 5.8204 0 0zm3.8693-5.4375c-15.182-8.4035 1.8481 9.0267 0 0zm421.85-5.5382c2.6946-41.969-32.357 17.553 0 0zm236.76 2.5021c-8.3237-17.722-12.611 11.473 0 0zm-642.2-3.5372c22.111-27.596 129.17-5.0117 49.698-31.428-33.575-18.65-52.492-14.242-32.866-2.571-30.087-9.9613-60.118 34.717-16.832 33.999zm43.194-24.559c-5.7445-10.625 18.978 12.282 0 0zm201.1 14.515c-26.713-59.374-24.443 28.855 0 0zm213.86 4.7954c12.707-20.074-23.242 14.886 0 0zm-129.45-1.5113c-2.2247-6.4079-3.7932 6.5446 0 0zm32.368-6.0898c33.377 27.286 69.447-57.094 28.48-22.517 8.3402 16.164-66.44 13.14-30.796 24.666zm-285.87 2.7098c-8.1588-7.5284-6.2235 7.2806 0 0zm592.14-2.319c6.7797-19.037-23.062 18.481 0 0zm17.103-1.061c4.5862-12.379-12.61 14.468 0 0zm-432.96-1.8168c-5.3373-7.3896-5.3373 7.3896 0 0zm195.52-1.5632c-9.3991-7.2444-11.196 7.6194 0 0zm205.34 0c-4.0784-6.6366-4.0783 6.6366 0 0zm-236.6-1.69c-4.3709-6.8921-5.8002 7.0304 0 0zm16.9 0c-6.1121-7.1232-6.1122 7.1231 0 0zm194.11-4.3576c12.046-16.13-33.393 8.833 0 0zm-554.91-12.529c-28.635-16.106-14.09 6.6544 0 0zm32.302-6.4324c-30.42-0.16645 4.3201 10.174 0 0zm380.89 3.7349c46.984-26.065-75.857 6.3683 0 0zm-409.56-2.0962c18.369-37.263-29.504-5.441 0 0zm356.33-1.9794c-2.2247-6.408-3.7932 6.5445 0 0zm225.19-3.0827c11.484-17.499-40.583 14.351 0 0zm46.053 1.6697c-14.159-7.1774-12.365 5.4736 0 0zm-581.73-3.3768c-7.518-8.6207-8.7406 12.673 0 0zm251.4-0.39272c1.2458-9.2812-7.5918 8.0561 0 0zm-343.98-5.0341c38.883-4.1233-22.012-31.937 0 0zm587.28-3.3154c-4.7043-15.489-8.8637 9.126 0 0zm26.188-1.6781c-6.3682-12.564-4.1872 11.86 0 0zm-179.98 0c-6.2235-7.2807-8.1588 7.5284 0 0zm-290.15-7.0077c76.368-12.652-41.832-0.98551 0 0zm-129.27-8.883c-3.1422-23.053-14.273 6.4632 0 0zm422.8-0.89158c-6.422-11.357-8.0039 11.83 0 0zm-414.9 0.90812c-5.6754-6.2566-6.5731 3.82 0 0zm452.86-43.165c11.13-37.547-30.563 13.569 0 0zm28.79-6.7894c2.5216-11.087-26.007 8.8163 0 0zm-742.23-11.806c-6.276-6.4959-3.9372 10.324 0 0zm725.33-2.0025c-10.579-9.4178-6.1826 16.142 0 0zm-713.18 1.9967c-5.756-11.626-12.873 7.2886 0 0zm746.98-5.1697c-4.371-6.8918-5.7998 7.03 0 0zm-15.21-6.8878c-7.3146-3.6156-5.0091 8.6377 0 0zm-42.533-2.1836c-4.5196-15.798-10.96 12.877 0 0zm-907.21-28.173c15.976-33.668-24.192 30.256 0 0zm216.75-61.86c58.248-48.201-42.068 2.3263 0 0zm143.18-9.0559c-6.112-7.123-6.112 7.123 0 0zm-469.82-1.69c-4.0785-6.6368-4.0785 6.6368 0 0zm14.226-1.8571c36.057-20.531 19.691-18.125-3.7324 0.84159l3.7322-0.84162zm479.62-8.0643c6.9192-22.821-21.722 18.895 0 0zm-296.11-12.049c-10.5-7.7434-8.0243 7.5048 0 0zm294.76-1.084c-0.6246-6.9476-7.1063 11.423 0 0zm-148.53-1.6373c76.545-13.158-36.902-3.9197 0 0zm141.84-2.5831c31.078-57.828-23.013-18.869-10.898 3.3246zm-123.24-14.325c12.31-15.526-22.633 7.2578 0 0zm-410.69-4.6928c6.5563-23.28-22.107 7.9102 0 0zm394.19-14.231c-4.1638-7.9492-4.3875 10.189 0 0zm19.743 1.1018c35.584-4.7215-16.962-42.958 0 0zm119.94-4.2369c-1.0676-17.764-9.6947 16.334 0 0zm-1.5244-12.519c28.712-53.321-59.356-8.5929 0 0zm-100.6-10.013c-2.2249-6.4079-3.7932 6.5446 0 0zm3.1674-31.265c-14.774-26.712-35.568 65.847-4.3219 8.0649 1.4406-2.6883 2.8813-5.3766 4.3219-8.0649zm13.733-14.408c-10.927-3.9513-8.7753 14.313 0 0zm-13.194-11.364c14.848-23.495-20.816 3.6363 0 0zm802.88-6.0687c52.206-60.051-34.99-2.4278 0 0zm30.562-0.62014c23.165-36.335-20.714 7.2599 0 0zm-250.72-37.574c-2.4881-9.0687-5.5203 6.4626 0 0zm25.854-6.237c-0.1433-19.568-14.207 4.8916 0 0zm-34.304-9.0728c-6.1119-7.1231-6.112 7.1231 0 0zm59.334-6.2274c-11.922-23.943 0.2421 18.345 0 0zm-865.88-29.17c30.926-43.421-40.446 3.6269 0 0zm13.939 1.5978c-6.1844-7.8071-3.8414 5.0646 0 0zm767.26-0.9561c-2.916-21.757-11.342 4.7544 0 0zm-789.45-13.416c-15.94-31.147-20.91 17.031 0 0zm-26.404-1.6824c-2.2743-15.189-8.7051 16.304 0 0zm25.636-19.199c-1.85-12.215-8.9018 10.057 0 0zm-7.4593-7.6338c-7.6554-18.46-12.032 12.102 0 0zm26.618-7.5616c-16.156-37.985-44.37 6.2787 0 0zm57.242-4.8979c19.942-43.178-20.488 15.913 0 0zm-245.62-36.509c11.659-36.067-38.562-0.499 0 0zm-44.881-39.439c-5.3669-12.349-8.0575 9.025 0 0zm25.807-8.8248c-19.791-26.144-16.624 4.4283 0 0zm1331.7 1192.4c9.4533-37.524 4.678 11.82 2.5974 2.885zm-1012.1-24.051c-15.28-28.243 18.022 7.447 0 0zm1025.1-38.309c3.0253-54.657-88.857-104.45-65.475-28.603 9.1074-78.38-33.738-147.57-92.7-195.81-41.26-52.16-97.366-109.1-102.62-177.38 60.851 47.133 95.488 119.13 152.2 170.91 46.533 56.48 110.69 109.5 123.4 184.87 0.6346 14.501 4.5183 42.6-14.798 46.017zm-1049.4-54.635c-7.0849-44.736 10.46-57.39 0 0zm-9.5542-90.705c-10.814-22.521-9.422-116.17-1.1445-40.567-2.4713 9.2401 9.6959 38.442 1.1445 40.567zm1041.7-52.08c-0.4198-9.7208 8.4855 7.6011 0 0zm-21.97-5.07c2.4892-9.7889 10.565 9.15 0 0zm-973.08-83.12c-20.873-65.872-99.22-83.602-132.22-141.69-26.31-21.715-36.557-58.628 5.9719-26.096 53.076 26.705 103.23 62.637 123.52 130.05 2.9981 4.5414 18.916 58.073 2.726 37.735zm718.08-149.8c-2.9546-37.995 30.629-5.5922 0 0zm-425.15-7.9379c-13.781-9.8202 33.997 11.362 0 0zm15.21-4.0842c4.371-6.892 5.8 7.0303 0 0zm715.29-31.539c-5.9394-11.412 13.487 2.3966 0 0zm-65.488-5.6407c7.4295-7.6494 6.9533 5.8845 0 0zm69.199-5.2173c-1.3556-12.971 6.8662 5.2095 0 0zm-78.494-33.653c3.7933-6.5446 2.2248 6.408 0 0zm-12.147-63.684c9.178-3.5175-0.7624 3.873 0 0zm-1004.4-105.32c5.3344-7.3628 2.6008 6.979 0 0zm1021.6-5.8153c2.4883-9.0686 5.5203 6.4626 0 0zm-1085.7-34.518c-0.7444-9.5236-5.3232-3.6491 0 0zm-201.55-156.78c32.404-48.296 93.8-87.033 150.75-69.653-39.013 36.683-105.42 45.518-150.75 69.653zm-18.324-37.895c-2.6135-14.956 9.8576 8.7958 0 0zm12.643-5.3897c-47.972-24.13-19.296-110.52-5.2061-130.28 22.391 17.45 19.53 47.575-2.8324 76.738-6.5315 14.382 31.764 51.136 8.0385 53.545zm1228.7 1.2206c1.1777-20.026 9.9603 5.9871 0 0zm-961.32-15.586c9.8339-14.197 6.669 10.631 0 0zm1000.6-9.295c7.134-8.8041 7.134 8.8041 0 0zm-1004.3-0.95332c-25.264-10.69 27.536-0.53585 0 0zm-37.602-10.59c-9.2131-21.839 17.107 10.187 0 0zm816.91-13.963c-10.182-12.655 3.5725 9.2133 0 0zm211.67-12.016c-1.6088-15.325 9.842 8.1467 0 0zm-231.19-2.3891c-0.7445-9.5235-5.323-3.649 0 0zm12.668-1.2126c1.4375-6.3696 1.3506 8.1095 0 0zm-45.121-35.268c-2.1805-16.09 10.566 7.0462 0 0zm21.875-1.0546c-28.661-33.272 66.751-41.268 8.5878-5.9014zm166.83-39.077c-21.306-23.781 13.299-11.777 0 0zm-74.133-16.565c-0.061-25.213 12.17 12.194 0 0zm-40.853-0.7311c11.552-15.482 10.089 8.2942 0 0zm21.882-1.9099c-2.8288-10.612 12.477 10.842 0 0zm54.922-0.8862c0.586-13.307 10.106 7.5373 0 0zm-10.049-1.5428c2.2248-6.4081 3.7934 6.5446 0 0z" fill="#ca9962"/>
<path d="m3760.8 937.02c4.1901-8.9048 4.1901 8.9048 0 0zm-151.04-40.912c-1.0974-10.05 15.069 1.6396 0 0zm-31.476-21.721c17.856-22.111 12.34 3.3531 0 0zm136.17-61.729c-21.414-64.471-84.548-87.82-100.08-156.8-34.636-51.3-89.879-85.458-118.56-141.92-23.023-25.199-77.581-141.14-15.163-67.762 42.992 43.939 74.294 97.818 120.21 139.83 44.585 52.402 95.255 99.624 122.69 163.71 6.8311 14.019-0.9686 61.054-9.0988 62.943zm-67.42-25.293c-11.356-69.11 8.0063-31.509 0 0zm-996.92-134.26c-8.6078-28.825 5.7605-20.704 1.0324 1.8477zm1066.6-124.12c-20.6-13.058 20.216 7.6725 0 0zm-1018.3-10.512c-23.882-67.119-102.93-79.955-135.76-139.61-22.606-30.613 17.179-7.1362 16.925 8.3984 17.864-3.0636 54.713 37.515 40.178-1.4123 39.754 33.375 66.332 81.679 81.867 131.25l-1.1733 2.3306-2.0315-0.95523zm-127.3-146.56c-15.346-9.8172-10.908 7.1367 0 0zm1134.7 129.13c-6.8162-8.598 12.899 6.7872 0 0zm-840.64-21.65c22.666-21.444-1.9009 19.222 0 0zm847.52 1.0077c-28.098 3.4597 20.224-32.772 7.2846-1.7178 0.7315 9.395-2.5254 3.6739-7.2846 1.7178zm-953.43-9.3173c19.257-30.466 49.985-35.705 72.781-57.504-0.077 23.005-31.535 76.983-70.858 62.128-3.4995 1.2529-1.7392-2.6396-1.9231-4.6241zm957.62-14.926c-3.4129-23.705 9.8759 8.0004 0 0zm-719.95-16.101c-4.8485-24.152 12.604 15.263 0 0zm-137.73-7.6161c-13.496-45.374 42.019-48.227 0 0zm158.05 2.8369c7.124-5.5792 4.2497 2.99 0 0zm696.28-4.4333c-4.2759-10.035 14.447 2.3089 0 0zm-944.71-19.208c2.0265-10.968 6.2157 6.1594 0 0zm67.083-2.1252c-0.2196-8.9112 9.1837 4.358 0 0zm-22.882-20.132c8.0852-12.594 2.3625 8.7266 0 0zm52.129 0.4638c1.6074-3.8761 36.884-45.485 35.372-6.4254-11.408 2.5566-23.172 12.57-35.372 6.4254zm-32.11-0.85931c0.073-9.7942-28.886-27.404 6.1005-14.366 4.4518 4.3286-1.4334 15.655-6.1005 14.366zm332.36-19.972c-44.248-7.9697 25.979-55.394 43.669-28.175 14.189-18.506 43.279-13.313 64.604-23.79 37.214-11.809 55.33 21.683 90.899 12.503 3.6928 21.375 31.446 27.09-12.38 15.723-31.068-15.762-67.33-22.028-99.054-1.4559-21.875 29.541-60.301 20.125-74.69 13.396-6.2804-1.4842-6.1018 23.268-13.049 11.8zm17.841-0.53744c8.1552-15.611 0.2516 10.391 0 0zm-77.356-19.464c-43.262-2.578-8.999-31.327-6.6255-50.835 17.214 21.565 46.807-20.793 36.869 23.071-22.358-5.825-10.551 40.375-30.243 27.764zm27.143-7.661c-27.522-15.173 44.009-3.007 2.0975 3.1377zm-292.38-8.4944c-8.2688-29.342 26.054-81.63 10.342-20.91 0.3687 3.9796-2.3888 26.959-10.342 20.91zm-12.677-19.556c7.9234-9.3957 12.446 10.955 0 0zm-16.411-4.7604c10.892-9.3059 20.166 9.7816 0 0zm11.341-7.7971c8.8604-6.2272 8.8604 6.2272 0 0zm-20.28-4.9702c3.5751-8.3907 6.5691 6.1147 0 0zm-15.21-1.7898c4.3179-6.0628 4.3179 6.0628 0 0zm20.28-16.719c12.007-14.933 10.349 16.692 0 0zm19.012-4.5485c-25.718-26.996 26.189 12.063 0 0zm-52.641-1.3405c6.3171-19.498 25.866-95.615 33.628-70.004 29.317-5.5105-3.5691 50.541 3.2587 46.89 5.6023 1.5423-28.939 18.081-36.887 23.113zm20.934-31.913c-6.3876-19.998-6.4109 22.407 0 0zm-7.5859 29.81c2.8249-5.841 7.285 9.16 0 0zm20.28-7.3981c4.3179-6.0628 4.3178 6.0628 0 0zm-10.14-3.2803c3.003-11.47 5.2248 9.1359 0 0zm414.97-7.1002c-10.129-17.128 20.415 9.0932 0 0zm9.6339-1.7084c10.15-30.757-38.785-34.025-21.457-31.349 27.601-5.7002 41.442-19.132 25.432-40.958 33.774 27.61 49.512-32.417 86.508-34.98 38.116-18.093-30.379-17.597 9.8422-35.448 30.21-28.481-27.218 5.1108-6.5252-23.102-12.535 31.855-53.354 21.27-44.272 6.2945 22.627 0.22113 27.399-63.11 4.8801-17.649 14.043 5.6654-33.808 6.7022-27.222 6.5875 35.486-27.919-59.828-9.2765-28.74-33.351-19.703 3.4412-33.356 1.5253-2.1474-13.194 14.594 28.082 6.1252 11.747 23.185 14.132-4.0731 6.2199 65.378-34.014 52.004-19.533 39.128 8.03-19.034 10.655 15.251 24.333 1.3251-28.209 58.439-45.533 24.384-63.812-18.309 30.487-30.507-41.488-44.785-6.2028-15.488-1.1037-79.505 24.906-43.704 5.0468 15.513-18.905-36.824 2.6158-27.27-1.8667-48.738-23.322 35.631-19.493 60.042-20.172 6.5533-15.398 50.136-57.013 85.394-21.031 32.021 9.1038 30.054 5.6772 65.943-18.589-15.734-12.691 16.123-3.9841 1.1498-23.038 24.796 2.302 44.766-41.295 74.767-15.968 10.337-30.197 21.811 26.578 27.176-0.70769 13.745 42.413 38.773 26.688 50.566 64.28-12.901 40.764 24.979 46.468 25.768 72.577 37.14 18.192-44.403 23.16-20.944 1.8154-24.579-2.0526-50.977-22.516-64.771-18.095-23.359 8.5407-6.8862 29.984-45.188 19.89 7.4104-9.0374-8.8425-12.845 13.026-8.7059-42.704-12.554-59.39-9.7907-95.248-22.25-31.96-0.86637-27.342 0.60664-15.869 20.927-20.304-36.682-37.028-2.6963-36.845 15.643 10.252-31.945 45.078 13.537 38.316 7.4677 6.0786 29.592-0.5839 54.414-13.725 80.924-24.616 32.216 25.714 53.813-14.646 45.706 9.5449 53.007-43.648 14.563-32.123 0.57711-22.491 39.033-56.689 42.083-85.246 77.376l-9.0761 8.3725-3.8303-1.9489zm33.383-58.891c-2.0436-6.1789-4.168 6.0202 0 0zm95.485-101.28c-6.3194-10.534-8.9122 10.556 0 0zm27.885-1.8077c-6.4971-6.0592-4.3315 6.2598 0 0zm-82.327-10.114c-1.3375-12.653-6.2317 15.385 0 0zm38.387 4.2984c-4.0441-5.7703-6.8417 3.237 0 0zm-13.907-5.699c-6.1294-4.3164-6.1116 8.3212 0 0zm5.457-12.046c-4.3743-12.179-15.149 9.0912 0 0zm38.025-0.0998c-4.3318-6.2596-6.4967 6.059 0 0zm-86.746-2.7969c-4.3837-40.605-34.461 1.6209 0 0zm78.605-2.5899c-2.8974-2.9056 1.4591 9.4481 0 0zm-5.4977-7.9416c-3.7733-12.706-8.3077 4.6481 0 0zm-16.963-15.108c1.5465-22.053-19.344 4.6729 0 0zm125.1-57.089c9.31-11.272-18.91 5.9259 0 0zm-143.41-4.2064c-4.0846-17.976-16.662 8.0481 0 0zm174.23-12.586c-0.9035-12.143-15.603 12.96 0 0zm-82.546-7.598c12.127-13.892-17.761 11.495 0 0zm-589.49 294.13c4.3317-6.2597 6.4969 6.0591 0 0zm528.16-20.245c0.503-18.189 34.784 16.967 0 0zm-518.79-4.9884c0.6168-8.3235 5.387 5.6224 0 0zm-335.74-20.624c-18.966-19.05-42.689-11.45-31.989-48.161 4.4086-38.717-17.592-62.901-44.044-89.167 26.568-11.997 117.91-79.919 73.964-10.241-39.1 36.276-20.966 83.24 31.068 59.896 7.5099-0.32077-27.44 52.049 3.8956 11.727 20.281-36.028 78.494-26.997 89.48-56.566 6.7841-19.334 34.674-46.441 30.545-36.765 19.511-33.823 14.937 27.856 28.53-2.8761 2.0279-15.036 38.786-64.343 37.616-59.323 25.031 0.92596-29.46-14.892 16.012-14.093 35.422-18.447-19.476 58.092-38.788 68.499-13.016 29.023-62.682 57.626-100.39 88.021-40.542 21.98-28.845 29.963 6.1949 32.259-45.818 14.571-88.83 3.1558-95.611 57.741l-2.6714 2.2594-3.8177-3.2109zm33.153-63.993c-6.4967-6.059-4.3318 6.2596 0 0zm118.3-84.5c-2.0439-6.1789-4.1679 6.0202 0 0zm313.42 146.89c15.975-24.81 11.468-61.227-8.8165-21.058 0.2633-13.844-27.502-39.016-13.631-71.094 41.619-11.587-8.6817-44.985 38.72-47.425-2.4065-18.7 8.3123-47.118 21.848-62.011 18.3-30.01 37.292 35.693 2.5635 34.244 27.18-17.812 5.3615-35.827-2.2152-22.488-5.7977 23.551-16.846 57.818-17.133 89.94 15.51 18.557-30.43 24.24-19.033 39.044 39.301-4.5601 16.297 53.741-2.3016 60.848zm2.6798-123.34c-8.9414-3.5949-1.6868-1.6572 0 0zm-142.2 117.25c-19.925-12.246-16.507-32.896 1.017-53.765 29.019-23.876 17.452 59.912-1.017 53.765zm6.087-49.54c-2.0438-6.1788-4.168 6.0203 0 0zm128.44 41.667c7.7209-15.277 5.0863 9.9975 0 0zm-17.217-22.541c9.4481-1.459-2.9057 2.8973 0 0zm216.12 0.0737c-3.7887-13.654 17.073 6.8474 0 0zm57.125-4.0012c6.8415-14.284 7.5969 8.9387 0 0zm-491.78-10.128c8.4303-6.1349 4.483 6.5178 0 0zm465.59-9.9429c7.5158-8.601 5.9165 4.355 0 0zm11.83-5.2671c4.168-6.0202 2.0441 6.1788 0 0zm-356.21-1.9998c16.287-20.258 15.52 11.57 0 0zm342.69 0.42372c-29.502-30.805 18.226 5.7909 0 0zm-324.48-5.0841c3.2069-8.5098 5.2493 6.1289 0 0zm364.43-2.6347c3.5616-8.8488 3.5616 8.8488 0 0zm-492.57-5.3114c19.96-34.962 55.318-82.6 73.42-129.09 4.4131-42.233 38.66-71.812 17.541-11.366-20.328 41.2-27.054 91.976-64.246 122.65 2.2873 12.229-17.506 28.325-26.716 17.798zm86.736-144.25c-2.0439-6.1788-4.168 6.0203 0 0zm308.42 144.54c10.66-10.457 11.767 1.9403 0 0zm-283.54-2.7412c-18.347-18.914 32.955-1.054 0 0zm394.51-9.4138c-2.1423-10.591 10.936 2.3474 0 0zm-476.02-4.3264c5.471-14.837 2.9735 8.6793 0 0zm498.85-3.9371c6.2388-8.5022 2.4883 6.9526 0 0zm-64.52-4.1298c4.3179-6.063 4.3179 6.063 0 0zm35.407-0.58187c-10.49-25.628 10.002-1.9508 0 0zm-35.457-7.774c5.8471-15.742-14.513-17.148 17.577-25.608-25.9 24.589 32.015-7.4655 27.431 9.5009-24.345-13.275-28.217 20.808-45.009 16.107zm-43.89-3.4741c11.833-6.2588 8.3004 6.3876 0 0zm-783.36-22.17c-42.626-33.725 73.338-0.83874 33.865-45.393-33.809 58.812-125.63-71.372-55.741-78.009 55.967-3.454 10.251 50.158 35.27 67.225 45.873 28.113 96.654-44.259 125.95-24.429-31.523 44.194-83.361 80.803-139.35 80.605zm-0.4475-49.516c18.934-21.366-41.935 7.6023 0 0zm819.72 45.16c-13.329-12.905 24.266 3.2952 0 0zm-233.62-12.767c2.8039-16.488 12.899 9.4904 0 0zm293.14-9.7915c3.0956-15.715 21.66 3.4259 0 0zm-16.009-2.968c-8.9102-39.478 28.908-1.9812 0 0zm-265.3-2.4505c5.3612-19.417 9.7454 8.8938 0 0zm245.08-2.8464c-2.7541-16.274 23.323 10.646 0 0zm61.953 0.49818c-0.8059-9.9324 8.5688 3.6773 0 0zm-14.692-3.1443c-27.854-20.758-7.8591-24.895 9.216-5.3731 4.0761 5.2076-6.3017 11.613-9.216 5.3731zm146.61 1.37c-13.048-23.421 16.187 0.97543 0 0zm44.362-0.46559c10.417-14.719 7.3354 7.5902 0 0zm-127.58-5.157c6.8171-3.2585 3.8287 5.871 0 0zm217.15 0.0275c6.4967-6.059 4.3318 6.2596 0 0zm-872.88-6.76c4.4373-29.284 34.14 2.1805 0 0zm601.67 0.10495c6.0941-23.522 7.3722 11.125 0 0zm-302.72-1.0882c15.669-16.545 26.053 5.5439 0 0zm350.29 1.5466c1.0642-20.972 26.606-5.2711 0 0zm-99.146-2.6758c11.142-4.8403 11.136 5.4742 0 0zm-172.84-3.38c19.441-10.45-1.7369 13.725 0 0zm131.83-1.4772c9.0731-5.0351-4.118 5.1939 0 0zm131.43 0.20971c9.2367-6.187 6.2878 6.3462 0 0zm-154.37-4.3128c8.0852-12.594 2.3625 8.7266 0 0zm141.2-0.19834c0.2234-11.675 8.1755-2.2294 0 0zm-74.508-4.8789c-1.9502-12.248 10.025 5.0694 0 0zm-579.75-2.2484c3.9763-12.609 11.379 6.354 0 0zm628.56-3.5715c0.5961-14.539 15.459 5.8959 0 0zm-613.93-2.0057c6.1118-8.3212 6.1295 4.3165 0 0zm335.92-13.042c28.921-19.495-7.9192-49.73 26.514-17.811 2.5959 17.251-16.507 13.21-26.514 17.811zm16.9-17.062c-4.3178-6.0628-4.3179 6.0628 0 0zm-339.69 11.83c4.3179-6.0628 4.3178 6.0628 0 0zm76.904-30.43c11.846-10.124-6.0411 11.646 0 0zm85.336-6.5688c6.5945-14.62 4.4175 10.616 0 0zm158.86-1.8708c6.5964-6.1738 6.5963 6.1738 0 0zm-44.361-5.9553c4.2373-18.7 8.7152 13.467 0 0zm26.194 3.1461c-4.9022-9.5321 20.837 5.6793 0 0zm482.92-35.216c8.0345-8.996 3.9158 8.6836 0 0zm-1012.3-13.388c2.5577-41.899 103.18-20.156 36.62-2.0942-12.077 1.2153-24.443 4.2796-36.62 2.0942zm-78.004-12.385c-22.672-25.267 9.5782-13.157 3.5765 2.7993zm309.57-25.826c6.598-5.5104 6.7735 3 0 0zm30.42 0.053c14.183-5.4639-3.2029 6.029 0 0zm2.5857-8.3679c-43.088-9.6917 25.979-16.905 0 0zm-50.948-4.2113c-2.2421-23.044-52.372-34.811-12.125-65.161-2.2692-27.718-56.446-54.37-62.883-98.02-38.372-56.694 42.109 15.307 50.998 40.514 21.573 34.256 75.984 82.434 65.476 107.59-26.275-16.978-25.187 8.276-41.467 15.079zm-245.28-12.709c-22.203-26.813 11.476-63.866 37.422-64.282-10.507 38.203 36.172-9.4843 39.726 18.056 22.008 36.236-49.853 16.567-68.173 41.906-4.7452-8.3472 2.4363 21.506-8.9745 4.3198zm920.63-5.1317c4.3179-6.0628 4.3179 6.0628 0 0zm-980.2-26.841c2.7886-7.8902 5.8653 2.9133 0 0zm270.4-15.462c3.0799-20.241 21.908-5.0068 0 0zm756.57-4.0069c0.1937-12.616 8.0001 7.5418 0 0zm-776.68-8.4043c-35.156-11.17-21.958-48.651-57.597-39.477-9.7533-43.106-2.0986-30.01 20.209-14.206 5.7997-40.394 63.324 54.182 37.388 53.683zm-251.21-1.1684c1.1282-9.7314 13.846 7.4546 0 0zm171.63 0.535c2.5735-11.851 7.4852 4.9046 0 0zm-27.73-9.8558c-0.6654-13.528 13.352 7.786 0 0zm38.752-3.7716c-47.833-55.862 47.331 15.257 0 0zm-16.727 1.8922c-3.677-8.5686 9.9323 0.80617 0 0zm-175.2-21.784c-2.251-20.342 11.496 14.86 0 0zm69.674-6.1956c-45.99-49.874 30.25-39.462 17.78 2.7279-5.1341 4.5614-15.061 3.9223-17.78-2.7279zm-46.806-8.0275c4.3318-6.2596 6.4967 6.059 0 0zm191.82-45.431c2.7889-7.8902 5.8651 2.9136 0 0z" fill="#a96e38"/>
<path d="m3579.9 873.27c10.865-17.177 5.7733 5.9778 0 0zm131.55-72.725c-20.204-57.305-81.68-72.509-92.077-136.49-33.345-55.887-93.072-90.115-122.78-149.51-22.106-26.059-46.255-80.642-42.6-92.133 51.83 36.331 76.6 96.349 123.31 137.66 41.083 53.171 97.564 96.208 126.69 156.96 24.499 11.536 29.752 105.39 7.4662 83.523zm-64.489-13.188c-7.0177-32.089 2.098-55.819 2.969-8.1195 3.1816-5.3767-1.9691 19.547-2.969 8.1195zm-997.92-147.78c1.8423-8.026 0.9902 10.18 0 0zm46.894-130.55c-22.89-63.062-99.387-68.117-128.59-124.96-21.57-28.411 71.7 45.325 63.619 12.964 27.932 26.61 64.975 98.746 64.974 111.99zm-60.743-96.752c-4.3178-6.0628-4.3179 6.0628 0 0zm231.82 68.182c9.9546-11.876 2.7096 7.9374 0 0zm353.61-125.64c17.161-22.503 63.929-36.567 16.017-1.2725-3.8052 7.2535-29.617 16.99-16.017 1.2725zm-7.4481-5e-3c4.168-6.0202 2.0439 6.1789 0 0zm145.04-9.3107c-45.499 4.2764 1.9415-23.183 6.595 0.43824l-2.2979 0.4225zm-84.203-15.733c4.2152-8.9206 7.4987 0.41083 0 0zm14.274-3.8339c-0.5306-16.736 13.084 10.443 0 0zm-802.3-130.99c-34.405-3.2737-26.876-35.191-30.026-69.87 10.604-25.748-60.741-51.309-24.364-65.172 26.945-15.721 92.205-54.64 48.875-1.4538-23.303 28.065-12.72 64.186 9.4223 67.305-1.147 35.896 75.788 15.323 76.551 20.803-34.043 6.4604-74.784 11.995-70.273 55.276l-2.9751 0.57141-7.2097-7.4592zm38.796-60.962c2.1194-34.359 91.059-45.727 29.189-13.849-7.439 6.2905-19.74 14.308-29.189 13.849zm-14.647-8.8325c18.713-29.92 9.3252 16.38 0 0zm81.174-23.418c10.084-18.606 23.091-4.1059 0 0zm22.761-17.322c4.168-6.0202 2.0439 6.1789 0 0zm12.675-9.9405c2.7886-7.8902 5.8653 2.9133 0 0zm-262.83-13.5c-36.107-33.16 68.392 5.5535 40.352-49.241 26.778 7.2828 125.71-75.376 83.548-11.352-35.537 27.496-75.891 67.397-123.9 60.592zm-7.9709-32.069c-29.36-24.607-68.613-103.19 2.557-87.825 28.404 13.688 12.416 74.978 8.9699 63.322-63.122 19.045 73.684-11.36 14.436 23.54l-13.529 3.7245zm1082.8-54.334c15.021-30.08 58.33-21.103 13.712-1.7671l-9.0181 2.3083zm42.839-22.194c-19.557-16.784-38.183-26.095-14.775-32.517 2.3643-56.212 84.012-0.69159 59.769 22.042-27.675-38.754-19.834 17.977-44.994 10.475zm-36.56-13.564c11.846-10.639 3.2978 7.6509 0 0zm-998-62.912c8.81-43.95 78.744 0.98851 14.742 1.8975l-11.398 0.21868zm-94.811-17.72c-1.4269-9.9069-5.1396-4.3155 0-1.6e-4zm290.72-50.22c-0.3771-56.573 25.722-8.39 0 0zm-57.832-72.433c-17.177-37.088 24.867 12.245 0 0zm45.22-5.352c-48.316-73.356 32.674 17.01 0 0zm-19.559-33.738c-8.5876-12.022 11.007 8.4766 0 0zm-45.661-52.97c0.5406-8.2704 7.6391 3.2149 0 0z" fill="#504c43"/>
</g>
</svg>
