<?xml version="1.0" encoding="UTF-8"?>
<svg width="350" height="350" version="1.1" viewBox="0 0 328.13 328.13" xmlns="http://www.w3.org/2000/svg" xmlns:cc="http://creativecommons.org/ns#" xmlns:dc="http://purl.org/dc/elements/1.1/" xmlns:rdf="http://www.w3.org/1999/02/22-rdf-syntax-ns#" xmlns:xlink="http://www.w3.org/1999/xlink">
<metadata>
<rdf:RDF>
<cc:Work rdf:about="">
<dc:format>image/svg+xml</dc:format>
<dc:type rdf:resource="http://purl.org/dc/dcmitype/StillImage"/>
<dc:creator>
<cc:Agent>
<dc:title>j4p4n</dc:title>
</cc:Agent>
</dc:creator>
<cc:license rdf:resource="http://creativecommons.org/publicdomain/zero/1.0/"/>
</cc:Work>
<cc:License rdf:about="http://creativecommons.org/publicdomain/zero/1.0/">
<cc:permits rdf:resource="http://creativecommons.org/ns#Reproduction"/>
<cc:permits rdf:resource="http://creativecommons.org/ns#Distribution"/>
<cc:permits rdf:resource="http://creativecommons.org/ns#DerivativeWorks"/>
</cc:License>
</rdf:RDF>
</metadata>
<g>
<path d="m112.54 139.03c-4.7559 3.8893-12.036 6.352-15.286 11.093-0.17422 4.6457-0.34844 9.2914-0.52265 13.937 5.3134-1.3647 4.9394 2.2811 4.6384 6.1842 4.4128 1.3935 9.2777 2.5601 8.7937 8.5804 2.1916 8.8008 3.2302 18.426 9.2179 25.65 5.0195 6.0121 4.7314 14.173 5.9933 21.496 0.0918 5.3228 2.6973 10.956 0.26293 16.014-1.9965 1.4722-10.403 5.5611-3.721 6.0219 5.1584-1.273-2.3575 3.2414 2.9305 3.8121 5.9025 2.7745 12.722-1.8571 11.758-8.5355 0.33954-7.6255-0.49741-15.338 1.6356-22.79 1.2189-6.7038 2.4377-13.408 3.6566-20.111 18.631-4.4539 37.262-8.9078 55.893-13.362 2.5225 7.9347 1.359 17.639 7.006 24.138 4.5716 6.229 11.813 11.192 12.763 19.326 1.0153 5.0185 3.4342 13.244-3.2016 15.295-6.5206 4.2656 10.701 6.3672 9.1601 0.0804 0.61503-2.5914 0.98954-13.366 4.0301-8.2586 1.6336 5.3154-0.98203 10.579-1.8485 14.967 6.5279 3.6449 10.378-3.6165 7.1408-9.2972-1.1596-7.4757-2.0278-15.144-5.8194-21.852-6.9597-16.898-15.345-33.175-24.596-48.921-2.6303-8.1022-10.512-5.9029-17.27-6.0693-15.619-0.6735-31.257-1.4301-46.823-2.8373-4.6363-2.5818-7.5251-8.245-11.45-12.063-3.9568-4.2286-7.131-9.5203-12.778-11.649l-0.78231-0.42469z" fill="#f0e4d1" fill-rule="evenodd"/>
<path d="m227.6 253.7c0.84589-3.5369 2.2411-3.106 3.8167-1.6542 5.6092-0.3648-2.6977 2.673-3.8167 1.6542zm-1.3895-0.60326c-2.5266-3.9433 4.2758-8.6939 1.0342-13.46-1.8385-5.0402-1.2632 6.3707-3.7281 7.7984-5.8629 5.1423 3.1216-5.4311-0.10774-8.5365-1.0597-3.5292-5.8079-6.1111-4.2211-0.4887-1.8802 1.3943-0.17012-9.6538-3.8886-11.94-5.194-6.0946-11.467-11.517-14.506-19.188-1.8916-9.3243-12.774-11.272-20.545-8.344-8.6591 2.4034-17.11 5.5453-25.189 9.4316-6.3243 0.51253-13.654 2.911-12.656 10.779-0.28195 7.0083-4.6755 14.556-2.7259 21.096-2.4644 6.0238-4.2754 14.432-12.87 12.511-4.0527 0.61216-6.2183-4.6148-1.3222-5.3516-4.4758 3.1917 0.51154 5.323 3.4861 3.3678 4.3237 4.0348 9.956-7.1137 5.5934-6.4154-1.4365 4.5639-4.9801-4.2893-5.2595 1.9332-4.1041 3.2481-0.97498-1.533-0.33423-3.4496 3.8922-4.7332 1.6037-12.223 2.2577-18.58 0.52635-3.7078-2.6464-17.1-6.9556-11.588-0.28053 5.7963 1.4809 11.435 2.7437 17.079 1.0256 2.2727 4.3961 7.4823-0.80681 8.461-0.27736-6.953-2.0011-13.795-2.18-20.845 0.77312-8.8481-6.6105-14.292-10.273-21.385-1.8546-5.214-3.0298-11.867-6.7066-15.046 1.0389-6.2893-3.7527-10.181-9.4831-10.154-1.9178-4.3224-6.2947-10.207-1.5672-14.889-2.1261-5.6058 1.7415-13.45-1.4914-19.554-1.1729-8.0862 6.4225-2.6191 9.6339-0.39757 5.2783 3.1185 11.214-1.7528 13.802-4.1376 4.705 4.0449 8.027 9.4464 11.976 14.186 3.3498 5.1244 7.1608 11.181 14.023 11.18 4.9326-0.0374 11.276-1.3418 14.917 2.7678 5.5875 2.3153 12.215 0.82804 18.174 0.54848 4.5577-0.75726 12.584-0.77113 9.3168-7.3408 0.54978-8.5062 9.0617-14.931 17.196-15.168 9.2172 0.22835 14.062 10.12 15.265 18.091 2.082 5.9776-3.2445 13.007 1.9127 17.797 5.3307 6.7554 7.1899 15.739 5.5557 24.148-0.74299 7.7565-0.59377 15.829 1.6785 23.312 4.3378 4.5532 5.4286 10.195 5.5254 16.288 0.0968 3.6629 2.7438 13.156-1.5574 12.965 0.0695-3.7767-3.0286-7.3118-4.5992-2.0301-0.76444 1.2503-2.4047 3.0791-1.1182 4.5501zm4.8369-7.851c-0.52933-0.86689-0.21331 1.1271 0 0zm-1.585-2.1606c-0.64211-0.4429-0.40748 0.85054 0 0zm-2.9323-9.7969c-0.50031-0.69054-0.24391 0.65457 0 0zm-0.71325-1.0209c-0.44031-4.6292-4.1018-0.98204 0 0zm-16.088-18.95c-0.20865-0.60099-0.35578 0.61379 0 0zm-0.55476-1.6165c-1.5265-3.6884-2.4755 0.18045 0 0zm-2.0623-2.4605c0.1352-1.8719-2.4933-0.47605 0 0zm-1.1077-2.3968c-2.2981-4.3553-2.1287 1.5016 0 0zm-77.265-2.2041c1.4384-5.4126 7.7371-15.439-1.5561-16.841-3.0862-0.92407-3.483 5e-3 -1.604-2.2858-2.1571-3.2494 5.6875-9.2304-0.29622-6.7088-2.104 2.1574-5.795 4.5619-8.6539 4.1961 3.5826-4.702-9.9583-0.0383-2.6276 1.1925-1.7545 3.0347 2.4185-0.0734 2.5714 2.1749 4.7842 3.5776-0.234 2.8203-1.9372 0.9699-0.25405 2.7319-1.359 8.9197 2.4123 8.6733-0.78378-3.7354-0.19383-5.297 2.2632-4.055-1.8741 6.4894 6.7665 6.772 9.0641 11.961-0.10805 0.14796-0.54271 2.4671 0.36413 0.72255zm-0.71766-2.227c0.5274-1.9838 1.3167 1.0204 0 0zm-7.3243-11.282c0.36542-2.1847 1.3508 1.8914 0 0zm-5.5137-0.1226c0.64022-3.5637 4.1172 1.2495 0 0zm8.8755-0.67363c-2.8288-1.1137-6.0725-5.3285-1.1778-2.0265 1.4971-0.29793 1.6622 0.97761 1.1778 2.0265zm-1.2719-4.2106c-0.7211-2.5609 1.1783 1.5682 0 0zm-2.9284-1.0199c0.15309-1.4554 1.4663 1.0289 0 0zm-1.9813-0.60943c1.0313-2.2864 1.6289 0.81576 0 0zm3.5884-2.0366c-0.38281-0.83348 0.95793 0.1512 0 0zm81.655 22.1c-0.61677-1.1191-0.88017 1.224 0 0zm-81.559-5.7696c-0.76334-0.39342-0.26217 0.32799 0 0zm-3.0512-4.1561c-1.2534-1.3573-0.42965 0.73723 0 0zm-4.4488-5.2338c1.1717-4.3722-2.9938 1.6716 0 0zm-0.62321-4.3134c-0.59548-0.30576-0.14811 0.78252 0 0zm4.7718-7.5061c-0.7559-0.89617-0.77995 1.1829 0 0zm-5.0035-3.8971c1.847-2.2614-4.2741-2.2108 0.4544-3.4991 3.5288-2.944 8.7546-6.1156 9.6569-10.637-4.0139-0.4218 2.5531-2.8983-1.7975-4.7106-3.8619-1.3248-8.716-3.5347-10.948 1.5386-6.3458-4.6177-6.1984 10.024 0.4894 4.5612 2.8552-0.44238 6.842 0.84672 2.2765 2.5756 1.6538 2.8543-7.1491 11.291-0.1313 10.171zm4.5905-12.302c-0.1887-1.7587 4.2082-0.0693 0 0zm-4.8343 10.251c-0.20867-0.60099-0.35576 0.61381 0 0zm-15.094-5.5178c-0.6211-0.85341-0.49866 0.86905 0 0zm5.0291-2.5658c2.9576-2.7755-6.0009-4.6637-1.2785-0.85207l0.83898 0.40897zm-0.17625-0.82119c0.11375-1.1889 1.2065 0.72239 0 0zm0.17625-2.8243c-0.54396-0.65935-0.40995 0.64638 0 0zm8.1265-6.6273c-0.55187-0.76277-0.49436 0.91952 0 0zm-9.4737-0.44538c-0.8277-0.89569-0.3093 1.522 0 0zm107.94-10.857c-0.7206-0.49588-0.13835 1.2525 0 0zm8.593 107.62c-1.4869-1.2463 3.6426 0.33315 0 0zm-4.1359-0.2971c-7.5856-2.2398 9.9195-8.7599 1.3474-3.1408-5.7682 3.6664 5.5963-0.1097 0.49602 3.4802l-0.86619 0.0338zm-94.05-1.2803c0.44161-1.9881 3.2672 0.87915 0 0zm3.6059-0.14585c0.69209-0.69978 0.44658 0.67959 0 0zm8.5953-0.97191c-1.3986-1.7978 1.58 0.24632 0 0zm-13.43-0.50084c1.5856-2.8763 2.2796-0.65305 0 0zm5.1321-2.2038c1.1183-3.1284 3.888-6.2249 1.6299-1.207-0.14135 0.70548-0.82111 1.473-1.6299 1.207z" fill="#e4cca9"/>
<path d="m228.91 253.65c0.21601-3.0707 5.432 1.0035 0 0zm-102.85-1.2859c1.419-2.0076 3.6954-0.11224 0 0zm-1.1421-0.37602c0.20866-0.60099 0.35577 0.61381 0 0zm4.4509 3e-3c2.0507-1.4614 0.87621 0.74934 0 0zm-7.1884-0.82518c0.4987-0.86904 0.6211 0.85344 0 0zm0.43917-1.3099c1.6098-2.343 1.925-0.45639 0 0zm13.657-0.95543c0.72761-1.9088 0.20159 1.2297 0 0zm78.551 0.27162c0.3809-2.6169 2.8641 1.2906 0 0zm6.6281-0.17822c0.9281-1.9431 2.0125 0.73459 0 0zm-100.62-1.2319c0.76334-0.39341 0.26217 0.32798 0 0zm90.861-0.0932c2.3402-3.7945 4.1782-1.5995 0 0zm21.859-0.39337c-2.3104-7.6804-5.4017-15.123-6.8967-23.036-2.2161-5.4201-10.975-0.27059-12.743-7.4095-2.0181-6.2836-6.3353-10.936-11.729-14.69-2.8056-0.83216-3.7014-5.3714-0.0314-2.6947-0.79125-3.3105-7.0652-3.0786-5.5155-1.006-1.9502 2.5244-8.5762-3.8212-12.763-0.84144-6.1916 2.2651-12.809 3.2073-18.75 5.5893-3.6159 1.7821-8.6257 6.0173-12.332 4.3502 2.9473-3.504 11.139-3.4826 9.4086-8.4737 3.0171-3.706-2.1306-2.7987-3.5046-0.99261-2.2699 0.0665 2.2894-1.73-1.7281-1.7442-3.6436-0.68194-3.3678 1.3142-1.9086 2.844-4.0773 0.69714-12.545 4.829-7.3848 9.1524 2.2242-0.91132 7.1783-1.0796 2.3879 0.53364-2.8676 0.94678-8.3144 4.9249-5.491-0.82852-1.2386-5.5229-4.6482 5.5561-7.3762 6.5799-1.9949 1.2827-2.5722 5.2988-4.7044 6.3655-0.92439-4.8081-0.32106-10.199-0.94336-14.805 3.3628-2.9713 2.4771-7.8302 2.695-13.162-0.24714-4.2862 0.83787-14.462-6.3259-9.1657 1.685-2.6063 5.9755-9.9487 3.0106-11.845-4.0534 1.4382-6.6247 3.8377-10.668 3.3577-4.1107 1.5943-2.5179 3.3143-0.15526 3.9154-2.2809 3.4214-10.909-0.71238-9.2341 6.1098-5.9425-2.6955-1.6351-11.655-8.2737-13.564-3.2555 0.28813-8.1922-3.3649-2.0421-2.8751 3.5506-3.7369-4.0027 1.4781-5.0008-3.0218-3.5921-1.7617-0.88657-10.09-0.0516-7.9047-0.54769 2.512 4.8987-0.60442 3.9206 3.9839-0.46541 9.6372 11.312-2.8884 11.638 1.7062-2.5036 3.0529-1.756 3.4456 1.508 2.3368-3.0315 3.2388-6.5028 13.213 1.8175 9.0356 6.3546-0.94163 2.47-7.1512 7.5731-10.51 6.0987-5.8154 4.2056-14.934-1.0907-20.051-4.0574-3.5161-2.31 3.5902 0.70876 4.4808 1.2735 4.3659-2.6358-2.3996-4.3413 1.437-2.8262-1e-3 -6.7707-0.19596-8.5978-3.6712-3.3861 1.1278-9.5854 5.4751-8.9634-1.633 3.391-3.8386-1.2996-4.9363-3.1978-6.4144-1.865 4.3459-3.3938-12.121 2.7341-5.5177 3.884 3.1667 11.935 6.4003 15.305 1.4739 4.2415-8.0792 8.2042 4.3901 11.811 7.0173 4.8147 5.0924 7.2951 13.404 14.735 15.311 5.883 1.2561 13.248-1.6722 17.929 3.1791 5.7701 2.6855 12.478 0.52419 18.57 0.31744 6.0252 0.54434 11.669-2.0285 9.3074-8.6506 0.32866-3.1608 4.1354-9.7817 4.7657-3.5248 0.44824 1.5081 3.772 2.8017 2.6057-0.0783 1.0465 1.5182 3.9279 4.438 2.4627 0.44436 1.4316 3.408 0.89169-4.02 2.7809 0.5001 0.0198-3.5084 2.5834 1.4551 4.4324-1.0174-0.62221 4.8987 2.7197-1.3024 3.3503 2.6962-0.039-4.046 2.8421 1.3336 4.3035 0.59386-0.0224 5.1586 2.8208 2.5387 4.47-9e-3 2.3425 1.263-0.41441 4.2993 2.0504 2.6599 2.0362 6.492-0.88743 14.612 0.734 20.093-3.1099 2.9441 4.4661 2.4513-0.72562 4.1143-1.859 2.4068-0.76694 6.6473-2.1836 9.016 2.1838 1.1089-4.2151 0.21597 0.66166 1.8211 5.5833 2.899-7.4422 0.19502-2.6889 2.2031 2.4204 0.46387 5.9475 1.7239 3.7888 4.8063 2.2278 2.7692 6.9792 6.0207 7.0026 1.6098 3.0035 4.2286-0.60373 11.396 1.4983 16.752 1.2388 4.9884 0.1253 12.284 5.9651 13.443 0.0374 6.4404 2.5516 12.904 1.411 19.307zm0.43594-1.5087c-0.32797 0.26216 0.39341 0.76334 0 0zm-6.445-21.745c-0.29134-0.6012-0.47216 0.35163 0 0zm-14.503-11.659c-0.20864-0.601-0.3558 0.61379 0 0zm2.5228-3.4474c2.2751-0.5369-1.467-0.24421 0 0zm-3.5697-1.3387c-1.6202-1.2118 0.42423 1.6625 0 0zm3.1866-0.1274c-1.2958-0.75639 0.42965 0.65606 0 0zm1.902-0.15849c-0.35575-0.61382-0.20868 0.60097 0 0zm-2.853-0.15851c-0.3825-0.62245-0.3825 0.62245 0 0zm-0.91343-0.91138c-1.169-4.0551-2.7654 1.1912 0 0zm-2.4151-0.0855c-1.1008-3.0628-2.7884-0.0177 0 0zm3.6455-0.19179c-0.43783-0.87317-0.403 0.87347 0 0zm1.5235-0.14766c-1.1722-3.3164-4.269 0.26646 0 0zm5.0345-2.1554c-0.63785-1.1792-2.756 0.82895 0 0zm-5.3263-0.34191c-0.49436-0.91951-0.55186 0.76278 0 0zm6.2147-0.85925c1.1342-0.96313 0.14495-0.71671-0.9038 0.16279zm-57.918-0.62186c-2.2018-1.7197 0.95017 1.9473 0 0zm60.572-0.012-0.32802 0.036zm-9.1184-0.75309c-2.0856-2.7142-3.7576-0.0837 0 0zm-11.118-0.18139c-0.55329-0.60134-0.44772 0.86292 0 0zm-0.80089-0.33396c-0.66148-0.83513-0.3885 1.1964 0 0zm-38.833-0.6855c-0.78968-1.6766-1.3874 0.32887 0 0zm43.112-1.0939c-0.20585-0.87992-0.6199 0.53627 0 0zm-4.6594-1.2297c-1.2067-0.15588 0.0951 2.5187 0 0zm-7.4549 0.55158c0.80637-3.5947 7.6949-0.21481 6.4856-5.9052-2.3136-2.2099-7.1261-1.4903-5.681 1.5913-3.4651 0.86724-4.6639 2.2019-0.80463 4.3139zm0.98959-2.7851c0.86077-0.32987-0.0714 0.36317 0 0zm2.6002-1.1842c0.86553-1.2056 0.53489 0.74119 0 0zm-0.64451-0.98196c-0.97953-1.3688 2.9962 0.80037 0 0zm13.797 4.6202c-1.2042-0.41643 0.53456 1.0396 0 0zm1.6722-0.4138c-1.0473-2.237-2.5342 1.7531 0 0zm-12.577-0.21369c3.0275-1.2804-1.7791-0.42438 0 0zm-50.308-0.1382c-0.50742-1.0212-0.77294 0.67504 0 0zm12.839 5e-3c-0.38249-0.62245-0.38252 0.62245 0 0zm-13.79-0.44614c-1.296-1.5618-1.324 0.34167 0 0zm2.0183-0.14046c-1.6504-2.017-2.5537 0.42306 0 0zm50.604-0.0474c-0.35578-0.61379-0.20868 0.60101 0 0zm-11.083-0.88717c3.9915-2.6586-3.4306-1.7238 0 0zm0.0243-1.0446c0.49437-0.91953 0.55187 0.76278 0 0zm-38.473 0.82222c4.14 0.15543 0.52688-1.8504-0.92438-0.50918zm0.39626-0.57416c0.43218-0.53956 0.4934 0.98968 0 0zm-3.9625 0.59112c-0.72333-1.2931-0.52296 0.71805 0 0zm0.36289-0.50997c-1.4238-0.78814 0.17334 0.8466 0 0zm39.565-0.51942c0.22975-3.3189-2.6826 1.3746 0 0zm22.205 0.23467c-0.78064-1.6621-1.1828 1.076 0 0zm-60.23-0.33175c1.9225-2.5842 12.094-0.47714 4.7974-2.8763-3.1844-1.7254-5.1814-1.5091-3.2187-0.31238-2.8218-0.93425-5.6383 3.2561-1.5786 3.1887zm4.0511-2.3033c-0.53875-0.99647 1.78 1.1519 0 0zm18.861 1.3613c-2.5053-5.5685-2.2924 2.7062 0 0zm20.057 0.44975c1.1918-1.8827-2.1798 1.3961 0 0zm-12.141-0.14181c-0.20864-0.60097-0.35576 0.61381 0 0zm3.0357-0.57114c3.1304 2.5591 6.5132-5.3548 2.6711-2.1118 0.78139 1.5143-6.2325 1.2356-2.8871 2.3124zm-26.811 0.25414c-0.76518-0.70606-0.58368 0.68285 0 0zm55.536-0.21748c0.63585-1.7854-2.163 1.7332 0 0zm1.604-0.0995c0.43014-1.161-1.1827 1.3569 0 0zm-40.607-0.17038c-0.50058-0.69307-0.50058 0.69305 0 0zm18.337-0.14661c-0.88151-0.67943-1.05 0.7146 0 0zm19.258 0c-0.38251-0.62243-0.38251 0.62244 0 0zm-22.19-0.15849c-0.40995-0.6464-0.54398 0.65936 0 0zm1.585 0c-0.57325-0.66807-0.57325 0.66807 0 0zm18.205-0.40869c1.1295-1.5128-3.1314 0.82856 0 0zm-52.044-1.1751c-2.6856-1.5106-1.3215 0.6241 0 0zm3.0295-0.60328c-2.853-0.0156 0.40516 0.95417 0 0zm35.723 0.35028c4.4065-2.4446-7.1145 0.59726 0 0zm-38.412-0.19691c1.4554-3.4099-2.3683-0.63427 0 0zm33.419-0.18564c-0.20866-0.60099-0.35577 0.61379 0 0zm21.12-0.28912c1.0771-1.6412-3.8061 1.3459 0 0zm4.3192 0.15661c-2.3293-1.0812-0.87411 0.59254 0 0zm-54.559-0.31671c-0.7051-0.80852-0.81976 1.1886 0 0zm23.578-0.0369c0.11675-0.87048-0.71196 0.75558 0 0zm-32.261-0.47215c3.6467-0.38671-2.0644-2.9953 0 0zm55.08-0.31094c-0.44122-1.4527-0.8313 0.85591 0 0zm2.4561-0.15738c-0.59726-1.1784-0.39271 1.1123 0 0zm-16.88 0c-0.58368-0.68284-0.76518 0.70607 0 0zm-27.212-0.65724c7.1622-1.1866-3.9232-0.0924 0 0zm-12.124-0.83311c-0.2947-2.1621-1.3387 0.60621 0 0zm39.653-0.0836c-0.6023-1.0651-0.75066 1.1095 0 0zm-38.912 0.0852c-0.53228-0.5868-0.61646 0.35826 0 0zm42.473-4.0483c1.0439-3.5214-2.8664 1.2726 0 0zm2.7001-0.63677c0.31278-1.008-2.4709 0.75045 0 0zm-69.612-1.1073c-0.58861-0.60923-0.36925 0.96829 0 0zm68.027-0.18781c-0.9922-0.88327-0.57986 1.5139 0 0zm-66.887 0.18726c-0.53992-1.0905-1.2072 0.6837 0 0zm70.057-0.48486c-0.40995-0.64637-0.54395 0.65935 0 0zm-1.4265-0.64598c-0.68601-0.33911-0.46979 0.81011 0 0zm-3.9891-0.2048c-0.42389-1.4817-1.0279 1.2077 0 0zm-85.085-2.6423c1.4983-3.1576-2.2689 2.8376 0 0zm20.329-5.8017c5.7622-4.9353-4.3351 0.61537 0 0zm13.428-0.84934c-0.57323-0.66805-0.57323 0.66806 0 0zm-44.063-0.15849c-0.3825-0.62245-0.3825 0.62245 0 0zm1.3342-0.17418c5.1028-2.5188-1.825-0.89137-0.34931 0.0788l0.3493-0.0788zm44.982-0.75633c0.64892-2.1404-2.0373 1.7722 0 0zm-27.772-1.13c-0.98477-0.72623-0.75257 0.70386 0 0zm27.645-0.10174c-0.0585-0.65161-0.66649 1.0713 0 0zm-13.93-0.15356c7.1788-1.234-3.4609-0.36759 0 0zm13.303-0.24226c2.9148-5.4235-2.1583-1.7696-1.0221 0.31181zm-11.559-1.3435c1.1545-1.4562-2.1227 0.68069 0 0zm-38.518-0.44013c0.61493-2.1834-2.0734 0.74196 0 0zm36.97-1.3347c-0.39052-0.74553-0.4115 0.95561 0 0zm1.8516 0.10339c3.3374-0.44287-1.5911-4.0289 0 0zm11.249-0.39737c-0.10009-1.6661-0.90923 1.532 0 0zm-0.14301-1.1742c2.6928-5.0008-5.5669-0.80588 0 0zm-9.4346-0.93906c-0.20866-0.60097-0.35575 0.61381 0 0zm0.29708-2.9323c-1.3856-2.5052-3.3359 6.1756-0.40536 0.75639 0.13505-0.25212 0.27021-0.50429 0.40536-0.75639zm1.2879-1.3513c-1.0248-0.37058-0.823 1.3424 0 0zm-1.2374-1.0658c1.3925-2.2035-1.9523 0.34105 0 0zm75.3-0.56918c4.8962-5.6321-3.2817-0.22767 0 0zm2.8664-0.0582c2.1727-3.4076-1.9429 0.68061 0 0zm-23.515-3.524c-0.23335-0.85053-0.51774 0.60611 0 0zm2.4248-0.58495c-0.0135-1.8352-1.3324 0.45878 0 0zm-3.2173-0.85092c-0.57323-0.66805-0.57323 0.66807 0 0zm5.5648-0.58404c-1.1182-2.2455 0.0228 1.7206 0 0zm-81.209-2.7358c2.9005-4.0724-3.7934 0.34015 0 0zm1.3073 0.14991c-0.58001-0.73216-0.36026 0.47501 0 0zm71.959-0.0897c-0.28904-1.9935-1.0598 0.42869 0 0zm-74.041-1.2583c-1.4948-2.9212-1.9616 1.5973 0 0zm-2.4763-0.15779c-0.21332-1.4245-0.81643 1.5291 0 0zm2.4043-1.8007c-0.17351-1.1456-0.83489 0.94323 0 0zm-0.6996-0.71595c-0.71799-1.7314-1.1284 1.135 0 0zm2.4964-0.70919c-1.5136-3.5609-4.1628 0.58714 0 0zm5.3686-0.45936c1.8704-4.0496-1.9216 1.4924 0 0zm-23.036-3.424c1.0938-3.3828-3.6169-0.0465 0 0zm-4.2093-3.6989c-0.79316-1.5128-0.67563 1.0764 0 0zm2.4203-0.82765c-1.8561-2.452-1.5591 0.41532 0 0zm124.9 111.83c-0.0105-2.5938 1.187-1.1183 0.24361 0.27057zm-94.924-2.2557c-1.511-3.6371 1.7666 1.2854 0 0zm96.142-3.5928c0.28367-5.1263-8.3336-9.7953-6.1408-2.683 0.85457-7.3511-3.1646-13.84-8.6943-18.365-3.8696-4.8919-9.1315-10.232-9.6243-16.636 5.7071 4.4205 8.9556 11.172 14.274 16.03 4.3642 5.2971 10.382 10.27 11.573 17.338 0.0596 1.36 0.42377 3.9954-1.3879 4.3158zm-98.419-5.1241c-0.66457-4.1958 0.98102-5.3823 0 0zm-0.89605-8.507c-1.0142-2.1122-0.88368-10.896-0.1073-3.8047-0.23176 0.86659 0.90937 3.6054 0.1073 3.8047zm97.694-4.8844c5e-3 -1.2223 0.73633 0.98873 0 0zm-2.0605-0.47551c0.17757-1.2165 0.94178 1.0923 0 0zm-91.263-7.7956c-1.9576-6.178-9.3056-7.8408-12.4-13.289-2.4676-2.0366-3.4286-5.4986 0.56008-2.4474 4.9779 2.5046 9.6819 5.8746 11.585 12.197 0.28118 0.42593 1.7741 5.4466 0.25566 3.539zm67.347-14.049c-0.27712-3.5635 2.8726-0.52448 0 0zm-39.874-0.74448c-1.2928-0.9211 3.1888 1.0659 0 0zm1.4265-0.38306c0.40995-0.64638 0.54397 0.65935 0 0zm67.086-2.958c-0.55706-1.0703 1.2649 0.22476 0 0zm-6.1419-0.52903c0.69679-0.71743 0.65215 0.5519 0 0zm6.49-0.48931c-0.1271-1.2165 0.64397 0.48858 0 0zm-7.3618-3.1562c0.35578-0.6138 0.20866 0.60099 0 0zm-1.1392-5.9728c0.8608-0.32988-0.0716 0.36319 0 0zm-94.199-9.8773c0.5003-0.69053 0.24392 0.65455 0 0zm95.814-0.54539c0.23336-0.85052 0.51774 0.60609 0 0zm-101.82-3.2374c-0.27438-0.9449 0.55024 0.32426 0 0zm-18.903-14.704c2.6956-4.5164 9.4106-8.7346 14.097-6.1783-4.2236 2.9296-9.7839 4.0703-14.097 6.1783zm-1.7185-3.554c-0.26028-2.2267 1.0656 1.5942 0 0zm1.1858-0.5055c-4.4991-2.263-1.8098-10.365-0.48828-12.219 2.1 1.6366 1.8317 4.462-0.26564 7.1971-0.61257 1.3488 2.9791 4.7958 0.75392 5.0218zm115.24 0.1145c0.11044-1.8782 0.93415 0.56151 0 0zm-90.16-1.4617c0.9223-1.3315 0.62546 0.99705 0 0zm93.843-0.87176c0.66908-0.8257 0.66909 0.82572 0 0zm-94.189-0.0894c-2.3694-1.0026 2.5826-0.0503 0 0zm-3.5266-0.99317c-0.73316-1.6893 1.5089 0.80601 0 0zm76.616-1.3096c-0.80562-1.5519 1.0362 0.3676 0 0zm19.852-1.1269c-0.1509-1.4373 0.92309 0.76405 0 0zm-21.682-0.22407c-0.2744-0.9449 0.55024 0.32423 0 0zm1.1881-0.11375c0.1349-0.59739 0.12665 0.76058 0 0zm-4.2318-3.3077c-1.5613-2.8418 1.5947 1.1218 0 0zm2.0516-0.0989c-2.687-3.1208 6.2596-3.8706 0.80565-0.55266zm15.646-3.6649c-1.9983-2.2304 1.2473-1.1045 0 0zm-6.9528-1.5536c-6e-3 -2.3647 1.1414 1.1437 0 0zm-3.8315-0.0686c1.0834-1.452 0.94618 0.77791 0 0zm2.0523-0.17912c-0.26531-0.99525 1.1702 1.0169 0 0zm5.151-0.0831c0.0551-1.2481 0.94778 0.7069 0 0zm-0.94246-0.14466c0.20865-0.60099 0.35577 0.61381 0 0z" fill="#ca9962"/>
<path d="m229.3 252.86c0.37907-0.87592 0.37904 0.87593 0 0zm-14.166-3.837c-0.0417-1.0623 1.3684 0.4083 0 0zm-2.9521-2.0372c1.3451-2.1393 1.3552 0.2844 0 0zm12.771-5.7894c-3.3097-6.2244-8.5337-11.258-11.693-17.512-5.2618-5.4797-10.735-11.304-13.045-18.701 4.8289 1.7697 8.5865 10.151 13.247 14.163 4.64 5.4256 10.768 10.496 12.601 17.63-0.1118 1.4438-0.0303 3.3185-1.1094 4.4203zm-6.3232-2.3722c-0.95841-3.1413 0.39778-6.1622 0 0zm-93.499-12.592c-1.2291-3.7475 0.97589-0.26671 0 0zm100.03-11.641c-1.9309-1.1948 1.8483 0.66505 0 0zm-95.507-0.98594c-2.1298-6.5933-11.564-8.1042-13.156-14.49 1.6688 2.2662 6.484 4.3677 6.4632 2.6549 3.1663 3.0113 6.3809 8.0696 6.693 11.835zm-11.939-13.746c-1.2523-1.0032-1.0163 0.7267 0 0zm106.42 12.111c-0.5462-0.85177 1.226 0.78177 0 0zm-78.841-2.0305c2.0374-2.3825-0.035 1.8946 0 0zm79.487 0.0945c-3.5419-2.2645 4.4556-0.74783 0 0zm-89.419-0.87386c1.7724-2.5822 10.261-8.1869 5.411-1.8879-0.76494 1.6118-4.3474 3.7323-5.411 1.8879zm89.812-1.3998c-0.64398-2.3411 1.0714 0.66609 0 0zm-67.522-1.5101c-0.51857-2.3306 1.1314 1.3817 0 0zm-12.918-0.7143c-1.224-4.95 3.9509-3.483 0 0zm14.823 0.26607c0.53951-0.61157 0.45028 0.32856 0 0zm65.302-0.41578c-0.33874-1.0387 1.3473 0.41786 0 0zm-88.602-1.8015c0.0621-1.0762 0.65643 0.56792 0 0zm6.2915-0.19931c-0.0225-0.88324 0.84377 0.5086 0 0zm-2.146-1.8881c0.5665-1.3488 0.41268 0.78479 0 0zm4.889 0.0435c2.8592-5.0922 5.6152 0.91004 0 0zm-3.0115-0.0806c-2.9973-2.9091 2.3726-1.4123 0 0zm31.171-1.8731c-4.0943-1.9849 3.5745-4.1556 4.656-3.1964 4.075-2.8078 14.234-1.6513 14.289 1.3346-5.2017-3.4586-10.309-0.49192-14.988 1.5592-1.2924-0.34025-3.2546-1.7762-3.9574 0.30255zm1.6733-0.0504c0.5918-1.6496 0.25403 0.8649 0 0zm-7.255-1.8255c-6.0181-1.1707 3.4639-8.2433 2.8364-2.6039-2.0452-0.59864-0.88605 3.557-2.8364 2.6039zm2.5456-0.7185c-1.9503-1.924 3.6902 0.67906 0 0zm-27.422-0.79667c-0.61568-4.242 2.4143-5.7394 0.77763-0.6279 0.035 0.26187-0.41013 0.98474-0.77763 0.6279zm-1.1889-1.8341c0.72777-0.91224 1.0418 1.075 0 0zm-1.5392-0.44646c1.104-0.99611 1.6765 1.1711 0 0zm1.0636-0.73127c0.76339-0.69355 0.76339 0.69355 0 0zm-1.902-0.46615c0.29028-0.845 0.60821 0.63918 0 0zm-1.4265-0.16785c0.3825-0.62245 0.3825 0.62245 0 0zm1.902-1.5681c1.0703-1.5317 0.99345 1.7323 0 0zm1.7831-0.42659c-2.5785-2.5768 2.3567 1.0541 0 0zm-4.9371-0.12575c-0.31307-3.5689 4.5669-10.545 4.3692-3.8459-0.4819 2.1794-2.6742 2.8587-4.3692 3.8459zm1.9634-2.9931c-0.49889-1.8215-0.62805 2.1221 0 0zm-0.71147 2.7958c0.43217-0.53954 0.4934 0.98969 0 0zm1.902-0.69384c0.38252-0.62244 0.38249 0.62246 0 0zm-0.951-0.30764c0.21329-1.1271 0.52933 0.86688 0 0zm38.919-0.66592c-0.9773-1.5038 1.9502 0.85621 0 0zm0.90354-0.16022c2.0123-3.4034-4.6238-2.6308 0.58355-3.9858-0.46422-3.6352 5.147-2.5622 7.0242-5.9925 4.4817-0.71657-2.0689-2.8438 2.5092-4.1599-2.2504-0.84463-0.79802-1.3958-3.3745 0.45483-5.2382 1.2737 3.0404-7.4943-2.1719-2.6118-3.1336 0.93327-0.59952-1.7682-4.2024-1.5381-2.804-1.0279-2.6461-2.8384 0.16735-1.7555-0.64876 2.5003 8.4645-3.0954 6.3759-0.35807 1.6087 2.8211 7.6542-6.0073 1.6002-4.5669-1.1668-3.7312-8.8071 2.9688-6.7326-0.73111-4.9007 1.0304-3.4719-2.4914 0.92887-1.4908 4.097-0.63034 7.679-5.4672 12.231-1.5381 5.3257-1.1955 5.4634-8.4929 11.853-6.1076 3.7426 0.79846 7.5592 5.5179 7.4677 10.098 3.2054 2.1518 2.9038 5.992 0.0404 3.8331-0.033-1.2117-6.8542-4.1028-8.7111-0.3106-3.0278-0.73592 0.78522-1.8564-3.6121-1.7155-2.8381-0.89005-9.3302-2.3962-7.7962 0.092-1.9697-3.9921-3.6715 4.418-1.8863 0.32489 6.3705 2.4004 0.15992 11.89 0.50338 14.179-1.7271 0.70901-0.22237 4.2612-3.3209 1.6848 0.31699-3.6895-5.0231 4.224-7.8399 4.8576-0.36109 0.39946-0.81141 2.0559-1.637 1.3383zm3.1309-5.5232c-0.20865-0.60099-0.35578 0.61379 0 0zm8.9553-9.499c-0.6023-1.0651-0.75068 1.1095 0 0zm2.6152-0.16954c-0.54395-0.65936-0.40995 0.64638 0 0zm-7.7212-0.94853c-0.24206-1.1611-0.47844 1.5707 0 0zm3.6002 0.40314c-0.33607-0.60294-0.60885 0.39242 0 0zm-1.3043-0.5345c-0.62764-0.45784-0.43248 0.86535 0 0zm0.5118-1.1298c-0.39097-1.1978-1.3514 0.99387 0 0zm3.5663-9e-3c-0.40996-0.64637-0.54395 0.65935 0 0zm-8.1357-0.2623c-0.12109-3.8094-3.4064 0.14871 0 0zm7.3722-0.24292c-0.37279-0.0891 0.34199 0.87751 0 0zm-0.51562-0.74482c-0.1524-1.2478-0.87916 0.44748 0 0zm-1.5909-1.417c0.27149-2.1282-1.898 0.51637 0 0zm11.733-5.3542c0.85026-1.1447-1.8356 0.73358 0 0zm-13.45-0.39451c-0.25357-1.687-1.7136 0.79247 0 0zm16.341-1.1804c-0.18453-1.2161-1.3649 1.4661 0 0zm-7.7417-0.71261c1.0739-1.3222-1.6882 1.1757 0 0zm-55.287 27.585c0.40996-0.64639 0.54394 0.65935 0 0zm49.535-1.8987c0.78979-1.8711 2.4234 1.9748 0 0zm-48.656-0.46786c0.015-0.8075 0.5228 0.54403 0 0zm-31.488-1.9346c-5.6496-1.8493-1.1732-9.4094-6.385-12.071-0.38254-3.6375 11.646-6.9148 5.5648-1.1199-4.3378 4.0781 1.9153 5.9769 3.551 5.6045-2.6204 4.7239 3.3417-4.0358 6.1398-2.8349 3.3363-1.7162 5.7-7.5756 8.1471-5.7242 2.5384-3.5174 2.8013-7.7324 6.1174-6.7488-2.6388 5.419-7.2701 9.6446-12.201 13.058-1.9449 1.5592-7.5923 4.2705-1.6084 4.5008-3.425 1.1133-8.3774 0.85149-9.3255 5.3355zm3.1093-6.0017c-0.54395-0.65935-0.40995 0.64638 0 0zm11.095-7.925c-0.20867-0.601-0.35576 0.61379 0 0zm29.395 13.776c1.552-1.4921 0.73626-5.7843-0.82687-1.975-3.8879-6.0844 1.8466-9.7844 3.1838-14.613 0.13475-5.6079 6.1401-0.84986 1.4587 0.89267 2.9563-4.3755-2.2675-1.1824-1.2881 2.0911 0.55918 3.758-1.7427 5.6491-1.9712 8.421 3.1211-1.0706 0.99117 5.2895-0.55627 5.1827zm0.25134-11.568-0.37379-0.18474zm-13.337 10.997c-4.2676-2.6813 3.5554-8.721 1.4899-1.9173-0.22536 0.57343-0.4998 2.1845-1.4899 1.9173zm0.57087-4.6462c-0.20865-0.60098-0.35574 0.61381 0 0zm12.046 3.9078c0.58027-1.5768 0.56296 0.97012 0 0zm-1.6147-2.1141c0.86079-0.32987-0.0714 0.36319 0 0zm20.269 8e-3c-0.34518-1.3613 1.5962 0.80757 0 0zm5.3576-0.37526c0.44122-1.4527 0.83129 0.8559 0 0zm-46.123-0.94988c0.69206-0.69979 0.44658 0.67958 0 0zm43.667-0.93302c0.53489-0.90769 0.6312 0.45866 0 0zm1.1095-0.49399c0.35578-0.61379 0.20868 0.60098 0 0zm-33.408-0.18756c1.154-1.8905 1.4787 0.98767 0 0zm32.14 0.0398c-2.1653-1.4892 1.1894-0.30591 0 0zm-30.432-0.47683c0.23337-0.85051 0.51772 0.60612 0 0zm34.179-0.24711c0.32438-0.86067 0.3244 0.86067 0 0zm-46.197-0.49814c3.1192-5.0123 6.5092-9.9733 8.1106-15.679 2.4844 0.036-2.1144 8.0384-3.0458 10.845-1.5594 1.322-2.7518 5.9085-5.0647 4.8339zm8.1348-13.529c-0.20869-0.60098-0.35575 0.61381 0 0zm28.926 13.556c0.83796-1.0506 1.0863 0.30022 0 0zm-26.592-0.2571c-1.5543-1.9932 2.8425 0.34628 0 0zm37-0.8829c-0.2589-1.0307 1.0491 0.30512 0 0zm-44.644-0.40576c0.28941-1.5286 0.48543 0.70378 0 0zm46.786-0.36925c0.46583-0.90398 0.3354 0.66197 0 0zm-6.0512-0.38732c0.38252-0.62247 0.38252 0.62246 0 0zm3.3207-0.0545c-1.3674-2.2339 1.0411-0.48455 0 0zm-3.3254-0.7291c0.081-3.8749 1.2356-0.87083 4.1346-1.9112-0.94467-0.69716-2.6287 1.8966-4.1346 1.9112zm-4.1163-0.32583c0.98479-0.72626 0.75259 0.70386 0 0zm-73.47-2.0793c-3.3378-2.3057 8.1912-2.4901 2.5229-3.4236-6.9742 3.7667-9.3325-12.96-1.84-6.7194-1.927 9.2096 7.6775 3.5251 11.848 2.3315-0.76044 3.8987-7.7374 7.9309-12.531 7.8116zm-0.042-4.644c1.3964-2.1884-3.4751 1.0647 0 0zm76.88 4.2355c-1.2544-1.3367 2.3766 0.52061 0 0zm-21.91-1.1974c0.21031-1.5985 1.2265 0.97754 0 0zm27.493-0.91832c0.2163-1.4948 2.0496 0.47608 0 0zm-1.5015-0.27835c-1.098-3.5882 2.8303-0.36529 0 0zm-24.882-0.22983c0.28791-1.9307 1.0134 0.85768 0 0zm22.986-0.26696c-0.18417-1.6468 2.1439 1.3093 0 0zm5.8104 0.0468c-0.15118-0.95792 0.83348 0.38285 0 0zm-1.378-0.2949c-5.1727-3.5728 3.9699 0.10835 0 0zm13.75 0.12846c-1.5701-2.1106 1.6436-0.0173 0 0zm4.1606-0.0437c0.78081-1.5225 0.77088 0.7605 0 0zm-11.965-0.48367c0.608-0.39436 0.31774 0.61122 0 0zm20.366 1e-3c0.54394-0.65934 0.40995 0.64638 0 0zm-81.866-0.63401c0.21373-2.8555 3.3964 0.39982 0 0zm56.429 0.0105c0.29553-2.4172 0.86228 1.0285 0 0zm-28.392-0.10205c1.232-1.6391 2.5452 0.73515 0 0zm32.853 0.14511c0.0906-1.9114 2.2811-0.1698 0 0zm-9.2986-0.25096c0.96405-0.54733 0.95455 0.60285 0 0zm-16.211-0.317c1.7712-1.2547-0.0839 1.3886 0 0zm12.364-0.1385c0.85189-0.59148-0.26381 0.49743 0 0zm12.326 0.0197c0.76519-0.70607 0.58369 0.68284 0 0zm-14.478-0.4045c0.56649-1.3488 0.41268 0.7848 0 0zm13.243-0.0186c-0.15629-1.0614 0.84536-0.17152 0 0zm-6.9879-0.45757c-0.27759-1.17 0.98242 0.4915 0 0zm-54.373-0.21087c0.40018-1.5832 1.1775 0.90743 0 0zm58.951-0.33496c-8e-3 -1.3894 1.4511 0.63125 0 0zm-57.579-0.18812c0.4325-0.86537 0.62766 0.45783 0 0zm31.505-1.2232c1.1874-1.8233 1.4053-4.609 2.3328-0.7876-0.62239 0.65591-1.5773 0.43991-2.3328 0.7876zm1.585-1.6002c-0.3825-0.62245-0.3825 0.62245 0 0zm-31.859 1.1095c0.38251-0.62244 0.38251 0.62245 0 0zm7.2127-2.854c1.1078-1.036-0.5016 1.0925 0 0zm8.0034-0.61607c0.45108-1.5074 0.54671 0.97634 0 0zm14.899-0.17547c0.57323-0.66805 0.57323 0.66806 0 0zm-4.1606-0.55853c0.26224-1.8716 0.9212 1.3522 0 0zm2.4567 0.29506c-0.493-1.0242 2.0634 0.79002 0 0zm45.292-3.3028c0.64983-0.96163 0.42669 0.85989 0 0zm-94.946-1.2552c0.57963-4.5918 9.5339-0.75035 2.5806-0.0888-0.8519 0.1184-1.7227 0.24298-2.5806 0.0888zm-7.3158-1.1615c-2.5662-3.1894 1.9206 0.36766 0 0zm29.034-2.4221c0.53229-0.58679 0.61647 0.35827 0 0zm2.853 5e-3c1.2248-0.80583 0.0135 0.64795 0 0zm0.24251-0.78481c-3.9677-0.66252 2.096-1.6385 0 0zm-4.7783-0.39496c-1.6339-2.0432-3.9064-5.0663-0.78979-7.0758-2.8627-2.004-7.2953-7.7418-6.6133-10.194 4.3612 4.0335 7.8378 9.3893 11.376 14.276 0.39442 2.5549-2.8735 0.46557-3.973 2.9931zm-23.004-1.192c-2.6484-2.9689 3.2296-8.0829 4.1676-4.5994 5.0453-2.2151 3.267 4.6014-1.3118 3.0556-1.9651-0.64958-2.0648 2.6672-2.8558 1.5439zm86.343-0.48128c0.3825-0.62245 0.3825 0.62245 0 0zm-91.931-2.5173c0.14811-0.78252 0.59548 0.30576 0 0zm25.36-1.4502c0.069-1.8742 2.2335-0.35262 0 0zm70.957-0.37579c-0.0788-1.2192 0.80003 0.706 0 0zm-72.843-0.78822c-1.6672-2.5112-6.7594-3.7311-5.3851-6.4189 1.7602 1.49 5.2484 0.0962 5.8325 4.8732 0.1286 0.42872 0.19154 1.3884-0.44742 1.5457zm-23.56-0.10955c0.0567-1.2706 1.2346 1.1434 0 0zm16.097 0.0503c0.0678-1.1578 0.79286 0.4563 0 0zm-2.6007-0.92435c-0.0476-1.3316 1.22 0.86862 0 0zm3.6345-0.35372c-5.0078-5.5643 4.6025 1.4049 0 0zm-1.5688 0.17746c-0.3828-0.83345 0.95791 0.15123 0 0zm-16.432-2.0431c-0.29176-1.9565 1.115 1.3878 0 0zm6.5346-0.58108c-4.7533-5.7844 5.5115-0.83523 0.30043 0.36327zm-4.3898-0.75286c0.40995-0.64639 0.54393 0.65933 0 0zm17.99-4.2608c0.14811-0.78253 0.59547 0.30579 0 0z" fill="#a96e38"/>
<path d="m212.34 246.88c0.72606-1.7867 0.74262 0.5553 0 0zm12.338-6.8207c-3.7821-5.5606-8.3005-10.584-11.473-16.448-5.2407-5.5096-10.956-11.4-12.956-18.902 5.4954 3.4017 8.7774 10.523 13.756 15.047 4.5754 5.8614 12.704 11.371 11.683 19.676 0.0471 0.8171-0.7824 2.5701-1.0102 0.62657zm-6.0482-1.2369c-0.95841-3.1413 0.39778-6.1622 0 0zm-93.593-13.86c0.21575-0.7255 0.0419 1.0114 0 0zm4.3981-12.244c-1.6513-5.4616-12.495-8.7132-11.995-12.224 5.8072 1.6461 9.1874 4.0602 11.412 10.409l0.42934 1.1087zm-5.697-9.0742c-0.38249-0.62245-0.38253 0.62245 0 0zm21.742 6.3946c0.68865-1.3039 0.49509 0.73045 0 0zm33.164-11.783c4.0198-4.24 3.6935-0.16822-0.34154 0.76544zm-0.69855-3.8e-4c0.35576-0.61377 0.20866 0.60099 0 0zm13.603-0.87323c-4.6207 0.25023 1.9978-1.9483 0 0zm-7.8972-1.4755c0.25546-0.86593 0.73972 0.10639 0 0zm1.3387-0.35958c-0.10054-1.6196 1.237 1.0497 0 0zm-75.246-12.285c-4.8927-1.6293-1.1155-9.0447-5.8505-11.752 1.1452-2.9849 10.215-5.3708 4.6239-0.0351-2.0223 5.7646 4.0142 8.1769 8.7512 7.2533-4.3215-1.3881-6.2773 4.9156-7.5246 4.5342zm3.6386-5.7175c0.65211-3.7565 7.918-3.4866 2.1401-0.84096-0.6369 0.42292-1.3451 0.84798-2.1401 0.84096zm-1.3737-0.8284c1.2254-2.6906 1.2596 1.1048 0 0zm7.6131-2.1963c0.73897-1.8092 2.1225-0.13715 0 0zm2.1347-1.6246c0.35577-0.61377 0.20865 0.60099 0 0zm1.1888-0.93229c0.14811-0.78253 0.59548 0.30578 0 0zm-24.65-1.2662c-2.6382-2.9232 6.9026-0.27125 3.7846-4.6182 3.3976-0.9599 13.216-5.8799 5.8957 0.49149-2.8182 2.0596-5.9122 4.7646-9.6803 4.1267zm-0.74756-3.0077c-3.4269-1.9502-5.5195-10.849 0.74614-7.8584 3.8248 3.424-5.0053 8.0383 2.4423 6.1403 2.4824 0.36786-2.3275 2.7335-3.1884 1.7181zm101.56-5.0959c1.4669-3.4104 6.2671-1.1391 0 0zm4.0178-2.0815c-7.3738-4.6366 7.5778-7.5096 3.4864-1.0509-2.4076-2.4065-1.2612 1.9042-3.4864 1.0509zm-3.4289-1.2721c0.86554-1.2056 0.53492 0.7412 0 0zm-93.6-5.9005c2.6888-5.1304 6.6171 1.8275 0 0zm-8.8921-1.6619c-0.2744-0.94488 0.55024 0.32426 0 0zm27.266-4.71c-0.6185-4.7501 2.7784-1.4826 0 0zm-5.4239-6.7933c-1.2908-2.3992 2.0426 0.57449 0 0zm4.2411-0.50195c-4.1814-5.1656 1.4319-1.6906 0 0zm-1.8344-3.1642c-0.83666-1.1362 1.0348 0.77744 0 0zm-4.2825-4.9679c-3e-3 -0.81351 0.7267 0.36565 0 0z" fill="#504c43"/>
</g>
</svg>
