<?xml version="1.0" encoding="UTF-8"?>
<!-- Created with Inkscape (http://www.inkscape.org/) -->
<svg width="350" height="350" version="1.1" viewBox="0 0 328 328" xmlns="http://www.w3.org/2000/svg" xmlns:xlink="http://www.w3.org/1999/xlink">
 <g>
  <path d="m97 141c-6 4-12 8-18 12-0.2 6-0.5 12-0.7 18 2 0.6 7-1 6 2 0.07 2-2 6 2 6 2 1 6 0.7 7 3 2 10 4 21 8 30 3 5 6 9 9 13 2 11 3 23 5 34-0.7 3-1 6-4 6-2 0.9-5 2-5 4 0.8 3 5-0.1 7 1-3 2-4 3 0.2 4 3 2 7 0.4 10 0.07 2-2 4-4 4-7 2-9-0.7-17 2-26 2-10 3-19 5-29 22-5 45-11 67-16 2 8 3 17 5 25 6 7 12 13 17 21 1 6 4 12 3 18 0.6 3-0.9 5-3 6-3 0.4-3 4-4 3-0.8 3 4 1 6 2 2 0.3 6 0.3 7-1 0.8-5 2-10 2-14 4-2 3 2 3 4 0.5 4 1 8-2 12-3 2-0.4 5 3 4 2-0.5 6 0.6 6-3 1-4-0.8-8-1-12-1-6-1-13-5-19-6-14-12-28-19-42-6-10-10-21-18-29-14 0.8-29-0.5-43-1-10-0.6-20-1-30-2-7-8-15-17-22-25-3-1-5-3-8-4z" fill="#f0e4d1" fill-rule="evenodd"/>

  <path d="m235 278c1-4 3-4 5-2 7-0.4-3 3-5 2zm-2-0.7c-3-5 5-10 1-16-2-6-2 8-4 9-7 6 4-7-0.1-10-1-4-7-7-5-0.6-2 2-0.2-12-5-14-6-7-14-14-17-23-2-11-15-14-25-10-10 3-21 7-30 11-8 0.6-16 3-15 13-0.3 8-6 17-3 25-3 7-5 17-15 15-5 0.7-7-6-2-6-5 4 0.6 6 4 4 5 5 12-9 7-8-2 5-6-5-6 2-5 4-1-2-0.4-4 5-6 2-15 3-22 0.6-4-3-21-8-14-0.3 7 2 14 3 20 1 3 5 9-1 10-0.3-8-2-17-3-25 0.9-11-8-17-12-26-2-6-4-14-8-18 1-8-5-12-11-12-2-5-8-12-2-18-3-7 2-16-2-23-1-10 8-3 12-0.5 6 4 13-2 17-5 6 5 10 11 14 17 4 6 9 13 17 13 6-0.04 14-2 18 3 7 3 15 1 22 0.7 5-0.9 15-0.9 11-9 0.7-10 11-18 21-18 11 0.3 17 12 18 22 2 7-4 16 2 21 6 8 9 19 7 29-0.9 9-0.7 19 2 28 5 5 7 12 7 20 0.1 4 3 16-2 16 0.08-5-4-9-6-2-0.9 1-3 4-1 5zm6-9c-0.6-1-0.3 1 0 0zm-2-3c-0.8-0.5-0.5 1 0 0zm-4-12c-0.6-0.8-0.3 0.8 0 0zm-0.9-1c-0.5-6-5-1 0 0zm-19-23c-0.3-0.7-0.4 0.7 0 0zm-0.7-2c-2-4-3 0.2 0 0zm-2-3c0.2-2-3-0.6 0 0zm-1-3c-3-5-3 2 0 0zm-93-3c2-6 9-19-2-20-4-1-4 5e-3 -2-3-3-4 7-11-0.6-8-3 2-6 6-10 5 4-6-12-0.05-3 1-2 4 3-0.09 3 3 6 4-0.3 3-2 1-0.3 3-2 11 3 10-0.9-4-0.2-6 3-5-2 8 8 8 11 14-0.1 0.2-0.7 3 0.4 0.9zm-0.9-3c0.6-2 2 1 0 0zm-9-14c0.4-3 2 2 0 0zm-7-0.1c0.8-4 5 1 0 0zm11-0.8c-3-1-7-6-1-3 1-0.05 3 1 1 3zm-2-5c-0.9-3 1 2 0 0zm-4-1c0.2-2 2 1 0 0zm-2-0.7c1-3 2 1 0 0zm4-2c-0.5-1 1 0.2 0 0zm98 27c-0.7-1-1 1 0 0zm-98-7c-0.9-0.5-0.3 0.4 0 0zm-4-5c-0.7-1-0.8 0.6 0 0zm-5-6c1-5-4 2 0 0zm-0.7-5c-0.7-0.4-0.2 0.9 0 0zm6-9c-0.9-1-0.9 1 0 0zm-6-5c2-3-5-3 0.5-4 4-4 11-7 12-13-5-0.5 3-3-2-6-5-2-10-4-13 2-8-6-7 12 0.6 5 3-0.5 8 1 3 3 2 3-9 14-0.2 12zm6-15c-0.2-2 5-0.08 0 0zm-6 12c-0.3-0.7-0.4 0.7 0 0zm-18-7c-0.7-1-0.6 1 0 0zm6-3c4-3-7-6-2-1l1 0.5zm-0.2-1c0.1-1 1 0.9 0 0zm0.2-3c-0.7-0.8-0.5 0.8 0 0zm10-8c-0.7-0.9-0.6 1 0 0zm-11-0.5c-1-1-0.4 2 0 0zm129-13c-0.9-0.6-0.2 2 0 0zm10 129c-1-2 4 1 0 0zm-5-0.4c-11-2 12-11 2-4-7 4 7-0.1 0.6 4l-1 0.04zm-113-2c0.5-2 4 1 0 0zm4-0.2c0.8-0.8 0.5 0.8 0 0zm10-1c-2-2 2 0.3 0 0zm-16-0.6c2-3 3-0.8 0 0zm6-3c1-4 5-7 2-1-0.2 0.8-1 2-2 1z" fill="#e4cca9"/>
    
  <path d="m237 277c0.3-4 7 1 0 0zm-123-2c2-2 4-0.1 0 0zm-1-0.5c0.3-0.7 0.4 0.7 0 0zm5 2e-3c2-2 1 0.9 0 0zm-9-1c0.6-1 0.7 1 0 0zm0.5-2c2-3 2-0.5 0 0zm16-1c0.9-2 0.2 1 0 0zm94 0.3c0.5-3 3 2 0 0zm8-0.2c1-2 2 0.9 0 0zm-121-1c0.9-0.5 0.3 0.4 0 0zm109-0.1c3-5 5-2 0 0zm26-0.5c-3-9-6-18-8-28-3-7-13-0.3-15-9-2-8-8-13-14-18-3-1-4-6-0.04-3-0.9-4-8-4-7-1-2 3-10-5-15-1-7 3-15 4-22 7-4 2-10 7-15 5 4-4 13-4 11-10 4-4-3-3-4-1-3 0.08 3-2-2-2-4-0.8-4 2-2 3-5 0.8-15 6-9 11 3-1 9-1 3 0.6-3 1-10 6-7-1-1-8-4 5-7 6-4 3-4 7-7 10-1-6-0.4-12-1-18 2-3 4-5 3-10 1-6 0.6-13-1-19-4 0.2-8 4-4-1 2-4 6-15-3-10-3 4-12-0.08-11 6 7 2-3 4-6 3-4 0.5-0.01 9-4 3-5-3-1-16-11-15-6-2-2-2 1-3 2-4-5 2-6-2-5-2-2-13-0.8-10-0.5 3 6-0.09 5 5 0.3 11 14-4 14 2-3 4-2 4 2 3-4 4-8 16 2 11 8-1 3-9 9-13 7-7 5-18-1-24-5-4-3 4 0.9 5 2 5-3-3-5 2-3-2e-3 -8-0.2-10-4-4 1-11 7-11-2 4-5-2-6-4-8-2 5-4-15 3-7 5 4 14 8 18 2 5-10 10 5 14 8 6 6 9 16 18 18 7 2 16-2 22 4 7 3 15 0.6 22 0.4 7 0.7 14-2 11-10 0.4-4 5-12 6-4 0.5 2 5 3 3-0.09 1 2 5 5 3 0.5 2 4 1-5 3 0.6 0.02-4 3 2 5-1-0.7 6 3-2 4 3 0.4-5 5 3 5 0.7-0.03 6 3 3 5-0.01 3 2-0.5 5 2 3 2 8-1 18 0.9 24-4 4 5 3-0.9 5-2 3-0.9 8-3 11 3 1-5 0.3 0.8 2 7 3-9 0.2-3 3 3 0.6 7 2 5 6 3 4 6 6 8 2 4 5-0.7 14 2 20 1 6 0.1 15 7 16 0.05 8 3 15 2 23zm0.5-2c-0.4 0.3 0.5 0.9 0 0zm-8-26c-0.3-0.7-0.6 0.4 0 0zm-17-14c-0.3-0.7-0.4 0.7 0 0zm3-4c3-0.6-2-0.3 0 0zm-4-2c-2-1 0.5 2 0 0zm4-0.2c-1-0.8 0.3 0.7 0 0zm2-0.2c-0.4-0.7-0.3 0.7 0 0zm-3-0.2c-0.5-0.7-0.5 0.7 0 0zm-1-1c-1-5-3 1 0 0zm-3-0.1c-1-4-3-0.02 0 0zm4-0.2c-0.5-1-0.5 1 0 0zm2-0.2c-1-4-5 0.3 0 0zm6-3c-0.8-1-3 1 0 0zm-6-0.4c-0.6-1-0.7 0.9 0 0zm7-1c1-1 0.2-0.9-1 0.2zm-69-0.7c-3-2 1 2 0 0zm73-0.01-0.4 0.04zm-11-0.9c-3-3-5-0.1 0 0zm-13-0.2c-0.7-0.7-0.5 1 0 0zm-1-0.4c-0.8-1-0.5 1 0 0zm-47-0.8c-0.9-2-2 0.4 0 0zm52-1c-0.2-1-0.7 0.6 0 0zm-6-1c-1-0.2 0.03 3 0 0zm-9 0.7c1-4 9-0.3 8-7-3-3-9-2-7 2-4 1-6 3-0.9 5zm1-3c1-0.4-0.09 0.4 0 0zm3-1c1-1 0.6 0.9 0 0zm-0.8-1c-1-2 4 1 0 0zm17 6c-1-0.5 0.6 1 0 0zm2-0.5c-1-3-3 2 0 0zm-15-0.3c4-2-2-0.5 0 0zm-60-0.2c-0.6-1-0.9 0.8 0 0zm15 5e-3c-0.5-0.7-0.5 0.7 0 0zm-17-0.5c-2-2-2 0.4 0 0zm2-0.2c-2-2-3 0.5 0 0zm61-0.06c-0.4-0.7-0.3 0.7 0 0zm-13-1c5-3-4-3 0 0zm0.03-1c0.6-1 0.7 0.9 0 0zm-46 1c5 0.2 0.6-2-1-0.6zm0.5-0.7c0.5-0.6 0.6 1 0 0zm-5 0.7c-0.5-1-0.7 0.7 0 0zm0.4-0.6c-2-0.9 0.2 1 0 0zm47-0.6c0.3-5-4 2 0 0zm27 0.3c-0.9-2-1 1 0 0zm-72-0.4c2-3 15-0.6 6-4-4-2-6-2-4-0.3-3-1-7 4-2 4zm5-3c-0.6-1 2 1 0 0zm23 2c-3-7-3 3 0 0zm24 0.5c1-2-3 2 0 0zm-15-0.2c-0.3-0.7-0.4 0.7 0 0zm4-0.7c4 3 8-6 3-3 0.9 2-7 1-3 3zm-32 0.3c-0.9-0.8-0.7 0.8 0 0zm67-0.3c0.8-2-3 2 0 0zm2-0.1c0.5-1-1 2 0 0zm-49-0.2c-0.6-0.8-0.6 0.8 0 0zm22-0.2c-1-0.8-1 0.9 0 0zm23 0c-0.5-0.7-0.5 0.7 0 0zm-27-0.2c-0.5-0.8-0.7 0.8 0 0zm2 0c-0.7-0.8-0.7 0.8 0 0zm22-0.5c1-2-4 1 0 0zm-62-1c-3-2-2 0.7 0 0zm4-0.7c-3-0.02 0.5 1 0 0zm43 0.4c5-3-9 0.7 0 0zm-46-0.2c2-4-3-0.6 0 0zm40-0.2c-0.3-0.7-0.4 0.7 0 0zm25-0.3c1-2-5 2 0 0zm5 0.2c-2-0.8-1 0.6 0 0zm-65-0.4c-0.8-1-1 1 0 0zm28-0.04c0.1-1-0.9 0.9 0 0zm-39-0.6c4-0.5-2-4 0 0zm66-0.4c-0.5-2-1 1 0 0zm3-0.2c-0.7-1-0.5 1 0 0zm-20 0c-0.7-0.8-0.9 0.8 0 0zm-33-0.8c9-1-5-0.1 0 0zm-15-1c-0.4-3-2 0.7 0 0zm48-0.1c-0.7-1-0.9 1 0 0zm-47 0.1c-0.6-0.7-0.7 0.4 0 0zm51-5c1-4-3 2 0 0zm3-0.8c0.3-1-3 1 0 0zm-84-1c-0.7-0.7-0.4 1 0 0zm82-0.2c-1-1-0.7 2 0 0zm-80 0.2c-0.6-1-1 0.8 0 0zm84-0.6c-0.5-0.8-0.7 0.8 0 0zm-2-0.8c-0.8-0.4-0.6 1 0 0zm-5-0.2c-0.5-2-1 1 0 0zm-102-3c2-4-3 3 0 0zm24-7c7-5-5 0.3 0 0zm16-1c-0.7-0.8-0.7 0.8 0 0zm-53-0.2c-0.5-0.7-0.5 0.7 0 0zm2-0.2c4-2 2-2-0.4 0.09zm54-0.9c0.8-3-2 2 0 0zm-33-1c-1-0.9-0.9 0.8 0 0zm33-0.1c-0.07-0.8-0.8 1 0 0zm-17-0.2c9-1-4-0.4 0 0zm16-0.3c3-7-3-2-1 0.4zm-14-2c1-2-3 0.8 0 0zm-46-0.5c0.7-3-2 0.9 0 0zm44-2c-0.5-0.9-0.5 1 0 0zm2 0.1c4-0.5-2-5 0 0zm13-0.5c-0.1-2-1 2 0 0zm-0.2-1c3-6-7-1 0 0zm-11-1c-0.3-0.7-0.4 0.7 0 0zm0.4-4c-2-3-4 7-0.5 0.9 0.2-0.3 0.3-0.6 0.5-0.9zm2-2c-1-0.4-1 2 0 0zm-1-1c2-3-2 0.4 0 0zm90-0.7c6-7-4-0.3 0 0zm3-0.07c3-4-2 0.8 0 0zm-28-4c-0.3-1-0.6 0.7 0 0zm3-0.7c-0.02-2-2 0.6 0 0zm-4-1c-0.7-0.8-0.7 0.8 0 0zm7-0.7c-1-3 0.03 2 0 0zm-97-3c3-5-5 0.4 0 0zm2 0.2c-0.7-0.9-0.4 0.6 0 0zm86-0.1c-0.3-2-1 0.5 0 0zm-89-2c-2-4-2 2 0 0zm-3-0.2c-0.3-2-1 2 0 0zm3-2c-0.2-1-1 1 0 0zm-0.8-0.9c-0.9-2-1 1 0 0zm3-0.9c-2-4-5 0.7 0 0zm6-0.6c2-5-2 2 0 0zm-28-4c1-4-4-0.06 0 0zm-5-4c-0.6-1-0.9 1 0 0zm3-1c-2-3-2 0.5 0 0zm150 134c1-4 0.5 1 0.3 0.3zm-114-3c-2-3 2 0.8 0 0zm115-4c0.3-6-10-12-7-3 1-9-4-17-10-22-5-6-11-12-12-20 7 5 11 13 17 19 5 6 12 12 14 21 0.07 2 0.5 5-2 5zm-118-6c-0.8-5 1-6 0 0zm-1-10c-1-3-1-13-0.1-5-0.3 1 1 4 0.1 5zm117-6c-0.05-1 1 0.9 0 0zm-2-0.6c0.3-1 1 1 0 0zm-109-9c-2-7-11-9-15-16-3-2-4-7 0.7-3 6 3 12 7 14 15 0.3 0.5 2 7 0.3 4zm81-17c-0.3-4 3-0.6 0 0zm-48-0.9c-2-1 4 1 0 0zm2-0.5c0.5-0.8 0.7 0.8 0 0zm80-4c-0.7-1 2 0.3 0 0zm-7-0.6c0.8-0.9 0.8 0.7 0 0zm8-0.6c-0.2-1 0.8 0.6 0 0zm-9-4c0.4-0.7 0.3 0.7 0 0zm-1-7c1-0.4-0.09 0.4 0 0zm-113-12c0.6-0.8 0.3 0.8 0 0zm115-0.7c0.3-1 0.6 0.7 0 0zm-122-4c-0.08-1-0.6-0.4 0 0zm-23-18c4-5 11-10 17-8-4 4-12 5-17 8zm-2-4c-0.3-2 1 1 0 0zm1-0.6c-5-3-2-12-0.6-15 3 2 2 5-0.3 9-0.7 2 4 6 0.9 6zm138 0.1c0.1-2 1 0.7 0 0zm-108-2c1-2 0.8 1 0 0zm113-1c0.8-1 0.8 1 0 0zm-113-0.1c-3-1 3-0.06 0 0zm-4-1c-1-2 2 1 0 0zm92-2c-1-1 0.4 1 0 0zm24-1c-0.2-2 1 0.9 0 0zm-26-0.3c-0.08-1-0.6-0.4 0 0zm1-0.1c0.2-0.7 0.2 0.9 0 0zm-5-4c-0.2-2 1 0.8 0 0zm2-0.1c-3-4 8-5 1-0.7zm19-4c-2-3 1-1 0 0zm-8-2c-5e-3 -3 1 1 0 0zm-5-0.08c1-2 1 0.9 0 0zm2-0.2c-0.3-1 1 1 0 0zm6-0.1c0.07-1 1 0.8 0 0zm-1-0.2c0.3-0.7 0.4 0.7 0 0z" fill="#ca9962"/>

  <path d="m242 276c0.5-1 0.5 1 0 0zm-17-5c-0.1-1 2 0.2 0 0zm-4-2c2-2 1 0.4 0 0zm15-7c-2-7-10-10-11-18-4-6-10-10-13-16-3-3-9-16-2-8 5 5 8 11 14 16 5 6 11 11 14 18 0.8 2-0.1 7-1 7zm-8-3c-1-8 0.9-4 0 0zm-112-15c-1-3 0.6-2 0.1 0.2zm120-14c-2-1 2 0.9 0 0zm-115-1c-3-8-12-9-15-16-3-3 2-0.8 2 0.9 2-0.3 6 4 5-0.2 4 4 7 9 9 15l-0.1 0.3-0.2-0.1zm-14-16c-2-1-1 0.8 0 0zm128 15c-0.8-1 1 0.8 0 0zm-95-2c3-2-0.2 2 0 0zm95 0.1c-3 0.4 2-4 0.8-0.2 0.08 1-0.3 0.4-0.8 0.2zm-107-1c2-3 6-4 8-6-9e-3 3-4 9-8 7-0.4 0.1-0.2-0.3-0.2-0.5zm108-2c-0.4-3 1 0.9 0 0zm-81-2c-0.5-3 1 2 0 0zm-15-0.9c-2-5 5-5 0 0zm18 0.3c0.8-0.6 0.5 0.3 0 0zm78-0.5c-0.5-1 2 0.3 0 0zm-106-2c0.2-1 0.7 0.7 0 0zm8-0.2c-0.02-1 1 0.5 0 0zm-3-2c0.9-1 0.3 1 0 0zm6 0.05c0.2-0.4 4-5 4-0.7-1 0.3-3 1-4 0.7zm-4-0.1c9e-3 -1-3-3 0.7-2 0.5 0.5-0.2 2-0.7 2zm37-2c-5-0.9 3-6 5-3 2-2 5-1 7-3 4-1 6 2 10 1 0.4 2 4 3-1 2-3-2-8-2-11-0.2-2 3-7 2-8 2-0.7-0.2-0.7 3-1 1zm2-0.06c0.9-2 0.03 1 0 0zm-9-2c-5-0.3-1-4-0.7-6 2 2 5-2 4 3-3-0.7-1 5-3 3zm3-0.9c-3-2 5-0.3 0.2 0.4zm-33-1c-0.9-3 3-9 1-2 0.04 0.4-0.3 3-1 2zm-1-2c0.9-1 1 1 0 0zm-2-0.5c1-1 2 1 0 0zm1-0.9c1-0.7 1 0.7 0 0zm-2-0.6c0.4-0.9 0.7 0.7 0 0zm-2-0.2c0.5-0.7 0.5 0.7 0 0zm2-2c1-2 1 2 0 0zm2-0.5c-3-3 3 1 0 0zm-6-0.2c0.7-2 3-11 4-8 3-0.6-0.4 6 0.4 5 0.6 0.2-3 2-4 3zm2-4c-0.7-2-0.7 3 0 0zm-0.9 3c0.3-0.7 0.8 1 0 0zm2-0.8c0.5-0.7 0.5 0.7 0 0zm-1-0.4c0.3-1 0.6 1 0 0zm47-0.8c-1-2 2 1 0 0zm1-0.2c1-3-4-4-2-4 3-0.6 5-2 3-5 4 3 6-4 10-4 4-2-3-2 1-4 3-3-3 0.6-0.7-3-1 4-6 2-5 0.7 3 0.03 3-7 0.5-2 2 0.6-4 0.8-3 0.7 4-3-7-1-3-4-2 0.4-4 0.2-0.2-1 2 3 0.7 1 3 2-0.5 0.7 7-4 6-2 4 0.9-2 1 2 3 0.1-3 7-5 3-7-2 3-3-5-5-0.7-2-0.1-9 3-5 0.6 2-2-4 0.3-3-0.2-5-3 4-2 7-2 0.7-2 6-6 10-2 4 1 3 0.6 7-2-2-1 2-0.4 0.1-3 3 0.3 5-5 8-2 1-3 2 3 3-0.08 2 5 4 3 6 7-1 5 3 5 3 8 4 2-5 3-2 0.2-3-0.2-6-3-7-2-3 1-0.8 3-5 2 0.8-1-1-1 1-1-5-1-7-1-11-3-4-0.1-3 0.07-2 2-2-4-4-0.3-4 2 1-4 5 2 4 0.8 0.7 3-0.07 6-2 9-3 4 3 6-2 5 1 6-5 2-4 0.06-3 4-6 5-10 9l-1 0.9-0.4-0.2zm4-7c-0.2-0.7-0.5 0.7 0 0zm11-11c-0.7-1-1 1 0 0zm3-0.2c-0.7-0.7-0.5 0.7 0 0zm-9-1c-0.2-1-0.7 2 0 0zm4 0.5c-0.5-0.6-0.8 0.4 0 0zm-2-0.6c-0.7-0.5-0.7 0.9 0 0zm0.6-1c-0.5-1-2 1 0 0zm4-0.01c-0.5-0.7-0.7 0.7 0 0zm-10-0.3c-0.5-5-4 0.2 0 0zm9-0.3c-0.3-0.3 0.2 1 0 0zm-0.6-0.9c-0.4-1-0.9 0.5 0 0zm-2-2c0.2-2-2 0.5 0 0zm14-6c1-1-2 0.7 0 0zm-16-0.5c-0.5-2-2 0.9 0 0zm20-1c-0.1-1-2 1 0 0zm-9-0.9c1-2-2 1 0 0zm-66 33c0.5-0.7 0.7 0.7 0 0zm59-2c0.06-2 4 2 0 0zm-58-0.6c0.07-0.9 0.6 0.6 0 0zm-38-2c-2-2-5-1-4-5 0.5-4-2-7-5-10 3-1 13-9 8-1-4 4-2 9 3 7 0.8-0.04-3 6 0.4 1 2-4 9-3 10-6 0.8-2 4-5 3-4 2-4 2 3 3-0.3 0.2-2 4-7 4-7 3 0.1-3-2 2-2 4-2-2 7-4 8-1 3-7 6-11 10-5 2-3 3 0.7 4-5 2-10 0.4-11 6l-0.3 0.3-0.4-0.4zm4-7c-0.7-0.7-0.5 0.7 0 0zm13-10c-0.2-0.7-0.5 0.7 0 0zm35 17c2-3 1-7-1-2 0.03-2-3-4-2-8 5-1-1-5 4-5-0.3-2 0.9-5 2-7 2-3 4 4 0.3 4 3-2 0.6-4-0.2-3-0.7 3-2 7-2 10 2 2-3 3-2 4 4-0.5 2 6-0.3 7zm0.3-14c-1-0.4-0.2-0.2 0 0zm-16 13c-2-1-2-4 0.1-6 3-3 2 7-0.1 6zm0.7-6c-0.2-0.7-0.5 0.7 0 0zm14 5c0.9-2 0.6 1 0 0zm-2-3c1-0.2-0.3 0.3 0 0zm24 9e-3c-0.4-2 2 0.8 0 0zm6-0.5c0.8-2 0.9 1 0 0zm-55-1c0.9-0.7 0.5 0.7 0 0zm52-1c0.8-1 0.7 0.5 0 0zm1-0.6c0.5-0.7 0.2 0.7 0 0zm-40-0.2c2-2 2 1 0 0zm39 0.05c-3-3 2 0.7 0 0zm-37-0.6c0.4-1 0.6 0.7 0 0zm41-0.3c0.4-1 0.4 1 0 0zm-55-0.6c2-4 6-9 8-15 0.5-5 4-8 2-1-2 5-3 10-7 14 0.3 1-2 3-3 2zm10-16c-0.2-0.7-0.5 0.7 0 0zm35 16c1-1 1 0.2 0 0zm-32-0.3c-2-2 4-0.1 0 0zm44-1c-0.2-1 1 0.3 0 0zm-54-0.5c0.6-2 0.3 1 0 0zm56-0.4c0.7-1 0.3 0.8 0 0zm-7-0.5c0.5-0.7 0.5 0.7 0 0zm4-0.07c-1-3 1-0.2 0 0zm-4-0.9c0.7-2-2-2 2-3-3 3 4-0.8 3 1-3-1-3 2-5 2zm-5-0.4c1-0.7 0.9 0.7 0 0zm-88-2c-5-4 8-0.09 4-5-4 7-14-8-6-9 6-0.4 1 6 4 8 5 3 11-5 14-3-4 5-9 9-16 9zm-0.05-6c2-2-5 0.9 0 0zm92 5c-1-1 3 0.4 0 0zm-26-1c0.3-2 1 1 0 0zm33-1c0.3-2 2 0.4 0 0zm-2-0.3c-1-4 3-0.2 0 0zm-30-0.3c0.6-2 1 1 0 0zm28-0.3c-0.3-2 3 1 0 0zm7 0.06c-0.09-1 1 0.4 0 0zm-2-0.4c-3-2-0.9-3 1-0.6 0.5 0.6-0.7 1-1 0.6zm16 0.2c-1-3 2 0.1 0 0zm5-0.05c1-2 0.8 0.9 0 0zm-14-0.6c0.8-0.4 0.4 0.7 0 0zm24 2e-3c0.7-0.7 0.5 0.7 0 0zm-98-0.8c0.5-3 4 0.2 0 0zm68 0.01c0.7-3 0.8 1 0 0zm-34-0.1c2-2 3 0.6 0 0zm39 0.2c0.1-2 3-0.6 0 0zm-11-0.3c1-0.5 1 0.6 0 0zm-19-0.4c2-1-0.2 2 0 0zm15-0.2c1-0.6-0.5 0.6 0 0zm15 0.02c1-0.7 0.7 0.7 0 0zm-17-0.5c0.9-1 0.3 1 0 0zm16-0.02c0.03-1 0.9-0.3 0 0zm-8-0.5c-0.2-1 1 0.6 0 0zm-65-0.3c0.4-1 1 0.7 0 0zm71-0.4c0.07-2 2 0.7 0 0zm-69-0.2c0.7-0.9 0.7 0.5 0 0zm38-1c3-2-0.9-6 3-2 0.3 2-2 1-3 2zm2-2c-0.5-0.7-0.5 0.7 0 0zm-38 1c0.5-0.7 0.5 0.7 0 0zm9-3c1-1-0.7 1 0 0zm10-0.7c0.7-2 0.5 1 0 0zm18-0.2c0.7-0.7 0.7 0.7 0 0zm-5-0.7c0.5-2 1 2 0 0zm3 0.4c-0.6-1 2 0.6 0 0zm54-4c0.9-1 0.4 1 0 0zm-114-2c0.3-5 12-2 4-0.2-1 0.1-3 0.5-4 0.2zm-9-1c-3-3 1-1 0.4 0.3zm35-3c0.7-0.6 0.8 0.3 0 0zm3 5e-3c2-0.6-0.4 0.7 0 0zm0.3-0.9c-5-1 3-2 0 0zm-6-0.5c-0.3-3-6-4-1-7-0.3-3-6-6-7-11-4-6 5 2 6 5 2 4 9 9 7 12-3-2-3 0.9-5 2zm-28-1c-2-3 1-7 4-7-1 4 4-1 4 2 2 4-6 2-8 5-0.5-0.9 0.3 2-1 0.5zm104-0.6c0.5-0.7 0.5 0.7 0 0zm-110-3c0.3-0.9 0.7 0.3 0 0zm30-2c0.3-2 2-0.6 0 0zm85-0.5c0.02-1 0.9 0.8 0 0zm-87-0.9c-4-1-2-5-6-4-1-5-0.2-3 2-2 0.7-5 7 6 4 6zm-28-0.1c0.1-1 2 0.8 0 0zm19 0.06c0.3-1 0.8 0.6 0 0zm-3-1c-0.07-2 2 0.9 0 0zm4-0.4c-5-6 5 2 0 0zm-2 0.2c-0.4-1 1 0.09 0 0zm-20-2c-0.3-2 1 2 0 0zm8-0.7c-5-6 3-4 2 0.3-0.6 0.5-2 0.4-2-0.3zm-5-0.9c0.5-0.7 0.7 0.7 0 0zm22-5c0.3-0.9 0.7 0.3 0 0z" fill="#a96e38"/>

  <path d="m217 270c1-2 0.6 0.7 0 0zm15-8c-2-6-9-8-10-15-4-6-10-10-14-17-2-3-5-9-5-10 6 4 9 11 14 15 5 6 11 11 14 18 3 1 3 12 0.8 9zm-7-1c-0.8-4 0.2-6 0.3-0.9 0.4-0.6-0.2 2-0.3 0.9zm-112-17c0.2-0.9 0.1 1 0 0zm5-15c-3-7-11-8-14-14-2-3 8 5 7 1 3 3 7 11 7 13zm-7-11c-0.5-0.7-0.5 0.7 0 0zm26 8c1-1 0.3 0.9 0 0zm40-14c2-3 7-4 2-0.1-0.4 0.8-3 2-2 0.1zm-0.8-6e-4c0.5-0.7 0.2 0.7 0 0zm16-1c-5 0.5 0.2-3 0.7 0.05l-0.3 0.05zm-9-2c0.5-1 0.8 0.05 0 0zm2-0.4c-0.06-2 1 1 0 0zm-90-15c-4-0.4-3-4-3-8 1-3-7-6-3-7 3-2 10-6 5-0.2-3 3-1 7 1 8-0.1 4 9 2 9 2-4 0.7-8 1-8 6l-0.3 0.06-0.8-0.8zm4-7c0.2-4 10-5 3-2-0.8 0.7-2 2-3 2zm-2-1c2-3 1 2 0 0zm9-3c1-2 3-0.5 0 0zm3-2c0.5-0.7 0.2 0.7 0 0zm1-1c0.3-0.9 0.7 0.3 0 0zm-30-2c-4-4 8 0.6 5-6 3 0.8 14-8 9-1-4 3-9 8-14 7zm-0.9-4c-3-3-8-12 0.3-10 3 2 1 8 1 7-7 2 8-1 2 3l-2 0.4zm122-6c2-3 7-2 2-0.2l-1 0.3zm5-2c-2-2-4-3-2-4 0.3-6 9-0.08 7 2-3-4-2 2-5 1zm-4-2c1-1 0.4 0.9 0 0zm-112-7c1-5 9 0.1 2 0.2l-1 0.02zm-11-2c-0.2-1-0.6-0.5 0 0zm33-6c-0.04-6 3-0.9 0 0zm-7-8c-2-4 3 1 0 0zm5-0.6c-5-8 4 2 0 0zm-2-4c-1-1 1 1 0 0zm-5-6c0.06-0.9 0.9 0.4 0 0z" fill="#504c43"/>
    -->
 </g>
</svg>
