<?xml version="1.0" encoding="UTF-8" standalone="no"?>
<!-- Created with Inkscape (http://www.inkscape.org/) -->

<svg
   width="350"
   height="350"
   viewBox="0 0 328.12502 328.12501"
   id="svg2"
   version="1.1"
   inkscape:version="1.1 (c68e22c387, 2021-05-23)"
   sodipodi:docname="shiba-inu-isolated_simple_opt4_1.svg"
   xmlns:inkscape="http://www.inkscape.org/namespaces/inkscape"
   xmlns:sodipodi="http://sodipodi.sourceforge.net/DTD/sodipodi-0.dtd"
   xmlns:xlink="http://www.w3.org/1999/xlink"
   xmlns="http://www.w3.org/2000/svg"
   xmlns:svg="http://www.w3.org/2000/svg"
   xmlns:rdf="http://www.w3.org/1999/02/22-rdf-syntax-ns#">
  <defs
     id="defs4">
    <linearGradient
       id="linearGradient8435">
      <stop
         offset="0"
         style="stop-color:#ffffff;stop-opacity:0"
         id="stop8437" />
      <stop
         offset=".5"
         style="stop-color:#ffffff;stop-opacity:.83922"
         id="stop8445" />
      <stop
         offset="1"
         style="stop-color:#d8d8d8;stop-opacity:0"
         id="stop8439" />
    </linearGradient>
    <linearGradient
       x1="658.5"
       y1="811.67999"
       x2="122.88"
       gradientUnits="userSpaceOnUse"
       y2="278.10001"
       id="linearGradient5143">
      <stop
         offset="0"
         style="stop-color:#000000"
         id="stop5139" />
      <stop
         offset="1"
         style="stop-color:#2c377b;stop-opacity:.37295"
         id="stop5141" />
    </linearGradient>
    <linearGradient
       x1="158.73"
       y1="340.60999"
       x2="660.94"
       gradientUnits="userSpaceOnUse"
       xlink:href="#linearGradient8435"
       y2="767.78998"
       id="linearGradient8443" />
    <linearGradient
       x1="535.26001"
       y1="683.77002"
       gradientTransform="translate(-13.77,-18.192)"
       x2="159.61"
       gradientUnits="userSpaceOnUse"
       xlink:href="#linearGradient8435"
       y2="354.45999"
       id="linearGradient9438" />
    <filter
       style="color-interpolation-filters:sRGB;"
       inkscape:label="Fire"
       id="filter10772"
       x="-0.16594916"
       y="-0.20981481"
       width="1.2976113"
       height="1.3591394"
       inkscape:menu="Protrusions"
       inkscape:menu-tooltip="Edges of object are on fire">
      <feColorMatrix
         values="1 0 0 0 0 0 1 0 0 0 0 0 1 0 0 -0.21 -0.72 -0.07 2 0 "
         result="fbSourceGraphic"
         id="feColorMatrix10770" />
      <feColorMatrix
         result="fbSourceGraphicAlpha"
         in="fbSourceGraphic"
         values="0 0 0 -1 0 0 0 0 -1 0 0 0 0 -1 0 0 0 0 1 0"
         id="feColorMatrix15477" />
      <feMorphology
         id="feMorphology15479"
         result="result1"
         radius="2.4"
         operator="dilate"
         in="fbSourceGraphic" />
      <feTurbulence
         id="feTurbulence15481"
         baseFrequency="0.09 0.028"
         numOctaves="1" />
      <feColorMatrix
         id="feColorMatrix15483"
         result="result2"
         values="2 0 0 0 0 0 2 0 0 0 0 0 0 0 0 0 0 0 1 0" />
      <feDisplacementMap
         in2="result2"
         id="feDisplacementMap15485"
         result="result4"
         scale="10.319410319410318"
         yChannelSelector="G"
         xChannelSelector="R"
         in="result1" />
      <feFlood
         id="feFlood15487"
         result="result3"
         flood-opacity="1"
         flood-color="rgb(255,159,54)" />
      <feMorphology
         id="feMorphology15489"
         radius="3.8"
         result="result7"
         in="result4" />
      <feGaussianBlur
         id="feGaussianBlur15491"
         result="result7"
         in="result7"
         stdDeviation="2.4" />
      <feComposite
         in2="result4"
         id="feComposite15493"
         result="result5"
         in="result3"
         operator="in" />
      <feComposite
         in2="result7"
         id="feComposite15495"
         operator="out" />
      <feOffset
         id="feOffset15497"
         result="result6"
         dy="-7"
         dx="-4.5" />
      <feGaussianBlur
         id="feGaussianBlur15499"
         result="result7"
         stdDeviation="4.8" />
      <feComposite
         in2="result6"
         id="feComposite15501"
         in="fbSourceGraphic"
         result="result8" />
      <feComposite
         in2="result7"
         id="feComposite15503" />
    </filter>
    <filter
       style="color-interpolation-filters:sRGB;"
       inkscape:label="Fire"
       id="filter10776"
       x="-0.16142374"
       y="-0.20111967"
       width="1.2894955"
       height="1.3442559"
       inkscape:menu="Protrusions"
       inkscape:menu-tooltip="Edges of object are on fire">
      <feColorMatrix
         values="1 0 0 0 0 0 1 0 0 0 0 0 1 0 0 -0.21 -0.72 -0.07 2 0 "
         result="fbSourceGraphic"
         id="feColorMatrix10774" />
      <feColorMatrix
         result="fbSourceGraphicAlpha"
         in="fbSourceGraphic"
         values="0 0 0 -1 0 0 0 0 -1 0 0 0 0 -1 0 0 0 0 1 0"
         id="feColorMatrix15505" />
      <feMorphology
         id="feMorphology15507"
         result="result1"
         radius="2.4"
         operator="dilate"
         in="fbSourceGraphic" />
      <feTurbulence
         id="feTurbulence15509"
         baseFrequency="0.09 0.028"
         numOctaves="1" />
      <feColorMatrix
         id="feColorMatrix15511"
         result="result2"
         values="2 0 0 0 0 0 2 0 0 0 0 0 0 0 0 0 0 0 1 0" />
      <feDisplacementMap
         in2="result2"
         id="feDisplacementMap15513"
         result="result4"
         scale="10.319410319410318"
         yChannelSelector="G"
         xChannelSelector="R"
         in="result1" />
      <feFlood
         id="feFlood15515"
         result="result3"
         flood-opacity="1"
         flood-color="rgb(255,159,54)" />
      <feMorphology
         id="feMorphology15517"
         radius="3.8"
         result="result7"
         in="result4" />
      <feGaussianBlur
         id="feGaussianBlur15519"
         result="result7"
         in="result7"
         stdDeviation="2.4" />
      <feComposite
         in2="result4"
         id="feComposite15521"
         result="result5"
         in="result3"
         operator="in" />
      <feComposite
         in2="result7"
         id="feComposite15523"
         operator="out" />
      <feOffset
         id="feOffset15525"
         result="result6"
         dy="-7"
         dx="-4.5" />
      <feGaussianBlur
         id="feGaussianBlur15527"
         result="result7"
         stdDeviation="4.8" />
      <feComposite
         in2="result6"
         id="feComposite15529"
         in="fbSourceGraphic"
         result="result8" />
      <feComposite
         in2="result7"
         id="feComposite15531" />
    </filter>
    <filter
       style="color-interpolation-filters:sRGB;"
       inkscape:label="Fire"
       id="filter10780"
       x="-0.15522742"
       y="-0.19946102"
       width="1.2783831"
       height="1.3414168"
       inkscape:menu="Protrusions"
       inkscape:menu-tooltip="Edges of object are on fire">
      <feColorMatrix
         values="1 0 0 0 0 0 1 0 0 0 0 0 1 0 0 -0.21 -0.72 -0.07 2 0 "
         result="fbSourceGraphic"
         id="feColorMatrix10778" />
      <feColorMatrix
         result="fbSourceGraphicAlpha"
         in="fbSourceGraphic"
         values="0 0 0 -1 0 0 0 0 -1 0 0 0 0 -1 0 0 0 0 1 0"
         id="feColorMatrix15533" />
      <feMorphology
         id="feMorphology15535"
         result="result1"
         radius="2.4"
         operator="dilate"
         in="fbSourceGraphic" />
      <feTurbulence
         id="feTurbulence15537"
         baseFrequency="0.09 0.028"
         numOctaves="1" />
      <feColorMatrix
         id="feColorMatrix15539"
         result="result2"
         values="2 0 0 0 0 0 2 0 0 0 0 0 0 0 0 0 0 0 1 0" />
      <feDisplacementMap
         in2="result2"
         id="feDisplacementMap15541"
         result="result4"
         scale="10.319410319410318"
         yChannelSelector="G"
         xChannelSelector="R"
         in="result1" />
      <feFlood
         id="feFlood15543"
         result="result3"
         flood-opacity="1"
         flood-color="rgb(255,159,54)" />
      <feMorphology
         id="feMorphology15545"
         radius="3.8"
         result="result7"
         in="result4" />
      <feGaussianBlur
         id="feGaussianBlur15547"
         result="result7"
         in="result7"
         stdDeviation="2.4" />
      <feComposite
         in2="result4"
         id="feComposite15549"
         result="result5"
         in="result3"
         operator="in" />
      <feComposite
         in2="result7"
         id="feComposite15551"
         operator="out" />
      <feOffset
         id="feOffset15553"
         result="result6"
         dy="-7"
         dx="-4.5" />
      <feGaussianBlur
         id="feGaussianBlur15555"
         result="result7"
         stdDeviation="4.8" />
      <feComposite
         in2="result6"
         id="feComposite15557"
         in="fbSourceGraphic"
         result="result8" />
      <feComposite
         in2="result7"
         id="feComposite15559" />
    </filter>
    <filter
       style="color-interpolation-filters:sRGB;"
       inkscape:label="Fire"
       id="filter10784"
       x="-0.15511834"
       y="-0.19926486"
       width="1.2781874"
       height="1.341081"
       inkscape:menu="Protrusions"
       inkscape:menu-tooltip="Edges of object are on fire">
      <feColorMatrix
         values="1 0 0 0 0 0 1 0 0 0 0 0 1 0 0 -0.21 -0.72 -0.07 2 0 "
         result="fbSourceGraphic"
         id="feColorMatrix10782" />
      <feColorMatrix
         result="fbSourceGraphicAlpha"
         in="fbSourceGraphic"
         values="0 0 0 -1 0 0 0 0 -1 0 0 0 0 -1 0 0 0 0 1 0"
         id="feColorMatrix15561" />
      <feMorphology
         id="feMorphology15563"
         result="result1"
         radius="2.4"
         operator="dilate"
         in="fbSourceGraphic" />
      <feTurbulence
         id="feTurbulence15565"
         baseFrequency="0.09 0.028"
         numOctaves="1" />
      <feColorMatrix
         id="feColorMatrix15567"
         result="result2"
         values="2 0 0 0 0 0 2 0 0 0 0 0 0 0 0 0 0 0 1 0" />
      <feDisplacementMap
         in2="result2"
         id="feDisplacementMap15569"
         result="result4"
         scale="10.319410319410318"
         yChannelSelector="G"
         xChannelSelector="R"
         in="result1" />
      <feFlood
         id="feFlood15571"
         result="result3"
         flood-opacity="1"
         flood-color="rgb(255,159,54)" />
      <feMorphology
         id="feMorphology15573"
         radius="3.8"
         result="result7"
         in="result4" />
      <feGaussianBlur
         id="feGaussianBlur15575"
         result="result7"
         in="result7"
         stdDeviation="2.4" />
      <feComposite
         in2="result4"
         id="feComposite15577"
         result="result5"
         in="result3"
         operator="in" />
      <feComposite
         in2="result7"
         id="feComposite15579"
         operator="out" />
      <feOffset
         id="feOffset15581"
         result="result6"
         dy="-7"
         dx="-4.5" />
      <feGaussianBlur
         id="feGaussianBlur15583"
         result="result7"
         stdDeviation="4.8" />
      <feComposite
         in2="result6"
         id="feComposite15585"
         in="fbSourceGraphic"
         result="result8" />
      <feComposite
         in2="result7"
         id="feComposite15587" />
    </filter>
    <filter
       style="color-interpolation-filters:sRGB;"
       inkscape:label="Fire"
       id="filter10788"
       x="-0.15873572"
       y="-0.21220028"
       width="1.2846748"
       height="1.3632226"
       inkscape:menu="Protrusions"
       inkscape:menu-tooltip="Edges of object are on fire">
      <feColorMatrix
         values="1 0 0 0 0 0 1 0 0 0 0 0 1 0 0 -0.21 -0.72 -0.07 2 0 "
         result="fbSourceGraphic"
         id="feColorMatrix10786" />
      <feColorMatrix
         result="fbSourceGraphicAlpha"
         in="fbSourceGraphic"
         values="0 0 0 -1 0 0 0 0 -1 0 0 0 0 -1 0 0 0 0 1 0"
         id="feColorMatrix15589" />
      <feMorphology
         id="feMorphology15591"
         result="result1"
         radius="2.4"
         operator="dilate"
         in="fbSourceGraphic" />
      <feTurbulence
         id="feTurbulence15593"
         baseFrequency="0.09 0.028"
         numOctaves="1" />
      <feColorMatrix
         id="feColorMatrix15595"
         result="result2"
         values="2 0 0 0 0 0 2 0 0 0 0 0 0 0 0 0 0 0 1 0" />
      <feDisplacementMap
         in2="result2"
         id="feDisplacementMap15597"
         result="result4"
         scale="10.319410319410318"
         yChannelSelector="G"
         xChannelSelector="R"
         in="result1" />
      <feFlood
         id="feFlood15599"
         result="result3"
         flood-opacity="1"
         flood-color="rgb(255,159,54)" />
      <feMorphology
         id="feMorphology15601"
         radius="3.8"
         result="result7"
         in="result4" />
      <feGaussianBlur
         id="feGaussianBlur15603"
         result="result7"
         in="result7"
         stdDeviation="2.4" />
      <feComposite
         in2="result4"
         id="feComposite15605"
         result="result5"
         in="result3"
         operator="in" />
      <feComposite
         in2="result7"
         id="feComposite15607"
         operator="out" />
      <feOffset
         id="feOffset15609"
         result="result6"
         dy="-7"
         dx="-4.5" />
      <feGaussianBlur
         id="feGaussianBlur15611"
         result="result7"
         stdDeviation="4.8" />
      <feComposite
         in2="result6"
         id="feComposite15613"
         in="fbSourceGraphic"
         result="result8" />
      <feComposite
         in2="result7"
         id="feComposite15615" />
    </filter>
  </defs>
  <sodipodi:namedview
     id="base"
     pagecolor="#ffffff"
     bordercolor="#666666"
     borderopacity="1.0"
     inkscape:pageopacity="0.0"
     inkscape:pageshadow="2"
     inkscape:zoom="6.2699817"
     inkscape:cx="279.26716"
     inkscape:cy="221.53175"
     inkscape:document-units="px"
     inkscape:current-layer="layer1"
     showgrid="false"
     fit-margin-top="0"
     fit-margin-left="0"
     fit-margin-right="0"
     fit-margin-bottom="0"
     inkscape:window-width="3840"
     inkscape:window-height="2054"
     inkscape:window-x="3829"
     inkscape:window-y="-11"
     inkscape:window-maximized="1"
     inkscape:pagecheckerboard="0"
     units="px"
     width="350px" />
  <metadata
     id="metadata7">
    <rdf:RDF />
  </metadata>
  <g
     inkscape:label="Layer 1"
     inkscape:groupmode="layer"
     id="layer1"
     style="display:inline">
    <path
       inkscape:connector-curvature="0"
       id="path4231"
       d="m 112.53901,139.02569 c -4.74177,4.70883 -14.910658,6.0566 -15.383572,13.70578 0.803493,4.45851 -3.269257,12.50954 3.457312,11.65176 1.09027,3.93336 0.48851,7.07767 5.60568,7.59623 5.60445,2.50873 3.61734,9.63041 5.65584,14.39001 1.42074,7.4264 4.20898,14.64572 9.15349,20.44949 4.44461,8.71964 3.61816,18.87539 5.54294,28.26625 2.44412,6.50869 -6.58836,8.67347 -8.33818,12.79133 -0.35689,2.73025 3.05382,0.81196 5.12862,3.00205 7.40262,4.38358 15.63018,-2.6055 13.32409,-10.46353 -0.44478,-8.85755 0.7351,-17.6004 2.69798,-26.21176 1.62267,-6.62743 0.18083,-16.15587 9.50059,-15.49687 16.30223,-3.89717 32.60447,-7.79433 48.9067,-11.6915 2.58287,8.42072 1.34644,18.46605 7.89231,25.29249 5.55685,6.15555 11.45479,10.10692 11.94518,18.91894 2.53297,6.04397 -0.52557,13.51394 -4.71428,16.67827 4.6802,4.73695 13.01188,0.76601 11.19889,-6.14224 -0.64513,-3.58029 3.36037,-8.32706 3.86044,-2.17684 1.7145,4.94419 -7.29598,17.68434 2.23997,15.53705 6.81982,-5.13062 2.89875,-11.32087 3.21547,-18.18023 -2.08417,-8.40254 -8.93937,-20.89795 -12.24497,-28.8642 -6.17492,-13.41706 -13.35689,-26.41926 -20.74974,-39.13927 -6.80573,-5.19017 -16.19051,-1.23488 -24.06581,-2.90617 -12.69172,-0.58873 -25.38119,-1.30201 -38.0364,-2.44599 -5.68054,-3.6295 -8.80147,-9.9443 -13.61503,-14.52606 -3.27093,-4.31445 -7.10754,-7.97683 -12.17754,-10.03499 z"
       style="font-style:normal;font-weight:normal;font-size:121.38px;line-height:125%;font-family:sans-serif;letter-spacing:0px;word-spacing:0px;display:inline;fill:#d9d9cf;fill-opacity:1;fill-rule:evenodd;stroke:none;stroke-width:0.158501px;stroke-linecap:butt;stroke-linejoin:miter;stroke-opacity:1"
       inkscape:label="colour1"
       sodipodi:nodetypes="sccccccccccccccccccccccccss" />
    <path
       inkscape:connector-curvature="0"
       id="path4227"
       d="m 227.59572,253.6986 c -0.75685,-5.18875 9.68272,-0.88099 3.1784,-0.17185 -1.01232,0.16826 -2.16828,0.68306 -3.1784,0.17185 z m -1.38948,-0.60326 c -2.18999,-4.69165 5.22274,-10.94122 0.0227,-14.56903 -0.13453,2.73247 -2.60936,11.68089 -4.47573,9.28457 3.25409,-3.61091 3.13391,-12.75028 -2.7287,-12.19468 -0.40304,7.38618 -1.14021,-5.04288 -2.15119,-7.07785 -5.72119,-7.68803 -14.31899,-13.94101 -16.84406,-23.68877 -3.45506,-7.65733 -13.626,-8.51832 -20.59666,-5.68644 -8.36666,2.37053 -16.54021,5.4341 -24.3778,9.20409 -8.57913,-0.53504 -14.51292,6.48495 -13.17882,14.7676 -3.53737,7.95854 -0.83728,16.74489 -5.09158,24.21935 -0.54007,7.13799 -17.02018,7.81346 -12.81806,0.51381 2.91785,-2.04766 -3.01536,4.64548 2.57221,3.64869 3.86884,1.3115 11.7401,-2.12141 8.72608,-7.16158 -1.40258,3.90315 -6.2296,-3.34646 -5.9631,1.93185 -5.30198,2.1441 4.39882,-8.5046 2.00891,-12.13057 -0.65329,-7.34893 1.41069,-15.62766 -3.41234,-21.98887 -6.72484,-2.12883 -2.42039,9.6054 -1.88597,13.34606 -0.14172,4.16137 6.63602,12.52034 0.3791,14.4665 -0.57348,-8.27725 -2.44352,-18.23443 -2.5547,-26.53323 -1.73268,-8.63233 -10.34781,-13.8294 -11.71982,-22.62757 -2.5798,-6.14715 -5.72941,-11.71962 -8.33025,-17.49092 -4.30917,-2.87973 -8.423266,-2.47642 -9.183572,-8.88856 -1.986874,-5.64056 2.474995,-9.79372 0.839793,-15.59094 2.75159,-5.41442 -3.617976,-13.02962 0.748401,-16.77755 5.705948,0.89324 10.668608,7.97094 16.766038,3.41043 3.49262,-3.16326 6.41239,-4.57327 9.05098,0.44737 5.22305,5.80546 8.97879,12.80463 14.46066,18.34649 6.18012,6.23263 16.35466,-0.7587 22.38851,5.65953 7.42061,2.5606 15.43584,0.63158 23.01278,-0.16642 8.18774,-0.17102 2.68996,-8.276 6.25317,-12.55112 4.29247,-7.75586 16.11505,-12.69507 23.40574,-6.05241 5.50926,5.21539 7.9802,13.29675 7.60716,20.71229 -2.81333,6.80945 1.62496,12.03279 4.93207,17.42557 3.35771,6.71722 3.08756,14.41592 1.97454,21.6291 -0.29549,8.5251 -0.64422,18.0958 5.09713,24.95867 2.96173,6.12475 2.05004,13.11511 3.2118,19.64724 0.94237,4.24121 -3.17253,7.1898 -3.43851,1.3427 -2.14422,-3.76421 -6.10054,4.95511 -4.70689,6.2146 z m 4.83688,-7.85095 c -0.57134,-0.87066 -0.14188,1.17456 0,0 z m -1.58501,-2.16058 c -0.67983,-0.49569 -0.29265,0.91861 0,0 z m -2.93227,-9.7969 c -0.4328,-0.76544 -0.28824,0.67777 0,0 z m -0.71325,-1.02088 c -0.008,-4.51899 -4.37422,-1.00675 0,0 z M 209.72474,213.3158 c -0.22687,-0.61898 -0.32086,0.65838 0,0 z m -0.55476,-1.61652 c -1.04737,-3.52554 -2.81989,-0.0775 0,0 z m -2.06232,-2.46049 c 0.0868,-1.85666 -2.28119,-0.13654 0,0 z m -1.1077,-2.39682 c -1.74343,-4.29129 -2.63634,1.11059 0,0 z m -77.26483,-2.2041 c 2.67253,-5.7585 6.85872,-17.07245 -3.37297,-17.26546 -2.13309,-1.34531 2.44028,-7.46844 1.55888,-9.13872 -3.07862,1.19889 -9.86543,7.94167 -10.22613,2.79464 -3.96105,-0.67075 -5.87877,2.73285 -3.09711,4.03545 2.33894,-0.63054 7.81989,5.87674 1.80216,2.90862 -2.84571,-1.27781 -0.24944,11.57438 1.41525,6.73937 -1.15284,-4.27997 3.8291,-3.65237 2.4354,0.31155 1.64987,3.93166 9.96131,6.76002 9.48452,9.61455 z m -0.71766,-2.22695 c 0.45035,-2.12996 1.35921,1.12047 0,0 z m -7.32431,-11.28158 c 0.51248,-2.19624 1.03548,1.92594 0,0 z m -5.51368,-0.1226 c 0.76325,-3.58483 3.66243,1.50926 0,0 z m 8.87547,-0.67363 c -5.7583,-2.35295 -2.3051,-4.62967 0.23088,-0.80103 z m -1.27192,-4.2106 c -0.84448,-2.66903 1.15662,1.47038 0,0 z m -2.92835,-1.01994 c 0.15005,-1.52475 1.42301,1.16369 0,0 z m -1.98127,-0.60943 c 0.66444,-2.18721 1.65058,0.68838 0,0 z m 3.58838,-2.03655 c -0.41486,-0.86131 0.98077,0.21832 0,0 z m 81.65533,22.10016 c -0.61403,-1.17554 -0.82053,1.30572 0,0 z m -81.55855,-5.76956 c -0.64331,-0.51288 -0.33676,0.37623 0,0 z m -3.05116,-4.15608 c -1.02552,-1.58686 -0.59778,0.78354 0,0 z m -4.44882,-5.23385 c 1.37372,-4.41815 -3.03695,1.5139 0,0 z m -0.62321,-4.31339 c -0.63512,-0.3346 -0.05,0.81704 0,0 z m 4.77185,-7.50613 c -0.80831,-0.96704 -0.63609,1.30771 0,0 z m -5.00353,-3.89707 c 0.47331,-2.22112 -3.23114,-2.9781 1.13447,-4.05401 4.19641,-2.93627 10.1348,-7.79466 8.20433,-11.91584 0.88147,-4.52725 -10.51485,-6.68712 -11.97337,-1.33813 -7.22882,-4.12201 -4.77933,10.81859 1.59423,4.47396 3.70427,-0.43842 3.38752,2.04223 1.36565,3.25981 0.74493,2.77045 -6.99216,10.41494 -0.32531,9.57421 z m 4.59046,-12.30166 c 0.68382,-2.36118 3.25326,0.85093 0,0 z m -4.83428,10.25098 c -0.22689,-0.61898 -0.32084,0.6584 0,0 z m -15.093933,-5.51781 c -0.575896,-0.93431 -0.488004,0.93228 0,0 z m 5.029123,-2.56575 c 2.20007,-3.97191 -6.006608,-2.95288 -0.43953,-0.4431 l 0.26283,0.26496 z m -0.17625,-0.82119 c 0.13272,-1.26185 1.15356,0.87864 0,0 z m 0.17625,-2.82432 c -0.48788,-0.7375 -0.41422,0.69902 0,0 z m 8.12647,-6.62733 c -0.57017,-0.81282 -0.42274,0.99481 0,0 z m -9.47373,-0.44538 c -0.88883,-0.93209 -0.18717,1.59537 0,0 z m 116.5322,96.76398 c -1.37487,-1.45336 3.93579,0.78814 0,0 z m -4.47949,-0.34996 c -7.10238,-2.2731 9.11635,-8.07249 1.69107,-3.0879 -5.25164,2.38755 6.09243,1.57688 -0.37017,3.51404 -0.32576,-0.12443 -0.99514,-0.30171 -1.3209,-0.42614 z m -93.70622,-1.22746 c 0.82198,-2.04346 2.68778,1.17842 0,0 z m 3.6059,-0.14585 c 0.60538,-0.80572 0.46887,0.74057 0,0 z m 8.59529,-0.97191 c -1.64663,-1.74964 1.66912,0.17057 0,0 z m -8.29745,-2.70463 c 0.89906,-3.40018 3.79042,-5.10386 1.42936,-0.68336 -0.26395,0.48675 -0.85217,0.89449 -1.42936,0.68336 z"
       style="font-style:normal;font-weight:normal;font-size:121.38px;line-height:125%;font-family:sans-serif;letter-spacing:0px;word-spacing:0px;display:inline;fill:#c8cbb2;fill-opacity:1;stroke:none;stroke-width:0.158501px;stroke-linecap:butt;stroke-linejoin:miter;stroke-opacity:1"
       inkscape:label="color2"
       sodipodi:nodetypes="cccsccccccccccccccccccccccccccccccccccccsscccccccccccccccccccccccccccccccccccccccccccccccccccccccccccccccccccccccccccccccccccccccccccccc" />
    <path
       inkscape:connector-curvature="0"
       id="path4225"
       d="m 228.91496,253.65199 c 1.22764,-3.11549 4.01264,1.48327 0,0 z m -102.84614,-1.28594 c 1.37597,-1.96601 3.33285,0.0453 0,0 z m -1.14211,-0.37602 c 0.22689,-0.61897 0.32085,0.6584 0,0 z m 4.45091,0.003 c 1.7631,-1.67197 1.08598,0.79411 0,0 z m -6.80204,-1.65932 c 2.00392,-2.76095 1.47066,-0.0621 0,0 z m 92.26082,-1.15959 c 0.517,-2.62763 2.52561,1.45328 0,0 z m 6.62812,-0.17822 c 0.79331,-2.02592 2.09424,0.83553 0,0 z M 120.8453,247.76404 c 0.64331,-0.51287 -1.08153,-0.38748 0,0 z m 90.86129,-0.0932 c 1.35171,-3.08869 4.58633,-1.95921 0,0 z m 21.85857,-0.39337 c -2.30864,-7.67385 -5.40458,-15.13381 -6.89673,-23.03587 -3.30622,-5.15389 -13.45647,-1.05321 -13.60556,-9.69077 -1.94938,-7.13502 -10.27399,-10.03205 -13.2404,-15.64652 6.00707,0.80719 -3.81629,-4.49825 -4.10949,0.10346 -6.39723,-2.64481 -12.59743,-2.19698 -18.91385,0.72799 -6.62463,1.3245 -12.89928,3.70841 -18.60827,7.3022 -2.89748,1.89503 -7.62922,0.2733 -2.43035,-1.59889 4.26607,-0.62875 9.06669,-5.69051 6.34616,-8.93665 -2.751,0.36423 -3.97367,2.65605 -3.99247,-0.0918 -3.72742,-1.63527 -4.29905,1.6268 -3.85477,2.93243 -4.17929,-0.10748 -12.05095,6.95365 -5.6356,8.67732 9.73235,-2.57662 -8.57892,7.36315 -4.04079,0.01 -2.98602,-3.85838 -5.05267,6.93701 -8.65309,7.96567 -1.16691,3.22543 -4.39533,7.15722 -3.87741,1.28582 -0.32499,-5.74472 -0.93623,-11.02461 1.9288,-15.97669 0.1012,-5.9519 1.12087,-12.34677 -0.96864,-18.02022 -2.24272,-2.79066 -6.98498,2.81765 -3.48632,-2.12603 2.94985,-3.21992 3.74056,-12.68678 -2.67821,-7.34038 -2.42105,1.3222 -13.30853,2.20237 -6.73238,5.45203 -2.46078,3.11094 -10.92363,-0.13062 -9.23407,6.10978 -5.79687,-3.70661 -2.3423,-15.10986 -11.972129,-14.47644 -4.582444,-1.83113 6.457979,-3.26041 0.86171,-3.18762 -6.070527,2.74011 -7.464099,-10.76153 -4.206429,-8.99747 6.203968,-1.1849 1.674723,9.58507 8.304278,6.49178 2.92274,-1.94684 9.55533,-4.36744 5.79364,1.22317 6.84352,-2.54261 -5.70912,9.29601 2.14307,9.58735 7.72538,0.10758 5.83902,-8.65062 10.71285,-12.00881 5.67908,-5.68029 3.5015,-17.30476 -3.66463,-20.40449 -1.74502,3.02759 6.75222,8.85461 -0.0301,5.59715 -5.25059,4.79867 -9.69598,-5.18851 -14.66287,-0.58893 -5.518959,2.46605 -4.453521,-3.98397 -3.49637,-6.81286 -3.421952,-2.98033 -7.56057,-2.32829 -5.492345,-8.61559 3.557614,-3.95262 8.659825,5.82038 14.055615,4.01772 5.11418,0.63751 8.10436,-9.90034 12.17869,-2.07111 4.91965,6.48922 9.48063,13.31103 14.90309,19.38544 6.35277,6.0494 16.48025,-0.55919 22.69321,5.6599 7.00948,3.04422 14.59752,-0.16835 21.86844,0.28872 9.02224,0.0379 4.40849,-9.39723 8.27842,-13.91596 1.99553,-3.21235 4.50451,7.4106 5.10166,1.691 2.09141,3.88339 2.98357,0.89063 3.23554,1.32462 0.99266,-3.59235 1.60009,0.42433 2.93169,-1.59194 2.42759,1.49357 3.49772,-0.25494 4.12916,2.14586 2.66719,-1.5443 2.21473,1.29456 3.68912,-0.65039 3.68801,0.7265 3.542,7.88651 7.14784,2.92338 4.45221,0.19716 3.48332,11.1502 2.93855,17.27031 0.0735,3.27816 -0.0196,6.44145 1.18097,8.11973 -4.12527,1.63764 -2.16499,10.16409 -4.25512,10.87697 5.76152,1.85369 -0.12712,2.03661 -2.37007,2.14441 3.97701,0.55471 5.92062,3.21936 5.74858,6.40375 1.26204,1.71781 6.04085,4.66454 6.06308,0.56466 2.90615,6.17122 -0.69262,13.35281 2.00838,19.7459 -0.45548,4.88381 2.54467,9.32034 5.48956,11.65726 0.29803,6.04269 2.44335,12.02095 1.37641,18.09961 z m 0.43594,-1.50866 c -0.37621,0.33676 0.51287,0.64331 0,0 z m -6.44501,-21.74489 c -0.22381,-0.65109 -0.48717,0.39642 0,0 z m -14.50283,-11.65917 c -0.22686,-0.61899 -0.32088,0.65838 0,0 z m 2.5228,-3.4474 c 2.47157,-0.44226 -1.38088,-0.31793 0,0 z m -3.56969,-1.33872 c -1.65083,-1.26251 0.46809,1.59269 0,0 z m 3.18665,-0.1274 c -1.23717,-1.00237 0.14135,0.6701 0,0 z m 1.90201,-0.15849 c -0.32082,-0.65841 -0.22691,0.61895 0,0 z m -2.85302,-0.15851 c -0.36409,-0.66968 -0.36409,0.66968 0,0 z m -0.91343,-0.91138 c -0.84324,-4.07822 -2.98288,1.07754 0,0 z m -2.41508,-0.0855 c -0.77206,-3.03308 -2.98775,-0.0291 0,0 z m 3.64551,-0.19179 c -0.41728,-0.92028 -0.393,0.91517 0,0 z m 1.52352,-0.14766 c -0.87117,-3.47004 -4.521,0.54238 0,0 z m 5.03447,-2.15545 c -0.7731,-1.32668 -2.59755,1.23425 0,0 z m -5.32631,-0.34191 c -0.42274,-0.9948 -0.57016,0.81283 0,0 z m 6.21467,-0.85925 c 1.77423,-1.56445 -2.29799,0.72798 -0.16921,0.0305 z m -57.91766,-0.62186 c -2.24123,-1.85088 0.89839,1.87694 0,0 z m 60.57246,-0.012 -0.32802,0.036 z m -9.11842,-0.75309 c -1.67814,-2.56016 -3.62262,-0.0442 0,0 z m -11.1184,-0.18139 c -0.59129,-0.64366 -0.34961,0.93733 0,0 z m -0.80089,-0.33396 c -0.72129,-0.85668 -0.27374,1.26906 0,0 z m -38.83275,-0.6855 c -0.71246,-1.72237 -1.29439,0.44663 0,0 z m 43.11227,-1.0939 c -0.13345,-0.92624 -0.64488,0.57257 0,0 z m -4.65943,-1.22971 c -1.39506,-0.0483 0.5034,2.54231 0,0 z m -7.45494,0.55158 c 1.2143,-2.64991 9.76258,-2.33774 5.51795,-6.59774 -4.81045,-2.41909 -4.48761,2.83619 -7.86227,3.97397 -0.26172,1.35537 1.51013,2.01956 2.34432,2.62377 z m 0.98959,-2.78507 c 0.75073,-0.51934 0.12753,0.41905 0,0 z m 2.60024,-1.18422 c 0.62022,-1.35679 0.71044,0.75041 0,0 z m -0.64451,-0.98196 c -0.85358,-1.5409 3.13147,1.24032 0,0 z m 13.79723,4.62021 c -1.21469,-0.49761 0.53352,1.07623 0,0 z m 1.67224,-0.4138 c -1.19292,-2.21929 -2.13486,1.84777 0,0 z m -12.57722,-0.21369 c 3.4299,-1.03684 -1.78708,-0.62956 0,0 z m -50.30805,-0.1382 c -0.40701,-1.10701 -0.7915,0.74978 0,0 z m 12.83858,0.005 c -0.36409,-0.66968 -0.36411,0.66968 0,0 z m -13.78958,-0.44614 c -1.02118,-1.69594 -1.42237,0.43009 0,0 z m 2.01829,-0.14046 c -1.31895,-2.06449 -2.76428,0.48812 0,0 z m 50.60404,-0.0474 c -0.32087,-0.65838 -0.22689,0.619 0,0 z m -11.08308,-0.88717 c 4.15107,-2.5005 -3.41972,-1.87092 0,0 z m 0.0243,-1.04455 c 0.42274,-0.99482 0.57018,0.81283 0,0 z m -38.47282,0.82222 c 5.17558,0.0428 -3.1209,-2.04636 0,0 z m 0.39626,-0.57416 c 0.56759,-0.52016 0.30238,1.07909 0,0 z m -3.96253,0.59112 c -0.46124,-1.42496 -0.71879,0.69084 0,0 z m 0.36289,-0.50997 c -1.39017,-1.04226 0.0735,0.9298 0,0 z m 39.56457,-0.51942 c 0.37466,-3.37329 -2.80145,1.4 0,0 z m 22.20493,0.23467 c -0.70909,-1.76512 -1.21243,1.16508 0,0 z m -60.23038,-0.33175 c 2.56538,-2.31799 11.3159,-0.82152 3.66428,-3.43422 -3.96732,-1.46092 -1.41571,0.26238 -4.89563,0.86163 -1.56054,1.02441 -0.54556,2.99709 1.23135,2.57259 z m 4.05112,-2.30331 c -0.44425,-1.05755 1.85355,1.44808 0,0 z m 18.86099,1.3613 c -1.30967,-4.72174 -2.99325,1.77041 0,0 z m 20.05732,0.44975 c 1.16887,-1.78179 -2.21342,1.42984 0,0 z m -12.14099,-0.14181 c -0.22688,-0.61895 -0.32083,0.6584 0,0 z m 3.03569,-0.57114 c 3.38257,2.79806 6.08316,-6.16495 2.07916,-1.26311 -0.77515,0.30427 -5.1643,1.04519 -2.07916,1.26311 z m -26.81084,0.25414 c -0.67769,-0.82082 -0.58049,0.76579 0,0 z m 55.53559,-0.21748 c 0.54259,-1.86228 -2.16734,2.03224 0,0 z m 1.60403,-0.0995 c 0.2706,-1.16455 -1.1457,1.58495 0,0 z m -40.60664,-0.17038 c -0.47247,-0.76002 -0.47249,0.75999 0,0 z m 18.33724,-0.14661 c -0.84003,-0.79925 -0.93702,0.85524 0,0 z m 19.25788,0 c -0.36411,-0.66966 -0.3641,0.66967 0,0 z m -22.19014,-0.15849 c -0.41422,-0.69904 -0.4879,0.73751 0,0 z m 1.58501,0 c -0.53636,-0.74914 -0.53636,0.74914 0,0 z m 18.20493,-0.40869 c 1.02261,-1.67881 -3.27212,1.25299 0,0 z m -52.04412,-1.17508 c -2.46045,-1.75108 -1.35952,0.69856 0,0 z m 3.02954,-0.60328 c -2.8758,-0.54712 0.16929,1.23148 0,0 z m 35.72319,0.35028 c 3.74152,-2.5401 -6.40089,0.72075 0,0 z m -38.41191,-0.19691 c 1.69086,-3.20296 -2.43525,-0.90014 0,0 z m 33.41914,-0.18564 c -0.22688,-0.61898 -0.32086,0.65838 0,0 z m 21.12025,-0.28912 c 0.85234,-1.85404 -3.96965,1.96357 0,0 z m 4.31915,0.15661 c -2.10418,-1.438 -1.02098,0.73491 0,0 z m -54.55872,-0.31671 c -0.80072,-0.86179 -0.63107,1.32334 0,0 z m 23.5783,-0.0369 c 0.0666,-0.88746 -0.67754,0.83446 0,0 z m -32.26147,-0.47215 c 3.64991,-0.43992 -2.10611,-2.73351 0,0 z m 55.07979,-0.31094 c -0.32899,-1.52433 -0.87263,0.89772 0,0 z m 2.45607,-0.15738 c -0.53043,-1.25559 -0.43207,1.13799 0,0 z m -16.88036,0 c -0.58049,-0.76578 -0.67769,0.82083 0,0 z m -27.21217,-0.65724 c 3.76634,-0.3986 1.37906,-0.85876 -0.83263,-0.0752 z m -12.12391,-0.83311 c -0.0422,-2.22207 -1.42788,0.63877 0,0 z m 39.65309,-0.0836 c -0.61311,-1.13269 -0.67592,1.21246 0,0 z m -38.912,0.0852 c -0.45205,-0.66227 -0.60517,0.43766 0,0 z m 42.4727,-4.04831 c 1.19501,-3.55717 -2.9506,1.22739 0,0 z m 2.70009,-0.63677 c 0.0811,-1.19074 -2.43645,1.21622 0,0 z m -69.61166,-1.10726 c -0.64467,-0.63464 -0.25423,1.03519 0,0 z m 68.02665,-0.18781 c -0.99851,-0.94002 -0.48509,1.5807 0,0 z m -66.88742,0.18726 c -0.50417,-1.19644 -1.13592,0.85625 0,0 z m 70.05744,-0.48486 c -0.41422,-0.69901 -0.48787,0.7375 0,0 z m -1.42652,-0.64598 c -0.71587,-0.40823 -0.34611,0.87976 0,0 z m -3.98909,-0.2048 c -0.23958,-1.44285 -1.09781,1.21473 0,0 z m -85.08459,-2.64226 c 1.46748,-3.15747 -2.26951,2.89353 0,0 z m 20.32881,-5.80169 c 3.73949,-2.34284 -0.30305,-2.43419 -1.00831,-0.0257 z m 13.42803,-0.84934 c -0.53634,-0.74912 -0.53634,0.74913 0,0 z m -44.06327,-0.15849 c -0.36409,-0.66968 -0.36409,0.66968 0,0 z m 1.33421,-0.17418 c 4.91774,-2.00179 -2.09781,-1.14336 0,0 z m 44.98231,-0.75633 c 0.4428,-2.18497 -1.74491,1.83383 0,0 z m -27.77191,-1.13001 c -0.87137,-0.86784 -0.7352,0.81181 0,0 z m 27.64509,-0.10174 c -0.28752,-0.59561 -0.47594,1.25555 0,0 z m -13.93033,-0.15356 c 7.24602,-0.94159 -2.24901,-0.78687 0,0 z m 13.30317,-0.24226 c 3.64575,-7.34218 -4.11488,1.16564 0,0 z m -11.55852,-1.3435 c 1.14479,-1.381 -2.171,0.72951 0,0 z m -38.517963,-0.44013 c 0.606081,-2.08442 -1.911723,0.77997 0,0 z m 36.970323,-1.33469 c -0.45621,-0.75216 -0.31451,1.02747 0,0 z m 1.85162,0.10339 c 3.36896,-0.71152 -1.87475,-3.49882 0,0 z m 11.24929,-0.39737 c -0.12633,-1.68896 -0.87425,1.60274 0,0 z m -0.14301,-1.17415 c 2.72831,-5.12326 -5.54083,-0.57384 0,0 z m -9.43461,-0.93906 c -0.22689,-0.61895 -0.32083,0.6584 0,0 z m 0.29708,-2.93226 c -2.3479,-1.46071 -2.22882,5.34272 -0.40536,0.75639 z m 1.28793,-1.35133 c -1.11519,-0.45552 -0.56772,1.43749 0,0 z m -1.23742,-1.06581 c 1.5064,-2.19571 -1.9969,0.30192 0,0 z m 75.30047,-0.56918 c 5.27814,-5.10006 -2.90705,-1.25201 0,0 z m 2.86638,-0.0582 c 2.73159,-3.37321 -2.02713,0.36667 0,0 z m -23.5146,-3.52397 c -0.17173,-0.89571 -0.54228,0.6323 0,0 z m 2.42479,-0.58495 c 0.14466,-1.86405 -1.37543,0.50471 0,0 z m -3.21729,-0.85092 c -0.53635,-0.74912 -0.53633,0.74914 0,0 z m 5.56481,-0.58404 c -1.06907,-2.43878 -0.0457,1.65316 0,0 z m -81.20903,-2.73582 c 3.13814,-4.03743 -3.79244,0.1749 0,0 z m 1.30726,0.14991 c -0.43388,-0.83079 -0.45684,0.49431 0,0 z m 71.95945,-0.0897 c 0.008,-2.0483 -1.1887,0.42323 0,0 z m -74.04084,-1.2583 c -1.30027,-3.01239 -2.1013,1.58697 0,0 z m -2.47634,-0.15779 c -0.31181,-1.42816 -0.71555,1.64874 0,0 z m 2.40431,-1.80066 c -0.18507,-1.18657 -0.79846,1.0269 0,0 z m -0.6996,-0.71595 c -0.66084,-1.85595 -1.1574,1.23282 0,0 z m 2.49639,-0.70919 c -1.19974,-3.68992 -4.37561,0.80002 0,0 z m 5.36864,-0.45936 c 2.23333,-3.57757 -1.91256,0.88878 0,0 z m -23.03568,-3.42404 c 1.31625,-3.42559 -3.859621,0.0381 0,0 z m -4.209293,-3.69888 c -0.666824,-1.62951 -0.729332,1.12535 0,0 z m 2.42033,-0.82765 c -1.582578,-2.51364 -1.686142,0.40196 0,0 z M 223.43501,247.17855 c 0.007,-3.52273 1.29375,0.58634 0,0 z m -94.92402,-2.25571 c -1.97153,-3.76072 1.85601,1.0411 0,0 z m 96.14239,-3.59285 c 1.31831,-4.2556 -8.3203,-9.65644 -6.1408,-2.68296 1.37249,-8.85103 -5.48873,-15.38807 -10.97716,-21.16784 -3.29333,-4.04056 -6.87827,-8.42794 -7.34143,-13.83281 6.47772,5.52191 10.69805,13.13738 16.86086,18.99097 3.86378,4.5686 12.35403,12.74695 7.59853,18.69264 z m -98.4191,-5.12411 c -0.59242,-4.33681 1.08459,-4.45225 0,0 z m -0.89605,-8.50699 c -1.29807,-2.82789 -0.43183,-9.86907 -0.0755,-2.87265 -0.10349,0.81666 0.89585,2.20777 0.0755,2.87265 z m 97.69402,-4.88445 c -0.008,-1.24821 0.73472,1.02381 0,0 z m -2.06052,-0.47551 c 0.23572,-1.25464 0.86777,1.21052 0,0 z m -91.26327,-7.79562 c -2.73212,-6.90891 -11.14385,-9.09497 -14.35932,-15.76239 2.32318,-2.07916 9.97996,4.56115 12.19084,8.00257 0.83546,1.47169 4.00168,7.87181 2.16848,7.75982 z m 67.34728,-14.04894 c -0.55543,-3.48466 3.03452,-0.58971 0,0 z m -39.87414,-0.74448 c -1.35943,-1.03042 3.70935,1.45129 0,0 z m 1.42651,-0.38306 c 0.41422,-0.69902 0.48789,0.7375 0,0 z m 67.08555,-2.95798 c -0.58777,-1.10645 1.29184,0.30929 0,0 z m -6.14192,-0.52903 c 0.59671,-0.82137 0.65262,0.63726 0,0 z m 6.49001,-0.48931 c -0.3241,-1.23673 0.7424,0.39122 0,0 z m -7.36177,-3.15622 c 0.32086,-0.65839 0.22688,0.61898 0,0 z m -1.13922,-5.97281 c 0.75081,-0.51939 0.12737,0.41909 0,0 z m -94.19911,-9.87729 c 0.43279,-0.76543 0.28825,0.67775 0,0 z m 95.81384,-0.54539 c 0.17174,-0.8957 0.54228,0.63228 0,0 z m -101.82375,-3.23735 c -0.43198,-0.93537 0.61302,0.22261 0,0 z M 98.428937,157.89697 c 1.810683,-4.65933 11.766743,-9.18337 13.290333,-5.64931 -4.12515,2.55217 -8.9497,3.56142 -13.290333,5.64931 z m -1.71852,-3.55405 c -0.246944,-2.28289 0.95107,1.57843 0,0 z m 1.18579,-0.5055 c -5.43064,-1.47891 -0.784045,-16.92084 0.952914,-9.03239 -1.520332,3.12451 -1.998267,5.70425 -0.371572,8.80704 z m 115.238683,0.1145 c -0.16191,-1.94981 1.06427,0.53718 0,0 z m -90.15988,-1.46174 c 0.80389,-1.45116 0.66317,1.04906 0,0 z m 93.84259,-0.87176 c 0.62781,-0.91893 0.6278,0.91895 0,0 z m -94.18922,-0.0894 c -2.39643,-1.005 2.61173,-0.0355 0,0 z m -3.52664,-0.99317 c -0.70796,-1.72267 1.39679,0.85673 0,0 z m 76.61635,-1.30956 c -1.03158,-1.5532 1.11464,0.30232 0,0 z m 19.85211,-1.12691 c -0.29306,-1.46582 0.99751,0.72819 0,0 z m -21.68247,-0.22407 c -0.43201,-0.93536 0.61302,0.22257 0,0 z m 1.18813,-0.11375 c 0.17706,-0.57645 0.0794,0.80932 0,0 z m -3.75604,-2.38259 c -1.88661,-2.93943 1.6135,0.94631 0,0 z m 1.57584,-1.02402 c -2.09063,-3.69417 5.83389,-2.7432 0.49789,-0.34155 l -0.30775,0.21112 z m 15.64647,-3.66492 c -1.9914,-1.5915 0.99545,-1.46822 0,0 z m -6.95276,-1.55356 c -0.25365,-2.48274 1.26617,1.13258 0,0 z m -3.75222,0.5129 c 0.92459,-1.56344 0.95644,0.84544 0,0 z m 1.97297,-0.76062 c -0.0821,-1.03169 1.0841,1.24194 0,0 z m 5.15099,-0.0831 c -0.0223,-1.29386 0.97419,0.75366 0,0 z m -0.94246,-0.14466 c 0.22688,-0.61897 0.32085,0.6584 0,0 z"
       style="font-style:normal;font-weight:normal;font-size:121.38px;line-height:125%;font-family:sans-serif;letter-spacing:0px;word-spacing:0px;display:inline;fill:#afb381;fill-opacity:1;stroke:none;stroke-width:0.158501px;stroke-linecap:butt;stroke-linejoin:miter;stroke-opacity:1"
       inkscape:label="color3"
       sodipodi:nodetypes="cccccccccccccccccccccccccccccccccccccccccccccccccccccccccccccccccccccccsccccccccccccccccccccccccccccccccccccccccccccccccccccccccccccccccccccccccccccccccccccccccccccccccccccccccccccccccccccccccccccccccccccccccccccccccccccccccccccccccccccccccccccccccccccccccccccccccccccccccccccccccccccccccccccccccccccccccccccccccccccccccccccccccccccccccccccccccccccccccccccccccccccccccccccccccccccccccccccccccccccccccccccccccccccccc" />
    <path
       inkscape:connector-curvature="0"
       id="path4223"
       d="m 229.29961,252.86179 c 0.36701,-0.91286 0.36698,0.91286 0,0 z m -14.16603,-3.83705 c 0.009,-1.16009 1.31331,0.62614 0,0 z m -2.95207,-2.03719 c 1.12468,-2.18375 1.44485,0.27688 0,0 z m 12.77145,-5.78939 c -4.5961,-7.06127 -9.33465,-14.17429 -14.65317,-20.63859 -3.6442,-3.87275 -10.20045,-11.92105 -9.19225,-15.16797 6.38336,4.86193 9.95693,12.50721 16.0221,17.79642 3.89282,4.72096 11.52314,11.32686 7.82332,18.01014 z m -6.32316,-2.3722 c -0.94953,-3.86855 0.58386,-5.01242 0,0 z m -93.49916,-12.59234 c -1.34295,-2.5486 0.85716,-1.42737 0,0 z m 100.03078,-11.64058 c -2.01993,-1.1908 1.80371,0.59797 0,0 z m -95.5073,-0.98594 c -1.61147,-5.69404 -13.58657,-10.55162 -12.39849,-13.65508 4.81149,2.44643 8.83494,2.91152 10.97853,9.04956 0.6989,1.45097 1.2713,2.98884 1.41996,4.60552 z m -11.93921,-13.7459 c -1.06599,-1.17331 -1.0239,0.86094 0,0 z m 106.42184,12.11074 c -0.41585,-0.89812 1.22674,0.972 0,0 z m -78.84139,-2.03049 c 1.91049,-2.78052 0.13256,1.97187 0,0 z m 79.48696,0.0945 c -3.37648,-2.43322 4.29008,-0.43274 0,0 z m -89.41942,-0.87386 c 1.45218,-2.84411 10.15984,-7.52184 5.00249,-1.26834 -1.09421,1.18506 -3.62505,3.01596 -5.00249,1.26834 z m 89.81249,-1.39984 c -1.01291,-2.42459 1.21775,0.55004 0,0 z m -67.52214,-1.51009 c -0.71975,-2.45281 1.23866,1.3667 0,0 z m -12.91752,-0.7143 c -1.44134,-4.69821 4.03093,-3.5127 0,0 z m 14.82345,0.26607 c 0.41761,-0.6894 0.49753,0.37391 0,0 z m 65.3024,-0.41578 c -0.27324,-1.12187 1.32264,0.60416 0,0 z m -88.60206,-1.80149 c -0.0615,-1.11098 0.72392,0.55171 0,0 z m 6.29153,-0.19931 c -0.0216,-0.92538 0.82567,0.59687 0,0 z m -2.14601,-1.88814 c 0.3342,-1.48499 0.59913,0.72347 0,0 z m 4.88905,0.0435 c 2.54147,-5.09739 5.68219,0.96116 0,0 z m -3.01153,-0.0806 c -3.15635,-2.62653 2.31516,-1.70553 0,0 z m 31.1714,-1.87311 c -3.43727,-3.93962 6.43984,-3.01445 8.60009,-4.59228 2.58855,-1.52933 11.69159,1.55821 9.37092,2.15558 -5.9234,-3.69007 -11.59302,3.28111 -17.23794,1.46462 l -0.41427,0.3483 z m 1.67328,-0.0504 c 0.44184,-1.83344 0.38041,0.80903 0,0 z m -7.25499,-1.82548 c -6.42044,-1.55555 5.02703,-7.48851 2.20737,-2.62477 -1.1991,0.38315 -0.45107,3.41809 -2.20737,2.62477 z m 2.54565,-0.7185 c -1.63578,-2.06582 3.31369,0.95578 0,0 z m -27.42191,-0.79667 c -0.53627,-6.59502 3.30181,-3.11825 0,0 z m -1.18893,-1.83407 c 0.78289,-1.00339 0.87815,1.23927 0,0 z m -1.53916,-0.44646 c 0.99387,-1.04267 1.65568,1.28668 0,0 z m 1.06365,-0.73127 c 0.70653,-0.80308 0.70653,0.80308 0,0 z M 139.42954,192.72 c 0.25213,-0.89616 0.60288,0.69655 0,0 z m -1.4265,-0.16785 c 0.36409,-0.66968 0.36409,0.66968 0,0 z m 1.90201,-1.56806 c 1.03586,-1.46599 0.79616,1.66489 0,0 z m 1.78314,-0.42659 c -2.83307,-2.62627 2.27534,0.93248 0,0 z m -4.93707,-0.12575 c -1.08432,-3.54058 5.62502,-10.24098 4.11268,-3.09545 -0.79941,1.63952 -2.6518,2.23478 -4.11268,3.09545 z m 1.96339,-2.99307 c -0.43676,-1.76367 -0.62707,2.17335 0,0 z m -0.71147,2.79577 c 0.56759,-0.52013 0.30236,1.0791 0,0 z m 1.90201,-0.69384 c 0.36412,-0.66967 0.36408,0.66969 0,0 z m -0.951,-0.30764 c 0.14185,-1.17457 0.57134,0.87065 0,0 z m 38.91932,-0.66592 c -0.97616,-1.42726 1.98998,0.89969 0,0 z m 0.90354,-0.16022 c 1.78386,-2.23509 -3.80928,-3.53947 0.58355,-3.98583 0.9348,-4.65939 10.38129,-4.23938 8.29492,-9.6252 3.15082,-3.33835 -6.92244,2.98185 -3.23182,-2.73157 1.98037,-2.98422 -3.16086,2.23873 -4.19212,-1.45238 -4.49579,-0.34049 -2.6835,-3.35564 0.0971,-1.1799 3.29833,-1.41845 5.03318,-1.59474 7.13966,-0.69801 6.76307,-5.54271 -3.70877,-6.97659 -7.2666,-4.63134 1.46048,-1.40624 -5.41485,-0.55539 -1.40781,-2.47576 5.2238,1.23959 10.09883,-5.94518 14.92199,-1.49384 4.89833,-2.04048 8.4152,-10.29109 14.61181,-4.83707 3.85138,3.23026 6.12303,9.35392 6.40198,13.27472 -3.19864,-2.45863 -8.09884,-3.78628 -11.20771,-1.21583 -2.3148,-3.61993 -10.60561,-1.77174 -11.94097,-2.39048 -3.82156,3.78468 2.77971,0.24528 2.36095,5.2738 -0.95149,3.46036 -1.28154,13.77535 -5.68797,11.97279 -1.84403,-2.43938 -6.80238,6.28277 -9.47701,6.1959 z m 3.1309,-5.52325 c -0.22687,-0.61898 -0.32086,0.65838 0,0 z m 8.95532,-9.49903 c -0.61311,-1.1327 -0.67594,1.21246 0,0 z m 2.61524,-0.16954 c -0.48787,-0.73751 -0.41422,0.69902 0,0 z m -7.72125,-0.94853 c -0.38585,-1.11145 -0.33061,1.71426 0,0 z m 3.60024,0.40314 c -0.29932,-0.66196 -0.58314,0.47375 0,0 z m -1.30431,-0.5345 c -0.67335,-0.50591 -0.30898,0.93655 0,0 z m 0.5118,-1.12977 c -0.38763,-1.25619 -1.27947,1.13272 0,0 z m 3.56628,-0.009 c -0.41423,-0.69901 -0.48787,0.7375 0,0 z m -8.13566,-0.2623 c 0.13858,-3.83439 -3.5721,0.18675 0,0 z m 7.37217,-0.24292 c -0.43039,0.11668 0.53813,0.76882 0,0 z m -0.51562,-0.74482 c 0.0245,-1.28643 -0.96307,0.45696 0,0 z m -1.59091,-1.41696 c 0.4018,-2.20121 -2.00135,0.60526 0,0 z m 11.73311,-5.35425 c 0.81262,-1.22492 -1.89353,0.92581 0,0 z m -13.45023,-0.39451 c -0.24891,-1.62284 -1.49569,0.85413 0,0 z m 16.34077,-1.18037 c -0.2948,-1.28234 -1.23916,1.71129 0,0 z m -7.74174,-0.71261 c 0.98642,-1.34599 -1.71648,1.31198 0,0 z m -55.28696,27.5854 c 0.41422,-0.69903 0.48787,0.7375 0,0 z m 49.53456,-1.89873 c 1.27051,-1.93745 1.70359,2.18265 0,0 z m -48.65603,-0.46786 c -0.0266,-0.83163 0.54092,0.55706 0,0 z m -31.48778,-1.9346 c -5.24024,-2.12714 -2.04302,-9.99093 -6.31876,-12.74704 1.19317,-4.25502 11.46266,-4.72351 4.80565,0.29487 -3.03539,3.74008 4.91874,5.7239 4.29733,5.72775 4.38009,-3.65364 9.20744,-5.81739 13.31776,-9.77735 2.48055,0.60587 4.99532,-9.79087 6.51553,-5.39065 -3.45115,6.84531 -10.36257,10.68641 -15.92559,15.44281 7.1861,2.76426 -7.28904,0.65967 -6.69192,6.44961 z m 3.10932,-6.00171 c -0.48787,-0.7375 -0.41422,0.69902 0,0 z m 11.09507,-7.92505 c -0.22688,-0.61899 -0.32085,0.65837 0,0 z m 29.39487,13.7764 c 1.77514,-1.12764 0.35376,-5.62592 -0.82687,-1.97496 -4.06127,-6.02399 2.94685,-11.48822 4.12691,-17.08394 4.57665,-0.60482 -0.29788,6.19642 1.14895,1.23975 -3.3889,3.07134 -1.33627,8.70792 -3.89272,12.63642 3.12164,-0.77022 1.09931,4.97659 -0.55627,5.18273 z m 0.25134,-11.56792 c -0.54944,-0.27155 -0.38873,-0.19212 0,0 z m -13.33673,10.99682 c -4.42266,-2.38127 3.81367,-8.17709 1.48987,-1.91726 -0.28177,0.55048 -0.41362,2.14382 -1.48987,1.91726 z m 0.57087,-4.64625 c -0.22688,-0.61896 -0.32082,0.6584 0,0 z m 12.04608,3.90785 c 0.42556,-1.71199 0.65323,0.99385 0,0 z m -1.61472,-2.11411 c 0.75076,-0.51934 0.12752,0.41907 0,0 z m 20.26932,0.008 c -0.32813,-1.45285 1.58499,0.97718 0,0 z m 5.35761,-0.37526 c 0.32897,-1.52437 0.87263,0.89771 0,0 z m -46.12309,-0.94988 c 0.60535,-0.80573 0.46887,0.74056 0,0 z m 43.66701,-0.93302 c 0.38183,-0.99073 0.69587,0.50472 0,0 z m 1.1095,-0.49399 c 0.32086,-0.65838 0.2269,0.61897 0,0 z m -33.40809,-0.18756 c 0.87319,-1.86634 1.43669,0.92262 0,0 z m 32.1401,0.0398 c -2.53198,-1.23567 1.21664,-0.55258 0,0 z m -30.43219,-0.47683 c 0.17176,-0.89569 0.54226,0.63232 0,0 z m 34.17891,-0.24711 c 0.31584,-0.88904 0.31585,0.88904 0,0 z m -46.19698,-0.49814 c 3.52869,-4.43887 6.21269,-11.88109 8.7312,-15.3182 -1.0983,5.07409 -3.58216,13.67121 -8.7312,15.3182 z m 8.1348,-13.52919 c -0.22691,-0.61897 -0.32083,0.6584 0,0 z m 28.92643,13.55591 c 0.66801,-1.14243 1.09053,0.42689 0,0 z m -26.59207,-0.2571 c -1.41159,-2.14538 2.59239,0.67873 0,0 z m 37.0003,-0.8829 c -0.30852,-1.06497 1.07041,0.37909 0,0 z m -44.64445,-0.40576 c 0.10042,-1.66761 0.59805,0.68584 0,0 z m 46.78591,-0.36925 c 0.34113,-0.99095 0.42997,0.66043 0,0 z m -6.05116,-0.38732 c 0.36411,-0.6697 0.36412,0.66969 0,0 z m 3.32071,-0.0545 c -1.71451,-1.98599 1.13453,-0.75335 0,0 z m -3.32544,-0.7291 c -1.42288,-3.29331 7.06921,-1.99347 2.27776,-1.22252 l -1.12927,0.8197 z m -4.1163,-0.32583 c 0.87138,-0.86787 0.73523,0.81181 0,0 z m -73.469703,-2.07929 c -2.500436,-2.42339 8.893033,-3.40265 1.270606,-2.9469 -7.438788,1.56075 -5.385096,-13.97532 -0.735061,-6.37578 -1.390307,8.59212 10.133158,1.13342 11.782148,2.24264 -2.2143,4.38369 -7.5705,6.89694 -12.317693,7.08004 z m -0.042,-4.64398 c 1.060838,-2.32403 -3.03052,1.36015 0,0 z m 76.879813,4.23547 c -1.24554,-1.46666 2.47225,0.74926 0,0 z m -21.91033,-1.19736 c 0.11641,-1.70048 1.3309,1.11036 0,0 z m 27.4932,-0.91832 c 0.15735,-1.54879 2.00879,0.67046 0,0 z m -1.50147,-0.27835 c -1.3387,-3.49279 2.94042,-0.49736 0,0 z m -24.88222,-0.22983 c 0.073,-2.02447 1.11378,0.8721 0,0 z m 22.98579,-0.26696 c -0.0977,-1.75992 2.07871,1.61668 0,0 z m 5.81043,0.0468 c -0.21828,-0.98076 0.8613,0.41491 0,0 z m -1.37797,-0.2949 c -5.75809,-3.69461 4.10541,-0.0169 0,0 z m 13.74996,0.12846 c -1.90766,-1.99657 1.75618,-0.137 0,0 z m 4.16064,-0.0437 c 0.58975,-1.64427 0.85017,0.80151 0,0 z m -11.96522,-0.48367 c 0.58347,-0.47471 0.28268,0.6685 0,0 z m 20.36578,0.001 c 0.48787,-0.73749 0.41421,0.69902 0,0 z m -81.86575,-0.63401 c 0.28914,-2.88184 3.0654,0.66121 0,0 z m 56.42947,0.0105 c -0.0207,-2.60689 1.03865,0.98959 0,0 z m -28.39176,-0.10205 c 1.23872,-1.64033 2.21043,0.84138 0,0 z m 32.85308,0.14511 c 0.0463,-1.83222 2.10794,0.0664 0,0 z m -9.29863,-0.25096 c 0.89083,-0.66144 0.86797,0.71444 0,0 z m -16.21059,-0.317 c 1.69774,-1.52721 0.006,1.48145 0,0 z m 12.36421,-0.1385 c 0.8021,-0.75465 -0.0768,0.49585 0,0 z m 12.32608,0.0197 c 0.6777,-0.82084 0.5805,0.76578 0,0 z m -14.47835,-0.4045 c 0.3342,-1.48497 0.59912,0.72348 0,0 z m 13.24273,-0.0186 c -0.31915,-1.03359 0.92226,-0.13693 0,0 z m -6.98793,-0.45757 c -0.36585,-1.18652 1.02224,0.50184 0,0 z m -54.37324,-0.21087 c 0.34115,-1.63478 1.1734,0.98086 0,0 z m 58.95126,-0.33496 c -0.0549,-1.43244 1.4478,0.72109 0,0 z m -57.57881,-0.18812 c 0.30899,-0.93658 0.67337,0.50591 0,0 z m 31.5054,-1.2232 c 1.21293,-5.91962 4.37267,0.27083 0,0 z m 1.58501,-1.60021 c -0.36409,-0.66968 -0.36409,0.66968 0,0 z m -31.85869,1.10951 c 0.36411,-0.66967 0.3641,0.66968 0,0 z m 7.21267,-2.85399 c 1.09404,-1.14841 -0.40752,1.08461 0,0 z m 8.00343,-0.61607 c 0.32126,-1.62107 0.62403,0.99938 0,0 z m 14.89909,-0.17547 c 0.53634,-0.74912 0.53634,0.74913 0,0 z m -4.16055,-0.55853 c 0.25874,-1.92278 0.82588,1.34956 0,0 z m 2.45666,0.29506 c -0.37138,-1.14812 2.10264,1.1353 0,0 z m 45.29166,-3.30279 c 0.55209,-1.06095 0.48065,0.89687 0,0 z m -94.94556,-1.25521 c 0.2025,-4.61436 9.0849,-0.46343 2.58063,-0.0888 l -1.28805,0.14662 z m -7.315833,-1.16154 c -1.953361,-1.56196 0.322478,-1.52227 0.446169,-0.0252 z m 29.033903,-2.42211 c 0.45206,-0.66226 0.60518,0.43767 0,0 z m 2.85302,0.005 c 1.005,-1.06865 0.31688,0.68148 0,0 z m 0.24251,-0.78481 c -3.83817,-0.36682 1.699,-1.72273 0,0 z m -4.77828,-0.39496 c -4.65552,-3.43821 1.03827,-7.45957 -3.72952,-9.83417 -2.40911,-1.63098 -5.82698,-10.5548 -1.30747,-5.0388 2.92547,4.10299 7.97516,8.36962 8.71026,13.06993 -1.25517,0.55115 -3.11273,0.20257 -3.67327,1.80304 z m -23.00378,-1.19196 c -4.314258,-6.81745 10.93511,-6.9057 5.70196,-1.68066 -2.39696,0.33752 -4.37284,-0.10155 -5.70196,1.68066 z m 86.34342,-0.48128 c 0.36409,-0.66968 0.36409,0.66968 0,0 z m -91.930573,-2.51732 c 0.05002,-0.81704 0.635123,0.3346 0,0 z m 25.360153,-1.45017 c 0.0226,-1.79221 2.06866,-0.0994 0,0 z m 70.95708,-0.37579 c -0.17595,-1.24873 0.84947,0.69747 0,0 z m -72.84267,-0.78822 c -2.84281,-1.74769 -9.02985,-8.06768 -2.0278,-5.21489 1.78427,0.46191 3.40296,3.83575 2.0278,5.21489 z m -23.560343,-0.10955 c 0.101594,-1.34035 1.174429,1.30044 0,0 z m 16.096803,0.0503 c -0.0878,-1.18797 0.87012,0.44986 0,0 z M 109.886,141.2647 c -0.0285,-1.38748 1.18532,0.99419 0,0 z m 3.63446,-0.35372 c -3.46138,-2.87761 0.99298,-2.11615 1.11601,0.17514 z m -1.56879,0.17746 c -0.41484,-0.86128 0.98074,0.21835 0,0 z m -16.432023,-2.04309 c -0.385374,-2.00466 1.157474,1.36554 0,0 z m 6.534603,-0.58108 c -5.155101,-6.76513 6.11244,0.49925 0,0 z m -4.389773,-0.75286 c 0.414204,-0.69903 0.487867,0.73747 0,0 z"
       style="font-style:normal;font-weight:normal;font-size:121.38px;line-height:125%;font-family:sans-serif;letter-spacing:0px;word-spacing:0px;display:inline;fill:#99936b;fill-opacity:1;stroke:none;stroke-width:0.158501px;stroke-linecap:butt;stroke-linejoin:miter;stroke-opacity:1"
       inkscape:label="color4"
       sodipodi:nodetypes="ccccccccccccccccccccccccccccccccccccccccccccccccccccccccccccccccccccccccccccccccccccccccccccccsccccccccccccccccscccccccccccccccccccccccccccccccccccccccccccccccccccccccccccccccccccccccccccccccccccccccccccccccccccccccccccccccccccccccccccccccccccccccccccccccccccccccccccccccccccccccccccccccccccccccccccccccccccccccccccccccccccccccccccccccccccccccccccc" />
    <path
       inkscape:connector-curvature="0"
       id="nose"
       d="m 212.34,246.88353 c 0.42407,-1.91828 0.91084,0.54842 0,0 z m 12.33805,-6.8207 c -5.06867,-6.35557 -9.11897,-13.51923 -14.44353,-19.59554 -4.23155,-4.57014 -8.34677,-9.62024 -9.98543,-15.75452 6.74531,4.89487 10.53452,12.71083 16.6212,18.32788 4.47854,4.72411 10.61964,10.63654 8.41599,17.74414 -0.23591,0.52392 -1.08927,-0.46032 -0.60823,-0.72196 z m -6.04825,-1.23687 c -0.94953,-3.86855 0.58386,-5.01242 0,0 z m -93.59294,-13.86034 c 0.27147,-0.68451 -0.0317,1.0849 0,0 z m 4.39806,-12.2442 c -0.92436,-5.20621 -13.27941,-8.75768 -10.93448,-11.90515 5.79048,1.38878 9.63408,6.2812 10.93448,11.90515 z m -5.69697,-9.07418 c -0.36409,-0.66968 -0.36412,0.66968 0,0 z m 21.74193,6.39463 c 0.42779,-1.43454 0.69593,0.69349 0,0 z m 33.16396,-11.7832 c 5.797,-5.72257 0.48909,3.00494 0,0 z m -0.69855,-3.8e-4 c 0.32085,-0.65835 0.22687,0.61898 0,0 z m 13.60319,-0.87323 c -4.76103,0.53595 1.76704,-2.07429 0,0 z m -7.89715,-1.47552 c 0.12376,-0.89961 0.78058,0.17183 0,0 z m 1.33871,-0.35958 c -0.14582,-1.66545 1.24678,1.11314 0,0 z m -75.24609,-12.28497 c -4.09246,-2.48317 -3.26601,-10.12545 -5.09371,-12.82977 1.85715,-2.6867 8.68313,-2.72274 3.86711,1.04225 -3.34267,5.63807 7.14028,8.77499 7.96819,7.07965 -3.3755,-0.50758 -4.3711,3.4904 -6.74159,4.70787 z m 3.63861,-5.71748 c 0.16373,-3.66525 7.3776,-3.02772 2.14008,-0.84096 l -1.01077,0.58171 z m -1.37368,-0.8284 c 0.72696,-2.51845 1.50136,0.74253 0,0 z m 7.61309,-2.19634 c 0.51558,-1.81559 2.26398,0.005 0,0 z m 2.13472,-1.62464 c 0.32086,-0.65836 0.22686,0.61898 0,0 z m 1.18875,-0.93229 c 0.05,-0.81705 0.63512,0.33462 0,0 z m -24.650143,-1.26615 c -1.234369,-2.7956 6.606023,-1.36329 4.491103,-4.84083 2.86029,-1.45665 11.50061,-4.35931 5.18918,0.71416 -2.81664,2.05811 -5.90935,4.76389 -9.680283,4.12667 z m -0.74756,-3.00768 c -5.027405,-1.82358 -3.37063,-12.83407 1.643741,-6.53366 0.243562,2.55409 -3.748862,6.81638 1.544702,4.81554 2.40091,0.6948 -2.664799,2.65698 -3.188443,1.71812 z m 101.557783,-5.09588 c 2.2439,-3.98363 5.42172,-0.27049 0,0 z m 4.01777,-2.0815 c -7.65662,-5.53857 9.15936,-5.4631 2.73667,-1.66168 -1.4419,-0.6732 -1.06312,2.59306 -2.73667,1.66168 z m -3.42887,-1.27209 c 0.62023,-1.35678 0.71046,0.75043 0,0 z m -93.60013,-5.90048 c 2.76591,-5.29504 6.32945,2.09764 0,0 z m -8.892113,-1.6619 c -0.43199,-0.93535 0.613011,0.22261 0,0 z m 27.265983,-4.71001 c -1.02069,-4.30839 2.98794,-1.90715 0,0 z m -5.42388,-6.7933 c -1.39896,-2.38374 2.08834,0.53125 0,0 z m 4.24109,-0.50195 c -3.2931,-2.84944 0.45516,-3.38102 0,0 z m -1.83438,-3.16418 c -0.87775,-1.14562 1.03542,0.74953 0,0 z"
       style="font-style:normal;font-weight:normal;font-size:121.38px;line-height:125%;font-family:sans-serif;letter-spacing:0px;word-spacing:0px;display:inline;fill:#504c43;fill-opacity:1;stroke:none;stroke-width:0.158501px;stroke-linecap:butt;stroke-linejoin:miter;stroke-opacity:1"
       inkscape:label="nose"
       sodipodi:nodetypes="ccccccccccccccccccccccccccccccccccccccccccccccccccccccccccccccccccccccccc" />
  </g>
</svg>
