<?xml version="1.0" encoding="UTF-8" standalone="no"?>
<!-- Created with Inkscape (http://www.inkscape.org/) -->

<svg
   width="39.962173"
   height="34.87394"
   viewBox="0 0 37.464538 32.694319"
   id="svg2"
   version="1.1"
   inkscape:version="1.1 (c68e22c387, 2021-05-23)"
   sodipodi:docname="shiba-inu-isolated-no-shadow-trans-opt.svg"
   xmlns:inkscape="http://www.inkscape.org/namespaces/inkscape"
   xmlns:sodipodi="http://sodipodi.sourceforge.net/DTD/sodipodi-0.dtd"
   xmlns:xlink="http://www.w3.org/1999/xlink"
   xmlns="http://www.w3.org/2000/svg"
   xmlns:svg="http://www.w3.org/2000/svg"
   xmlns:rdf="http://www.w3.org/1999/02/22-rdf-syntax-ns#">
  <defs
     id="defs4">
    <linearGradient
       id="linearGradient8435">
      <stop
         offset="0"
         style="stop-color:#ffffff;stop-opacity:0"
         id="stop8437" />
      <stop
         offset=".5"
         style="stop-color:#ffffff;stop-opacity:.83922"
         id="stop8445" />
      <stop
         offset="1"
         style="stop-color:#d8d8d8;stop-opacity:0"
         id="stop8439" />
    </linearGradient>
    <linearGradient
       x1="658.5"
       y1="811.67999"
       x2="122.88"
       gradientUnits="userSpaceOnUse"
       y2="278.10001"
       id="linearGradient5143">
      <stop
         offset="0"
         style="stop-color:#000000"
         id="stop5139" />
      <stop
         offset="1"
         style="stop-color:#2c377b;stop-opacity:.37295"
         id="stop5141" />
    </linearGradient>
    <linearGradient
       x1="158.73"
       y1="340.60999"
       x2="660.94"
       gradientUnits="userSpaceOnUse"
       xlink:href="#linearGradient8435"
       y2="767.78998"
       id="linearGradient8443" />
    <linearGradient
       x1="535.26001"
       y1="683.77002"
       gradientTransform="translate(-13.77,-18.192)"
       x2="159.61"
       gradientUnits="userSpaceOnUse"
       xlink:href="#linearGradient8435"
       y2="354.45999"
       id="linearGradient9438" />
  </defs>
  <sodipodi:namedview
     id="base"
     pagecolor="#ffffff"
     bordercolor="#666666"
     borderopacity="1.0"
     inkscape:pageopacity="0.0"
     inkscape:pageshadow="2"
     inkscape:zoom="4.4335466"
     inkscape:cx="128.67802"
     inkscape:cy="20.074223"
     inkscape:document-units="px"
     inkscape:current-layer="layer1"
     showgrid="false"
     fit-margin-top="0"
     fit-margin-left="0"
     fit-margin-right="0"
     fit-margin-bottom="0"
     inkscape:window-width="3840"
     inkscape:window-height="2054"
     inkscape:window-x="3829"
     inkscape:window-y="-11"
     inkscape:window-maximized="1"
     inkscape:pagecheckerboard="0"
     height="380mm"
     units="px" />
  <metadata
     id="metadata7">
    <rdf:RDF />
  </metadata>
  <g
     inkscape:label="Layer 1"
     inkscape:groupmode="layer"
     id="layer1"
     style="display:inline"
     transform="translate(-730.56524,-637.53809)">
    <path
       inkscape:connector-curvature="0"
       id="path4231"
       d="m 735.55322,639.60922 c -1.35445,0.88625 -2.7089,1.77249 -4.06334,2.65873 -0.0502,1.33773 -0.10033,2.67545 -0.1505,4.01318 0.46633,0.13434 1.55715,-0.27997 1.2612,0.52409 0.0157,0.53661 -0.40711,1.37175 0.44065,1.34192 0.47638,0.24714 1.30695,0.1615 1.55069,0.62723 0.53725,2.2586 0.93052,4.58225 1.76798,6.74576 0.62786,1.00301 1.3498,1.96807 1.91986,2.99439 0.54559,2.48209 0.769,5.01405 1.08598,7.53152 -0.15848,0.57537 -0.22759,1.24309 -0.89012,1.4421 -0.40439,0.20917 -1.17924,0.37742 -1.17424,0.90044 0.17888,0.6752 1.0067,-0.0229 1.46238,0.31619 -0.60148,0.39703 -0.78679,0.75487 0.0382,0.93831 0.68887,0.46421 1.47139,0.0828 2.21921,0.0148 0.44283,-0.41893 0.85829,-0.85128 0.82418,-1.50405 0.44071,-1.90226 -0.16008,-3.88434 0.3673,-5.77651 0.38875,-2.13814 0.7775,-4.27627 1.16626,-6.41441 4.9663,-1.18723 9.93261,-2.37446 14.89892,-3.56169 0.36788,1.83937 0.73575,3.67874 1.10363,5.51812 1.24848,1.52574 2.60107,2.99853 3.78505,4.55709 0.27455,1.32831 0.83311,2.62576 0.64944,4.00387 0.1372,0.65454 -0.19047,1.11723 -0.75636,1.41598 -0.77732,0.0788 -0.6745,0.82109 -0.86891,0.65798 -0.17508,0.61709 0.93237,0.26799 1.31654,0.49038 0.47557,0.0616 1.30946,0.0687 1.52353,-0.32706 0.17365,-1.05774 0.34731,-2.11547 0.52097,-3.1732 0.81792,-0.48703 0.6147,0.44494 0.69128,0.98811 0.10592,0.88374 0.21138,1.83391 -0.38762,2.57832 -0.572,0.48343 -0.0978,1.12152 0.56192,0.93979 0.49669,-0.1018 1.37603,0.12236 1.3687,-0.60041 0.2601,-0.85 -0.18849,-1.73589 -0.2464,-2.602 -0.30725,-1.42523 -0.30764,-2.94193 -1.02579,-4.24469 -1.35251,-3.11916 -2.64709,-6.26695 -4.31621,-9.23604 -1.2344,-2.19386 -2.26445,-4.559 -3.89462,-6.49175 -3.12,0.1819 -6.33899,-0.11875 -9.48988,-0.26249 -2.21355,-0.1309 -4.4263,-0.27541 -6.63815,-0.43243 -1.65713,-1.87892 -3.25687,-3.82923 -4.94962,-5.66386 -0.55737,-0.30257 -1.11475,-0.60515 -1.67212,-0.90772 z"
       style="font-style:normal;font-weight:normal;font-size:121.38px;line-height:125%;font-family:sans-serif;letter-spacing:0px;word-spacing:0px;display:inline;fill:#f0e4d1;fill-opacity:1;fill-rule:evenodd;stroke:none;stroke-width:0.04225px;stroke-linecap:butt;stroke-linejoin:miter;stroke-opacity:1" />
    <path
       inkscape:connector-curvature="0"
       id="path4227"
       d="m 766.22272,670.17642 c 0.22549,-0.94279 0.59736,-0.82793 1.01736,-0.44094 1.49519,-0.0972 -0.71907,0.71251 -1.01736,0.44094 z m -0.37038,-0.16081 c -0.67349,-1.05113 1.13974,-2.31746 0.27566,-3.58801 -0.49003,-1.34352 -0.33677,1.69811 -0.99372,2.07869 -1.56295,1.37088 0.83202,-1.44757 -0.0287,-2.27543 -0.28246,-0.94074 -1.54817,-1.62901 -1.12519,-0.13029 -0.5012,0.37167 -0.0454,-2.5733 -1.03656,-3.18275 -1.38452,-1.62458 -3.05671,-3.0699 -3.86683,-5.11485 -0.50422,-2.48548 -3.40493,-3.00478 -5.47635,-2.22416 -2.30817,0.64064 -4.56081,1.47814 -6.71437,2.51407 -1.68579,0.13664 -3.63952,0.77595 -3.37345,2.87316 -0.0752,1.86814 -1.24629,3.88002 -0.72663,5.62333 -0.6569,1.6057 -1.13965,3.84711 -3.43054,3.33497 -1.08028,0.16318 -1.65754,-1.23011 -0.35245,-1.42651 -1.19306,0.85079 0.13635,1.4189 0.92926,0.89773 1.15253,1.07551 2.65388,-1.89624 1.49098,-1.71009 -0.3829,1.21654 -1.32749,-1.14336 -1.40196,0.51529 -1.09398,0.86582 -0.25989,-0.40864 -0.0891,-0.91951 1.03745,-1.26156 0.42746,-3.25782 0.6018,-4.95233 0.14036,-0.98842 -0.70529,-4.55856 -1.85409,-3.08937 -0.0748,1.54505 0.39474,3.04819 0.73135,4.55263 0.27337,0.60581 1.17183,1.99447 -0.21507,2.25537 -0.0739,-1.85341 -0.53342,-3.67725 -0.58109,-5.55639 0.20608,-2.35854 -1.7621,-3.80973 -2.73832,-5.70044 -0.49436,-1.38984 -0.80762,-3.16331 -1.78773,-4.01079 0.27694,-1.67645 -1.00028,-2.7139 -2.52779,-2.70667 -0.51117,-1.15216 -1.67794,-2.72085 -0.41777,-3.96867 -0.56672,-1.49427 0.46419,-3.58534 -0.39755,-5.21223 -0.31265,-2.15546 1.71198,-0.69816 2.56801,-0.10598 1.40697,0.83127 2.98911,-0.46723 3.67908,-1.10293 1.25415,1.07821 2.13967,2.51803 3.19239,3.78148 0.89292,1.36586 1.90858,2.98017 3.73754,2.98013 1.31489,-0.01 3.00592,-0.35769 3.97663,0.73769 1.48932,0.61739 3.2561,0.22074 4.84452,0.1463 1.21482,-0.20191 3.35455,-0.20545 2.48353,-1.95667 0.14653,-2.26744 2.41545,-3.98002 4.58367,-4.04329 2.45694,0.0609 3.74846,2.69742 4.06898,4.82228 0.55498,1.59341 -0.8649,3.46706 0.50972,4.74391 1.42103,1.80069 1.91658,4.1955 1.48099,6.4369 -0.19806,2.06758 -0.15828,4.21942 0.44743,6.21413 1.15629,1.21371 1.44706,2.71758 1.47285,4.34168 0.0258,0.97638 0.73141,3.50674 -0.41514,3.45592 0.0186,-1.00672 -0.80729,-1.94903 -1.22597,-0.54115 -0.20375,0.33325 -0.64109,0.82093 -0.29798,1.21285 z m 1.28932,-2.09275 c -0.1411,-0.23107 -0.0569,0.30045 0,0 z m -0.42251,-0.57592 c -0.17116,-0.11806 -0.10861,0.22672 0,0 z m -0.78162,-2.61146 c -0.13336,-0.18407 -0.065,0.17448 0,0 z m -0.19012,-0.27213 c -0.11737,-1.23395 -1.09339,-0.26177 0,0 z m -4.28838,-5.05137 c -0.0556,-0.1602 -0.0948,0.16361 0,0 z m -0.14787,-0.4309 c -0.4069,-0.98316 -0.65988,0.0481 0,0 z m -0.54974,-0.65586 c 0.0361,-0.49899 -0.66461,-0.1269 0,0 z m -0.29526,-0.6389 c -0.61258,-1.16094 -0.56742,0.40026 0,0 z m -20.5957,-0.58753 c 0.3834,-1.44279 2.06239,-4.11538 -0.4148,-4.48902 -0.82267,-0.24632 -0.92843,10e-4 -0.42757,-0.60931 -0.59996,-0.90951 1.56849,-2.36629 -0.13858,-1.83365 -0.57306,0.50046 -1.43682,1.34682 -2.24714,1.16386 0.95498,-1.25337 -2.65449,-0.0102 -0.70042,0.31787 -0.46767,0.80894 0.64468,-0.0196 0.68542,0.57976 1.27528,0.95365 -0.0624,0.75176 -0.51637,0.25853 -0.0677,0.72821 -0.36225,2.37763 0.64302,2.31196 -0.20892,-0.99571 -0.0517,-1.41196 0.60326,-1.0809 -0.49955,1.72981 1.80367,1.80514 2.41612,3.1883 -0.0288,0.0394 -0.14467,0.65762 0.0971,0.1926 z m -0.1913,-0.59361 c 0.14058,-0.52882 0.35097,0.27199 0,0 z m -1.95237,-3.00722 c 0.0974,-0.58236 0.36005,0.50418 0,0 z m -1.46973,-0.0327 c 0.17066,-0.94992 1.09747,0.33307 0,0 z m 2.36585,-0.17956 c -0.7337,-0.28862 -1.6305,-1.40994 -0.32306,-0.55844 0.28505,-0.0119 0.60167,0.23605 0.32306,0.55844 z m -0.33905,-1.12238 c -0.19221,-0.68264 0.3141,0.41802 0,0 z m -0.78058,-0.27187 c 0.0408,-0.38795 0.39086,0.27426 0,0 z m -0.52812,-0.16245 c 0.2749,-0.60947 0.43421,0.21745 0,0 z m 0.95651,-0.54286 c -0.10204,-0.22217 0.25535,0.0403 0,0 z m 21.76604,5.89101 c -0.16441,-0.29832 -0.23463,0.32628 0,0 z m -21.74024,-1.53793 c -0.20347,-0.10487 -0.0699,0.0874 0,0 z m -0.81331,-1.10784 c -0.15915,-0.2298 -0.17765,0.14172 0,0 z m -1.18588,-1.39514 c 0.31232,-1.16545 -0.79804,0.44558 0,0 z m -0.16612,-1.14978 c -0.15874,-0.0815 -0.0395,0.20859 0,0 z m 1.27198,-2.00083 c -0.20151,-0.23884 -0.2079,0.31532 0,0 z m -1.33374,-1.0388 c 0.49232,-0.6028 -1.13931,-0.58932 0.12112,-0.93271 0.94064,-0.78475 2.33363,-1.63018 2.57414,-2.83538 -1.06994,-0.11244 0.68055,-0.77257 -0.47914,-1.25565 -1.02942,-0.35314 -2.32334,-0.94222 -2.91839,0.41013 -1.69154,-1.2309 -1.65226,2.67186 0.13046,1.21583 0.76107,-0.11792 1.82381,0.2257 0.60682,0.68657 0.44084,0.76086 -1.90575,3.0096 -0.035,2.71121 z m 1.22363,-3.27913 c -0.0503,-0.46881 1.12174,-0.0185 0,0 z m -1.28862,2.7325 c -0.0556,-0.1602 -0.0948,0.16361 0,0 z m -4.02344,-1.47083 c -0.16556,-0.22748 -0.13292,0.23166 0,0 z m 1.34056,-0.68392 c 0.78839,-0.73985 -1.59961,-1.24316 -0.34079,-0.22713 l 0.22363,0.10902 z m -0.047,-0.2189 c 0.0303,-0.31692 0.32161,0.19256 0,0 z m 0.047,-0.75285 c -0.145,-0.17575 -0.10927,0.1723 0,0 z m 2.16619,-1.76658 c -0.14711,-0.20332 -0.13177,0.24511 0,0 z m -2.52531,-0.11872 c -0.22063,-0.23876 -0.0824,0.4057 0,0 z m 28.77225,-2.89412 c -0.19209,-0.13219 -0.0369,0.33385 0,0 z m 2.29055,28.68751 c -0.25891,-0.36232 0.90991,0.21838 0,0 z m -1.10245,-0.0792 c -2.3449,-0.44639 2.76071,-2.34482 0.35917,-0.8372 -1.53758,0.97731 1.49169,-0.0293 0.13226,0.92767 l -0.2309,0.009 z m -25.06992,-0.34128 c 0.11779,-0.52995 0.8708,0.23433 0,0 z m 0.96119,-0.0389 c 0.18448,-0.18653 0.11904,0.18115 0,0 z m 2.29116,-0.25907 c -0.37283,-0.47922 0.42116,0.0657 0,0 z m -3.57978,-0.13351 c 0.42266,-0.7667 0.60765,-0.17408 0,0 z m 1.36801,-0.58744 c 0.29812,-0.8339 1.03637,-1.6593 0.43449,-0.32173 -0.0377,0.18806 -0.21889,0.39264 -0.43449,0.32173 z"
       style="font-style:normal;font-weight:normal;font-size:121.38px;line-height:125%;font-family:sans-serif;letter-spacing:0px;word-spacing:0px;display:inline;fill:#e4cca9;fill-opacity:1;stroke:none;stroke-width:0.04225px;stroke-linecap:butt;stroke-linejoin:miter;stroke-opacity:1" />
    <path
       inkscape:connector-curvature="0"
       id="path4225"
       d="m 766.57437,670.16399 c 0.0577,-0.8185 1.44771,0.26748 0,0 z m -27.41465,-0.34278 c 0.37825,-0.53515 0.98504,-0.0299 0,0 z m -0.30444,-0.10023 c 0.0556,-0.1602 0.0948,0.16362 0,0 z m 1.18643,7.5e-4 c 0.54663,-0.38954 0.23357,0.19974 0,0 z m -1.91612,-0.21996 c 0.13293,-0.23166 0.16556,0.22748 0,0 z m 0.11707,-0.34917 c 0.42911,-0.62456 0.51313,-0.12166 0,0 z m 3.64046,-0.25468 c 0.19396,-0.50881 0.0537,0.32778 0,0 z m 20.93847,0.0724 c 0.10154,-0.69757 0.76345,0.34402 0,0 z m 1.7668,-0.0475 c 0.24739,-0.51795 0.53646,0.19582 0,0 z m -26.82105,-0.32836 c 0.20348,-0.10487 0.0699,0.0874 0,0 z m 24.21997,-0.0248 c 0.62384,-1.01148 1.11372,-0.42637 0,0 z m 5.82662,-0.10486 c -0.61585,-2.04729 -1.43988,-4.03115 -1.83839,-6.14044 -0.59072,-1.44477 -2.92543,-0.0721 -3.39688,-1.97507 -0.53795,-1.67495 -1.68873,-2.91506 -3.12636,-3.91577 -0.74786,-0.22182 -0.98665,-1.4318 -0.008,-0.71831 -0.21091,-0.88244 -1.8833,-0.82064 -1.47021,-0.26816 -0.51985,0.6729 -2.28607,-1.01857 -3.40222,-0.22429 -1.65043,0.60379 -3.41433,0.85493 -4.99811,1.48988 -0.96385,0.47503 -2.29927,1.60398 -3.28724,1.15959 0.78563,-0.93401 2.96929,-0.92831 2.50796,-2.25875 0.80425,-0.98785 -0.56793,-0.74601 -0.93418,-0.26458 -0.60507,0.0177 0.61026,-0.46115 -0.46065,-0.46495 -0.97123,-0.18178 -0.89772,0.35031 -0.50875,0.7581 -1.08686,0.18583 -3.34404,1.28723 -1.9685,2.43966 0.59288,-0.24292 1.91344,-0.28777 0.63651,0.14224 -0.76771,0.2549 -2.21771,1.31244 -1.46228,-0.22573 -0.22729,-1.71184 -0.95439,1.08363 -1.59425,1.31935 -0.82275,0.60573 -0.93596,1.62241 -1.62736,2.13626 -0.24639,-1.28165 -0.0856,-2.71851 -0.25146,-3.94651 0.40678,-0.63661 0.9543,-1.12972 0.6101,-2.12567 0.25218,-1.35729 0.1373,-2.91212 -0.27315,-4.20296 -0.81327,0.0439 -1.6896,0.83311 -0.8451,-0.27772 0.37908,-0.98491 1.38667,-3.41856 -0.57967,-2.14065 -0.56884,0.91985 -2.70089,-0.0189 -2.53651,1.34362 1.56914,0.35655 -0.77226,0.8695 -1.42809,0.694 -0.8047,0.10425 -0.003,1.96834 -0.86646,0.64686 -1.10263,-0.64445 -0.27419,-3.52795 -2.48997,-3.23368 -1.33724,-0.43099 -0.3356,-0.54797 0.32935,-0.77519 0.41191,-0.78761 -1.04036,0.51192 -1.34821,-0.48214 -1.0883,-0.43328 -0.50626,-2.82437 -0.18059,-2.28292 -0.10437,0.63592 1.25143,-0.0206 1.04909,1.15395 0.067,2.50665 3.06824,-0.99014 3.09075,0.40243 -0.68646,0.79907 -0.42304,0.85839 0.40929,0.58328 -0.80808,0.86334 -1.73338,3.52207 0.48447,2.40852 1.69387,-0.251 0.65841,-1.90624 2.01869,-2.80159 1.62566,-1.55015 1.12106,-3.98077 -0.29073,-5.3447 -1.08154,-0.93724 -0.61575,0.95699 0.18893,1.1944 0.33946,1.16377 -0.7026,-0.63962 -1.15722,0.38306 -0.75337,-5e-4 -1.80481,-0.0523 -2.29184,-0.97863 -0.90259,0.30064 -2.55509,1.45945 -2.38928,-0.43529 0.90392,-1.02322 -0.34642,-1.31582 -0.8524,-1.70981 -0.49711,1.15844 -0.90468,-3.23108 0.7288,-1.47079 1.03536,0.84407 3.17999,1.70553 4.07948,0.39363 1.13033,-2.15499 2.18718,1.1691 3.14869,1.86977 1.2833,1.35732 1.94441,3.57259 3.92725,4.0813 1.56827,0.33515 3.53156,-0.44571 4.77961,0.84745 1.53809,0.716 3.32617,0.13981 4.95008,0.0847 1.60609,0.1451 3.11058,-0.54072 2.48099,-2.30592 0.0876,-0.84254 1.10233,-2.60741 1.27034,-0.93955 0.11948,0.40201 1.00546,0.74683 0.69458,-0.0208 0.27895,0.40469 1.04702,1.18297 0.65646,0.11844 0.38162,0.90844 0.23769,-1.07157 0.74127,0.13331 0.005,-0.93521 0.68864,0.38788 1.18151,-0.27121 -0.16585,1.30579 0.72496,-0.34716 0.89305,0.7187 0.0961,-1.14609 1.04823,0.62438 1.14717,0.1583 -0.006,1.37506 0.75188,0.67672 1.19151,-0.003 0.62441,0.33668 -0.11047,1.14601 0.54656,0.70902 0.54277,1.73049 -0.23655,3.89488 0.19565,5.35593 -0.82898,0.78479 1.19048,0.65342 -0.19341,1.09671 -0.49555,0.64156 -0.20444,1.77191 -0.58206,2.40329 0.58212,0.29559 -1.12357,0.0576 0.17637,0.48544 1.4883,0.77275 -1.9838,0.052 -0.71674,0.58726 0.64519,0.12364 1.58536,0.45953 1.00994,1.28116 0.76057,0.79156 1.3656,1.36275 1.86663,0.42911 0.80061,1.12716 -0.16093,3.03774 0.39939,4.46548 0.33035,1.32947 0.0331,3.27443 1.58993,3.5831 0.0103,1.71683 0.68028,3.43994 0.37623,5.14694 z m 0.11621,-0.40214 c -0.0874,0.0699 0.10486,0.20347 0,0 z m -1.71798,-5.79632 c -0.0777,-0.16026 -0.12587,0.0937 0,0 z m -3.86588,-3.10787 c -0.0556,-0.16021 -0.0948,0.16361 0,0 z m 0.67248,-0.91894 c 0.60642,-0.14314 -0.39105,-0.0651 0,0 z m -0.95154,-0.35685 c -0.43187,-0.32303 0.11308,0.44316 0,0 z m 0.84944,-0.034 c -0.30194,-0.17807 0.072,0.15551 0,0 z m 0.50699,-0.0423 c -0.0948,-0.16362 -0.0556,0.1602 0,0 z m -0.76049,-0.0422 c -0.10197,-0.16592 -0.10196,0.16592 0,0 z m -0.24349,-0.24294 c -0.31159,-1.08093 -0.73715,0.31753 0,0 z m -0.64376,-0.0228 c -0.29344,-0.81642 -0.74328,-0.005 0,0 z m 0.97175,-0.0511 c -0.11671,-0.23276 -0.10743,0.23283 0,0 z m 0.4061,-0.0394 c -0.31244,-0.88403 -1.13796,0.071 0,0 z m 1.34199,-0.57455 c -0.17002,-0.31432 -0.73463,0.22096 0,0 z m -1.41978,-0.0911 c -0.13177,-0.24511 -0.14711,0.20333 0,0 z m 1.65658,-0.22904 c 0.30235,-0.25673 0.0386,-0.19105 -0.24092,0.0434 z m -15.43852,-0.16577 c -0.5869,-0.45841 0.25328,0.51908 0,0 z m 16.14618,-0.003 -0.0874,0.01 z m -2.4306,-0.20075 c -0.55594,-0.72352 -1.00164,-0.0223 0,0 z m -2.96372,-0.0484 c -0.14748,-0.16029 -0.11934,0.23002 0,0 z m -0.21348,-0.089 c -0.17633,-0.22261 -0.10356,0.31891 0,0 z m -10.35125,-0.18273 c -0.2105,-0.44691 -0.36983,0.0877 0,0 z m 11.492,-0.29158 c -0.0549,-0.23456 -0.16525,0.14294 0,0 z m -1.24202,-0.3278 c -0.3086,-0.0484 0.007,0.69123 0,0 z m -1.98719,0.14703 c 0.21494,-0.9582 2.05115,-0.0573 1.7288,-1.5741 -0.62044,-0.59221 -1.89467,-0.39157 -1.5186,0.42103 -0.90813,0.23406 -1.23528,0.6119 -0.2102,1.15307 z m 0.26378,-0.74239 c 0.22945,-0.0879 -0.0191,0.0968 0,0 z m 0.69312,-0.31566 c 0.23072,-0.32136 0.14259,0.19757 0,0 z m -0.17179,-0.26175 c -0.2609,-0.3649 0.79848,0.21337 0,0 z m 3.67778,1.23156 c -0.32099,-0.111 0.14249,0.27712 0,0 z m 0.44575,-0.1103 c -0.27916,-0.5963 -0.6755,0.46731 0,0 z m -3.35258,-0.057 c 0.80702,-0.34132 -0.47423,-0.11313 0,0 z m -13.4101,-0.0368 c -0.13527,-0.2722 -0.20604,0.17994 0,0 z m 3.42225,10e-4 c -0.10196,-0.16592 -0.10197,0.16592 0,0 z m -3.67575,-0.11892 c -0.34547,-0.41632 -0.35294,0.0911 0,0 z m 0.53799,-0.0374 c -0.43992,-0.53767 -0.68072,0.11277 0,0 z m 13.48901,-0.0126 c -0.0948,-0.16361 -0.0556,0.1602 0,0 z m -2.95431,-0.23649 c 1.01098,-0.70093 -0.82393,-0.55675 0,0 z m 0.006,-0.27843 c 0.13178,-0.24511 0.14711,0.20333 0,0 z m -10.25531,0.21917 c 1.10357,0.0414 0.14044,-0.49325 -0.24641,-0.13573 z m 0.10563,-0.15305 c 0.1152,-0.14382 0.13152,0.26381 0,0 z m -1.05625,0.15757 c -0.11101,-0.23783 -0.15065,0.14551 0,0 z m 0.0967,-0.13594 c -0.37954,-0.21008 0.0462,0.22567 0,0 z m 10.54632,-0.13845 c 0.0674,-1.04924 -0.80893,0.43881 0,0 z m 5.91894,0.0626 c -0.20809,-0.44304 -0.31526,0.28681 0,0 z m -16.05499,-0.0884 c 0.55278,-0.6899 3.22931,-0.12529 1.24244,-0.78571 -0.83938,-0.46626 -1.3123,-0.35605 -0.82164,-0.0643 -0.75219,-0.24903 -1.50295,0.86792 -0.4208,0.84999 z m 1.07986,-0.61397 c -0.14361,-0.26562 0.47446,0.30705 0,0 z m 5.02758,0.36287 c -0.66782,-1.48434 -0.61107,0.72137 0,0 z m 5.34648,0.11988 c 0.31768,-0.50184 -0.58106,0.37215 0,0 z m -3.2363,-0.0378 c -0.0556,-0.1602 -0.0948,0.16361 0,0 z m 0.80919,-0.15224 c 0.83443,0.68215 1.73617,-1.42737 0.712,-0.56293 0.20851,0.4041 -1.66099,0.32849 -0.76989,0.61666 z m -7.14669,0.0677 c -0.20397,-0.18821 -0.15559,0.18202 0,0 z m 14.80355,-0.058 c 0.1695,-0.47592 -0.57655,0.46201 0,0 z m 0.42758,-0.0265 c 0.11465,-0.30947 -0.31526,0.36169 0,0 z m -10.8241,-0.0454 c -0.13344,-0.18474 -0.13344,0.18474 0,0 z m 4.88797,-0.0391 c -0.23498,-0.18111 -0.27989,0.19048 0,0 z m 5.13338,0 c -0.10196,-0.16591 -0.10196,0.16592 0,0 z m -5.91501,-0.0422 c -0.10927,-0.1723 -0.145,0.17576 0,0 z m 0.42251,0 c -0.15281,-0.17808 -0.15281,0.17808 0,0 z m 4.8527,-0.10894 c 0.30115,-0.40326 -0.83482,0.22082 0,0 z m -13.87287,-0.31323 c -0.71588,-0.40266 -0.35225,0.16636 0,0 z m 0.80755,-0.16081 c -0.7605,-0.004 0.108,0.25434 0,0 z m 9.52237,0.0934 c 1.17461,-0.65162 -1.89643,0.15921 0,0 z m -10.23908,-0.0524 c 0.45922,-0.93158 -0.73759,-0.13603 0,0 z m 8.9082,-0.0495 c -0.0556,-0.1602 -0.0948,0.16361 0,0 z m 5.62981,-0.0771 c 0.2871,-0.43748 -1.01456,0.35877 0,0 z m 1.15132,0.0417 c -0.35398,-0.17944 -0.30913,0.13684 0,0 z m -14.54317,-0.0844 c -0.18795,-0.21552 -0.21852,0.31682 0,0 z m 6.28503,-0.01 c 0.0311,-0.23203 -0.1898,0.2014 0,0 z m -8.59961,-0.12585 c 0.97206,-0.10308 -0.5503,-0.79843 0,0 z m 14.68206,-0.0829 c -0.11761,-0.38722 -0.2216,0.22815 0,0 z m 0.65468,-0.0419 c -0.1592,-0.3141 -0.10468,0.2965 0,0 z m -4.49962,0 c -0.15559,-0.18201 -0.20397,0.18821 0,0 z m -7.25367,-0.17519 c 1.90919,-0.3163 -1.04579,-0.0246 0,0 z m -3.23175,-0.22208 c -0.0786,-0.57632 -0.35684,0.16158 0,0 z m 10.56992,-0.0223 c -0.16055,-0.28391 -0.2001,0.29576 0,0 z m -10.37237,0.0227 c -0.14189,-0.15641 -0.16433,0.0955 0,0 z m 11.32151,-1.07911 c 0.27826,-0.93868 -0.76408,0.33923 0,0 z m 0.71974,-0.16974 c 0.063,-0.27718 -0.65018,0.22041 0,0 z m -18.55568,-0.29515 c -0.1569,-0.1624 -0.0984,0.25811 0,0 z m 18.13318,-0.0501 c -0.26448,-0.23545 -0.15457,0.40354 0,0 z m -17.8295,0.0499 c -0.1439,-0.29064 -0.32183,0.18222 0,0 z m 18.6745,-0.12924 c -0.10928,-0.1723 -0.145,0.17575 0,0 z m -0.38025,-0.17219 c -0.18287,-0.0904 -0.12523,0.21594 0,0 z m -1.06334,-0.0546 c -0.11299,-0.39495 -0.274,0.32192 0,0 z m -22.68013,-0.70432 c 0.39938,-0.84169 -0.6048,0.75639 0,0 z m 5.41884,-1.54649 c 1.4562,-1.20503 -1.05171,0.0581 0,0 z m 3.57938,-0.2264 c -0.1528,-0.17808 -0.1528,0.17808 0,0 z m -11.7455,-0.0422 c -0.10197,-0.16592 -0.10197,0.16592 0,0 z m 0.35564,-0.0464 c 0.90143,-0.51328 0.49228,-0.45311 -0.0933,0.021 z m 11.99048,-0.20161 c 0.17298,-0.57053 -0.54306,0.47239 0,0 z m -7.40287,-0.30121 c -0.2625,-0.19359 -0.20061,0.18762 0,0 z m 7.36907,-0.0271 c -0.0156,-0.17369 -0.17766,0.28557 0,0 z m -3.71327,-0.0409 c 1.91362,-0.32895 -0.92255,-0.098 0,0 z m 3.54609,-0.0646 c 0.77696,-1.44569 -0.57532,-0.47171 -0.27245,0.0831 z m -3.08103,-0.35812 c 0.30774,-0.38815 -0.56584,0.18144 0,0 z m -10.26735,-0.11732 c 0.16391,-0.582 -0.55267,0.19775 0,0 z m 9.8548,-0.35578 c -0.10409,-0.19873 -0.10968,0.25473 0,0 z m 0.49357,0.0276 c 0.8896,-0.11804 -0.42404,-1.07396 0,0 z m 2.99861,-0.10592 c -0.0267,-0.44411 -0.24237,0.40834 0,0 z m -0.0381,-0.31298 c 0.71781,-1.33302 -1.48391,-0.21483 0,0 z m -2.51488,-0.25032 c -0.0556,-0.1602 -0.0948,0.16361 0,0 z m 0.0792,-0.78163 c -0.36935,-0.66778 -0.88921,1.64617 -0.10805,0.20163 0.036,-0.0672 0.072,-0.13442 0.10805,-0.20163 z m 0.34332,-0.36021 c -0.27318,-0.0988 -0.21939,0.35783 0,0 z m -0.32985,-0.2841 c 0.37119,-0.58737 -0.52041,0.0909 0,0 z m 20.07208,-0.15172 c 1.30514,-1.50128 -0.87476,-0.0607 0,0 z m 0.76406,-0.0155 c 0.57912,-0.90836 -0.51786,0.1815 0,0 z m -6.26805,-0.93934 c -0.0622,-0.22672 -0.138,0.16156 0,0 z m 0.64635,-0.15593 c -0.004,-0.4892 -0.35517,0.12229 0,0 z m -0.8576,-0.22682 c -0.15279,-0.17808 -0.1528,0.17808 0,0 z m 1.48336,-0.15568 c -0.29805,-0.59857 0.006,0.45863 0,0 z m -21.64707,-0.72926 c 0.77316,-1.08553 -1.01115,0.0907 0,0 z m 0.34847,0.0399 c -0.15461,-0.19517 -0.096,0.12662 0,0 z m 19.1815,-0.0239 c -0.0729,-0.54391 -0.28354,0.11886 0,0 z m -19.73632,-0.33541 c -0.3985,-0.77868 -0.52276,0.42576 0,0 z m -0.66009,-0.0421 c -0.0569,-0.37971 -0.21763,0.40759 0,0 z m 0.64089,-0.47998 c -0.0462,-0.30538 -0.22255,0.25142 0,0 z m -0.18648,-0.19085 c -0.19139,-0.46151 -0.3008,0.30254 0,0 z m 0.66543,-0.18904 c -0.40389,-0.94961 -1.10924,0.15697 0,0 z m 1.43107,-0.12244 c 0.49856,-1.07946 -0.51221,0.39782 0,0 z m -6.14039,-0.91272 c 0.29148,-0.90167 -0.96406,-0.0125 0,0 z m -1.12203,-0.98597 c -0.13417,-0.30872 -0.20144,0.22563 0,0 z m 0.64517,-0.22062 c -0.49478,-0.65361 -0.41559,0.11071 0,0 z m 33.293,29.80993 c 0.23633,-0.93811 0.11695,0.29549 0.0649,0.0721 z m -25.30294,-0.60128 c -0.382,-0.70608 0.45056,0.18617 0,0 z m 25.6277,-0.95772 c 0.0756,-1.36642 -2.22143,-2.61113 -1.63686,-0.71508 0.22768,-1.95949 -0.84345,-3.68929 -2.3175,-4.89533 -1.03151,-1.30399 -2.43416,-2.72759 -2.56553,-4.43452 1.52128,1.17832 2.38719,2.97813 3.80497,4.27284 1.16331,1.412 2.76733,2.73759 3.08488,4.62167 0.0159,0.36252 0.11296,1.065 -0.36996,1.15042 z m -26.23458,-1.36588 c -0.17712,-1.1184 0.2615,-1.43474 0,0 z m -0.23885,-2.26762 c -0.27034,-0.56302 -0.23555,-2.90437 -0.0286,-1.01418 -0.0618,0.231 0.24239,0.96105 0.0286,1.01418 z m 26.0413,-1.302 c -0.0105,-0.24302 0.21214,0.19003 0,0 z m -0.54925,-0.12675 c 0.0622,-0.24472 0.26412,0.22875 0,0 z m -24.32712,-2.078 c -0.52183,-1.6468 -2.4805,-2.09005 -3.30546,-3.54218 -0.65776,-0.54287 -0.91392,-1.46572 0.1493,-0.65239 1.32691,0.66763 2.5808,1.56593 3.08801,3.2512 0.0749,0.11354 0.47289,1.45184 0.0681,0.94337 z m 17.95208,-3.74488 c -0.0739,-0.94988 0.76572,-0.13981 0,0 z m -10.62884,-0.19845 c -0.34452,-0.2455 0.84992,0.28406 0,0 z m 0.38025,-0.1021 c 0.10927,-0.17231 0.145,0.17575 0,0 z m 17.88231,-0.78849 c -0.14849,-0.28529 0.33717,0.0599 0,0 z m -1.63719,-0.14101 c 0.18574,-0.19124 0.17383,0.14711 0,0 z m 1.72998,-0.13044 c -0.0339,-0.32426 0.17165,0.13024 0,0 z m -1.96235,-0.84131 c 0.0948,-0.16362 0.0556,0.16019 0,0 z m -0.30368,-1.59212 c 0.22945,-0.0879 -0.019,0.0968 0,0 z m -25.10969,-2.63275 c 0.13336,-0.18407 0.065,0.17447 0,0 z m 25.54013,-0.14538 c 0.0622,-0.22672 0.138,0.16156 0,0 z m -27.14213,-0.86295 c -0.0186,-0.23809 -0.13308,-0.0912 0,0 z m -5.03872,-3.91962 c 0.8101,-1.2074 2.34499,-2.17584 3.76878,-1.74134 -0.97532,0.91708 -2.63561,1.13796 -3.76878,1.74134 z m -0.45809,-0.94737 c -0.0653,-0.37389 0.24644,0.2199 0,0 z m 0.31608,-0.13474 c -1.1993,-0.60324 -0.48241,-2.76291 -0.13015,-3.25709 0.55977,0.43624 0.48826,1.18938 -0.0708,1.91846 -0.16329,0.35955 0.7941,1.27839 0.20096,1.33863 z m 30.718,0.0305 c 0.0294,-0.50065 0.24901,0.14968 0,0 z m -24.033,-0.38964 c 0.24585,-0.35492 0.16673,0.26577 0,0 z m 25.01467,-0.23237 c 0.17835,-0.2201 0.17835,0.2201 0,0 z m -25.10706,-0.0238 c -0.63159,-0.26724 0.6884,-0.0134 0,0 z m -0.94007,-0.26473 c -0.23032,-0.54597 0.42767,0.25468 0,0 z m 20.42284,-0.34908 c -0.25456,-0.31639 0.0893,0.23033 0,0 z m 5.29178,-0.30039 c -0.0402,-0.38313 0.24605,0.20367 0,0 z m -5.77967,-0.0597 c -0.0186,-0.23809 -0.13308,-0.0912 0,0 z m 0.3167,-0.0303 c 0.0359,-0.15924 0.0338,0.20274 0,0 z m -1.12803,-0.8817 c -0.0545,-0.40225 0.26416,0.17615 0,0 z m 0.54688,-0.0264 c -0.71652,-0.83181 1.66878,-1.03171 0.2147,-0.14753 z m 4.17072,-0.97692 c -0.53265,-0.59453 0.33247,-0.29441 0,0 z M 759.29,639.63881 c -10e-4,-0.63032 0.30426,0.30486 0,0 z m -1.02133,-0.0183 c 0.28879,-0.38703 0.25222,0.20736 0,0 z m 0.54706,-0.0477 c -0.0707,-0.2653 0.31193,0.27106 0,0 z m 1.37305,-0.0222 c 0.0146,-0.33268 0.25263,0.18843 0,0 z m -0.25123,-0.0386 c 0.0556,-0.1602 0.0948,0.16361 0,0 z"
       style="font-style:normal;font-weight:normal;font-size:121.38px;line-height:125%;font-family:sans-serif;letter-spacing:0px;word-spacing:0px;display:inline;fill:#ca9962;fill-opacity:1;stroke:none;stroke-width:0.04225px;stroke-linecap:butt;stroke-linejoin:miter;stroke-opacity:1" />
    <path
       inkscape:connector-curvature="0"
       id="path4223"
       d="m 766.67691,669.95336 c 0.10475,-0.22262 0.10475,0.22262 0,0 z m -3.7761,-1.02281 c -0.0274,-0.25125 0.37673,0.041 0,0 z m -0.7869,-0.54303 c 0.44638,-0.55277 0.30849,0.0838 0,0 z m 3.40435,-1.54322 c -0.53534,-1.61178 -2.11369,-2.19549 -2.5019,-3.92006 -0.8659,-1.28251 -2.24697,-2.13645 -2.96408,-3.54801 -0.57558,-0.62998 -1.93954,-3.5284 -0.37908,-1.69405 1.0748,1.09848 1.85736,2.44546 3.00535,3.49567 1.11462,1.31004 2.38137,2.49061 3.06718,4.09287 0.17078,0.35048 -0.0242,1.52636 -0.22747,1.57358 z m -1.6855,-0.63233 c -0.2839,-1.72776 0.20016,-0.78774 0,0 z m -24.92312,-3.35661 c -0.21519,-0.72064 0.14401,-0.5176 0.0258,0.0462 z m 26.66419,-3.10292 c -0.51501,-0.32645 0.50539,0.19182 0,0 z m -25.45841,-0.26281 c -0.59704,-1.67798 -2.57325,-1.99889 -3.39411,-3.49017 -0.56514,-0.76533 0.42947,-0.17841 0.42312,0.20996 0.44659,-0.0766 1.36782,0.93788 1.00444,-0.0353 0.99385,0.83438 1.65829,2.04196 2.04668,3.28114 l -0.0293,0.0583 -0.0508,-0.0239 z m -3.18251,-3.6641 c -0.38366,-0.24543 -0.27271,0.17841 0,0 z m 28.36779,3.22823 c -0.17041,-0.21495 0.32247,0.16968 0,0 z m -21.01595,-0.54124 c 0.56665,-0.5361 -0.0475,0.48054 0,0 z m 21.18803,0.0252 c -0.70244,0.0865 0.50561,-0.81931 0.18211,-0.0429 0.0183,0.23488 -0.0631,0.0918 -0.18211,0.0429 z m -23.83563,-0.23293 c 0.48142,-0.76166 1.24963,-0.89264 1.81951,-1.4376 -0.002,0.57512 -0.78838,1.92457 -1.77143,1.5532 -0.0875,0.0313 -0.0435,-0.066 -0.0481,-0.1156 z m 23.9404,-0.37315 c -0.0853,-0.59263 0.2469,0.20002 0,0 z m -17.99869,-0.40253 c -0.12121,-0.60379 0.31511,0.38158 0,0 z m -3.44329,-0.1904 c -0.3374,-1.13435 1.05048,-1.20568 0,0 z m 3.95134,0.0709 c 0.1781,-0.13949 0.10624,0.0747 0,0 z m 17.407,-0.11084 c -0.1069,-0.25087 0.36118,0.0577 0,0 z m -23.61775,-0.4802 c 0.0507,-0.2742 0.15539,0.15399 0,0 z m 1.67706,-0.0531 c -0.005,-0.22278 0.22959,0.10895 0,0 z m -0.57204,-0.5033 c 0.20213,-0.31485 0.0591,0.21816 0,0 z m 1.30323,0.0116 c 0.0402,-0.0969 0.92211,-1.13713 0.8843,-0.16064 -0.28519,0.0639 -0.57931,0.31424 -0.8843,0.16064 z m -0.80275,-0.0215 c 0.002,-0.24485 -0.72215,-0.68509 0.15251,-0.35914 0.11129,0.10822 -0.0358,0.39138 -0.15251,0.35914 z m 8.30904,-0.49929 c -1.10621,-0.19925 0.64947,-1.38485 1.09173,-0.70438 0.35472,-0.46266 1.08197,-0.33282 1.61511,-0.59476 0.93034,-0.29522 1.38326,0.54207 2.27248,0.31256 0.0923,0.53439 0.78615,0.67725 -0.30949,0.39308 -0.7767,-0.39405 -1.68324,-0.5507 -2.47635,-0.0364 -0.54688,0.73851 -1.50753,0.50311 -1.86725,0.3349 -0.15701,-0.0371 -0.15255,0.5817 -0.32623,0.29499 z m 0.44603,-0.0134 c 0.20388,-0.39027 0.006,0.25977 0,0 z m -1.93389,-0.4866 c -1.08154,-0.0644 -0.22498,-0.78318 -0.16564,-1.27087 0.43035,0.53912 1.17018,-0.51984 0.92172,0.57678 -0.55895,-0.14563 -0.26378,1.00937 -0.75608,0.69409 z m 0.67857,-0.19152 c -0.68806,-0.37932 1.10022,-0.0752 0.0524,0.0784 z m -7.30958,-0.21237 c -0.20672,-0.73354 0.65136,-2.04076 0.25853,-0.52276 0.009,0.0995 -0.0597,0.67397 -0.25853,0.52276 z m -0.31692,-0.48888 c 0.19808,-0.23489 0.31114,0.27387 0,0 z m -0.41028,-0.11901 c 0.27229,-0.23265 0.50414,0.24454 0,0 z m 0.28353,-0.19493 c 0.22151,-0.15568 0.22151,0.15568 0,0 z m -0.507,-0.12426 c 0.0894,-0.20976 0.16422,0.15287 0,0 z m -0.38025,-0.0447 c 0.10794,-0.15157 0.10794,0.15157 0,0 z m 0.507,-0.41798 c 0.30017,-0.37334 0.25873,0.4173 0,0 z m 0.47531,-0.11371 c -0.64296,-0.67491 0.65472,0.30157 0,0 z m -1.31602,-0.0335 c 0.15792,-0.48744 0.64663,-2.39038 0.84071,-1.75009 0.73293,-0.13776 -0.0892,1.26352 0.0815,1.17226 0.14006,0.0386 -0.72347,0.45203 -0.92217,0.57783 z m 0.52335,-0.79783 c -0.15969,-0.49995 -0.16027,0.56018 0,0 z m -0.18964,0.74524 c 0.0706,-0.14602 0.18212,0.229 0,0 z m 0.507,-0.18495 c 0.10794,-0.15157 0.10794,0.15157 0,0 z m -0.2535,-0.082 c 0.0751,-0.28675 0.13062,0.2284 0,0 z m 10.37432,-0.1775 c -0.25323,-0.42821 0.51039,0.22733 0,0 z m 0.24085,-0.0427 c 0.25375,-0.76894 -0.96963,-0.85062 -0.53642,-0.78372 0.69004,-0.1425 1.03606,-0.4783 0.6358,-1.02394 0.84435,0.69025 1.23779,-0.81044 2.16271,-0.87451 0.95291,-0.45234 -0.75947,-0.43994 0.24605,-0.8862 0.75525,-0.71203 -0.68044,0.12777 -0.16313,-0.57755 -0.31338,0.79638 -1.33385,0.53175 -1.10681,0.15736 0.56567,0.006 0.68497,-1.57775 0.12201,-0.44122 0.35106,0.14164 -0.84521,0.16756 -0.68055,0.16469 0.88715,-0.69797 -1.4957,-0.23191 -0.7185,-0.83377 -0.49258,0.086 -0.83389,0.0381 -0.0537,-0.32986 0.36484,0.70205 0.15313,0.29369 0.57962,0.35329 -0.10183,0.1555 1.63445,-0.85034 1.30009,-0.48832 0.97818,0.20075 -0.47584,0.26638 0.38128,0.60833 0.0331,-0.70521 1.46097,-1.13831 0.6096,-1.59531 -0.45772,0.76218 -0.76266,-1.0372 -1.11962,-0.15507 -0.38721,-0.0276 -1.98762,0.62264 -1.09259,0.12617 0.38781,-0.47262 -0.92061,0.0654 -0.68175,-0.0467 -1.21845,-0.58303 0.89076,-0.48732 1.50104,-0.50429 0.16383,-0.38496 1.2534,-1.42532 2.13485,-0.52576 0.80052,0.22759 0.75135,0.14193 1.64858,-0.46473 -0.39336,-0.31727 0.40307,-0.0996 0.0287,-0.57595 0.61989,0.0575 1.11914,-1.03238 1.86919,-0.39919 0.25843,-0.75494 0.54527,0.66444 0.67941,-0.0177 0.34361,1.06031 0.96933,0.6672 1.26415,1.607 -0.32253,1.0191 0.62448,1.16172 0.64419,1.81443 0.92851,0.4548 -1.11007,0.57901 -0.52359,0.0454 -0.61447,-0.0513 -1.27442,-0.56291 -1.61928,-0.45237 -0.58397,0.21351 -0.17215,0.74959 -1.12971,0.49725 0.18526,-0.22594 -0.22106,-0.32113 0.32564,-0.21765 -1.06761,-0.31385 -1.48475,-0.24477 -2.3812,-0.55624 -0.799,-0.0217 -0.68356,0.0152 -0.39673,0.52318 -0.50759,-0.91705 -0.9257,-0.0674 -0.92113,0.39106 0.25631,-0.79861 1.12694,0.33842 0.95789,0.1867 0.15196,0.73981 -0.0146,1.36034 -0.34313,2.02309 -0.6154,0.80541 0.64284,1.34532 -0.36615,1.14266 0.23862,1.32517 -1.09121,0.36408 -0.80307,0.0144 -0.56227,0.97582 -1.41723,1.05209 -2.13116,1.9344 l -0.2269,0.20931 -0.0958,-0.0487 z m 0.83457,-1.47228 c -0.0511,-0.15447 -0.1042,0.15051 0,0 z m 2.38713,-2.53206 c -0.15798,-0.26334 -0.2228,0.26389 0,0 z m 0.69712,-0.0452 c -0.16242,-0.15148 -0.10828,0.15649 0,0 z M 755.07023,648.47 c -0.0334,-0.31633 -0.1558,0.38462 0,0 z m 0.95968,0.10746 c -0.10111,-0.14426 -0.17105,0.0809 0,0 z m -0.34768,-0.14248 c -0.15323,-0.10791 -0.15279,0.20803 0,0 z m 0.13643,-0.30115 c -0.10936,-0.30447 -0.37872,0.22728 0,0 z m 0.95062,-0.003 c -0.10829,-0.15649 -0.16242,0.15148 0,0 z m -2.16864,-0.0699 c -0.10959,-1.01512 -0.86152,0.0405 0,0 z m 1.96513,-0.0648 c -0.0724,-0.0726 0.0365,0.2362 0,0 z m -0.13745,-0.19854 c -0.0943,-0.31766 -0.20769,0.1162 0,0 z m -0.42407,-0.3777 c 0.0387,-0.55133 -0.4836,0.11682 0,0 z m 3.12758,-1.42723 c 0.23275,-0.28179 -0.47277,0.14815 0,0 z m -3.58529,-0.10516 c -0.10212,-0.4494 -0.41655,0.2012 0,0 z m 4.35579,-0.31464 c -0.0226,-0.30357 -0.39009,0.32399 0,0 z m -2.06364,-0.18995 c 0.30317,-0.3473 -0.44402,0.28737 0,0 z m -14.73728,7.35314 c 0.10829,-0.15649 0.16242,0.15148 0,0 z m 13.20392,-0.50611 c 0.0126,-0.45474 0.8696,0.42417 0,0 z m -12.96974,-0.12472 c 0.0154,-0.20808 0.13467,0.14056 0,0 z m -8.39338,-0.5156 c -0.47414,-0.47626 -1.06722,-0.28625 -0.79973,-1.20403 0.11022,-0.96793 -0.43981,-1.57254 -1.1011,-2.22918 0.6642,-0.29993 2.94766,-1.99796 1.84911,-0.25603 -0.97749,0.90689 -0.52415,2.08099 0.77671,1.49741 0.18775,-0.008 -0.68601,1.30123 0.0974,0.29318 0.50703,-0.90069 1.96235,-0.67493 2.23701,-1.41414 0.1696,-0.48336 0.86684,-1.16104 0.76363,-0.91912 0.48776,-0.84557 0.37342,0.6964 0.71324,-0.0719 0.0507,-0.37589 0.96964,-1.60856 0.9404,-1.48307 0.62578,0.0231 -0.73651,-0.37231 0.40029,-0.35231 0.88556,-0.46118 -0.4869,1.45229 -0.9697,1.71247 -0.3254,0.72559 -1.56706,1.44065 -2.50963,2.20052 -1.01355,0.54951 -0.72112,0.74907 0.15487,0.80647 -1.14546,0.36428 -2.22074,0.0789 -2.39026,1.44352 l -0.0668,0.0565 -0.0954,-0.0803 z m 0.82882,-1.59982 c -0.16242,-0.15147 -0.10829,0.15649 0,0 z m 2.9575,-2.1125 c -0.0511,-0.15447 -0.1042,0.15051 0,0 z m 7.83549,3.67224 c 0.39937,-0.62024 0.28671,-1.53067 -0.22041,-0.52644 0.007,-0.3461 -0.68756,-0.97541 -0.34078,-1.77736 1.04046,-0.28967 -0.21705,-1.12463 0.968,-1.18563 -0.0602,-0.46749 0.20781,-1.17795 0.54619,-1.55027 0.4575,-0.75027 0.9323,0.89231 0.0641,0.85609 0.6795,-0.4453 0.13404,-0.89567 -0.0554,-0.56219 -0.14494,0.58878 -0.42116,1.44544 -0.42833,2.2485 0.38776,0.46394 -0.76074,0.606 -0.47582,0.97611 0.98253,-0.11401 0.40742,1.34353 -0.0575,1.52119 z m 0.067,-3.08355 c -0.22354,-0.0899 -0.0422,-0.0414 0,0 z m -3.55504,2.93132 c -0.49812,-0.30616 -0.41268,-0.82241 0.0254,-1.34413 0.72546,-0.59689 0.4363,1.49781 -0.0254,1.34413 z m 0.15218,-1.2385 c -0.0511,-0.15448 -0.1042,0.1505 0,0 z m 3.211,1.04167 c 0.19302,-0.38194 0.12715,0.24994 0,0 z m -0.43043,-0.56354 c 0.23621,-0.0365 -0.0726,0.0724 0,0 z m 5.40299,0.002 c -0.0947,-0.34135 0.42682,0.17119 0,0 z m 1.42813,-0.10003 c 0.17103,-0.35709 0.18992,0.22347 0,0 z m -12.29457,-0.2532 c 0.21076,-0.15337 0.11208,0.16295 0,0 z m 11.63987,-0.24857 c 0.1879,-0.21502 0.14792,0.10888 0,0 z m 0.29575,-0.13168 c 0.1042,-0.1505 0.0511,0.15447 0,0 z m -8.90525,-0.05 c 0.40717,-0.50646 0.38799,0.28925 0,0 z m 8.56726,0.0106 c -0.73756,-0.77012 0.45565,0.14477 0,0 z m -8.112,-0.12711 c 0.0802,-0.21274 0.13123,0.15323 0,0 z m 9.11072,-0.0659 c 0.089,-0.22122 0.089,0.22121 0,0 z m -12.31426,-0.13279 c 0.49899,-0.87404 1.38295,-2.06499 1.83551,-3.22716 0.11032,-1.05582 0.9665,-1.79531 0.43853,-0.28415 -0.50821,1.02999 -0.67636,2.29941 -1.60614,3.06636 0.0572,0.30573 -0.43766,0.70812 -0.6679,0.44495 z m 2.16841,-3.60634 c -0.0511,-0.15447 -0.1042,0.15051 0,0 z m 7.71063,3.61346 c 0.26651,-0.26142 0.29417,0.0485 0,0 z m -7.08838,-0.0685 c -0.45867,-0.47286 0.82388,-0.0263 0,0 z m 9.86279,-0.23535 c -0.0536,-0.26477 0.27339,0.0587 0,0 z m -11.90041,-0.10816 c 0.13677,-0.37091 0.0743,0.21698 0,0 z m 12.47124,-0.0984 c 0.15597,-0.21256 0.0622,0.17381 0,0 z m -1.61299,-0.10325 c 0.10794,-0.15157 0.10794,0.15158 0,0 z m 0.88516,-0.0145 c -0.26226,-0.64069 0.25006,-0.0488 0,0 z m -0.88642,-0.19435 c 0.14617,-0.39355 -0.36282,-0.4287 0.43943,-0.6402 -0.64751,0.61472 0.80038,-0.18663 0.68578,0.23752 -0.60861,-0.33187 -0.70541,0.52021 -1.12521,0.40268 z m -1.09724,-0.0869 c 0.29581,-0.15647 0.20751,0.15969 0,0 z m -19.58408,-0.55426 c -1.06565,-0.84313 1.83346,-0.021 0.84664,-1.13481 -0.84522,1.4703 -3.14066,-1.78429 -1.39352,-1.95022 1.39917,-0.0863 0.25628,1.25394 0.88176,1.68063 1.14682,0.70281 2.41635,-1.10649 3.14885,-0.61073 -0.78807,1.10485 -2.08403,2.02007 -3.48373,2.01513 z m -0.0112,-1.2379 c 0.47336,-0.53415 -1.04838,0.19006 0,0 z m 20.49307,1.12901 c -0.33323,-0.32261 0.60666,0.0824 0,0 z m -5.84042,-0.31916 c 0.0701,-0.41222 0.32248,0.23726 0,0 z m 7.32859,-0.24479 c 0.0774,-0.39288 0.5415,0.0856 0,0 z m -0.40023,-0.0742 c -0.22276,-0.98694 0.72271,-0.0495 0,0 z m -6.63261,-0.0613 c 0.13403,-0.48542 0.24364,0.22234 0,0 z m 6.12709,-0.0712 c -0.0688,-0.40685 0.58307,0.26614 0,0 z m 1.54883,0.0124 c -0.0202,-0.24831 0.21422,0.0919 0,0 z m -0.36731,-0.0786 c -0.69635,-0.51896 -0.19648,-0.62237 0.2304,-0.13433 0.1019,0.13019 -0.15754,0.29034 -0.2304,0.13433 z m 3.66519,0.0343 c -0.3262,-0.58552 0.40467,0.0244 0,0 z m 1.10906,-0.0117 c 0.26043,-0.36797 0.18338,0.18976 0,0 z m -3.18945,-0.12892 c 0.17043,-0.0815 0.0957,0.14677 0,0 z m 5.4287,7.5e-4 c 0.16242,-0.15148 0.10829,0.15649 0,0 z m -21.82213,-0.169 c 0.11094,-0.73212 0.85349,0.0545 0,0 z m 15.04184,0.003 c 0.15235,-0.58804 0.1843,0.27812 0,0 z m -7.56811,-0.0272 c 0.39174,-0.41364 0.65134,0.13859 0,0 z m 8.75732,0.0387 c 0.0266,-0.52429 0.66516,-0.13178 0,0 z m -2.47864,-0.0669 c 0.27855,-0.121 0.27839,0.13686 0,0 z m -4.3211,-0.0845 c 0.48602,-0.26124 -0.0434,0.34314 0,0 z m 3.2958,-0.0369 c 0.22683,-0.12587 -0.10295,0.12985 0,0 z m 3.28564,0.005 c 0.23092,-0.15467 0.1572,0.15866 0,0 z m -3.85934,-0.10782 c 0.20213,-0.31485 0.0591,0.21817 0,0 z m 3.52998,-0.005 c 0.006,-0.29187 0.20438,-0.0557 0,0 z m -1.8627,-0.12197 c -0.0488,-0.30621 0.25063,0.12674 0,0 z m -14.49373,-0.0562 c 0.0994,-0.31522 0.28448,0.15885 0,0 z m 15.71404,-0.0893 c 0.0149,-0.36346 0.38649,0.1474 0,0 z m -15.3482,-0.0501 c 0.1528,-0.20803 0.15324,0.10791 0,0 z m 8.39808,-0.32606 c 0.72302,-0.48736 -0.19798,-1.24324 0.66285,-0.44528 0.0649,0.43127 -0.41268,0.33025 -0.66285,0.44528 z m 0.4225,-0.42655 c -0.10795,-0.15157 -0.10795,0.15157 0,0 z m -8.49225,0.29575 c 0.10795,-0.15157 0.10794,0.15157 0,0 z m 1.92261,-0.76076 c 0.29616,-0.25309 -0.15103,0.29116 0,0 z m 2.13339,-0.16422 c 0.16486,-0.36549 0.11044,0.26541 0,0 z m 3.9715,-0.0468 c 0.16491,-0.15434 0.16491,0.15435 0,0 z m -1.10904,-0.14888 c 0.10594,-0.46751 0.21788,0.33668 0,0 z m 0.65485,0.0787 c -0.12255,-0.2383 0.52092,0.14199 0,0 z m 12.07294,-0.88039 c 0.20086,-0.2249 0.0979,0.21709 0,0 z M 733.552,643.55039 c 0.0639,-1.04748 2.57944,-0.50392 0.91551,-0.0524 -0.30193,0.0304 -0.61107,0.10699 -0.91551,0.0524 z m -1.95011,-0.30962 c -0.56679,-0.63168 0.23946,-0.32894 0.0894,0.07 z m 7.73928,-0.64564 c 0.16495,-0.13776 0.16934,0.075 0,0 z m 0.7605,10e-4 c 0.35458,-0.1366 -0.0801,0.15072 0,0 z m 0.0646,-0.2092 c -1.0772,-0.24229 0.64947,-0.42262 0,0 z m -1.27369,-0.10528 c -0.0561,-0.5761 -1.3093,-0.87028 -0.30313,-1.62902 -0.0567,-0.69295 -1.41116,-1.35926 -1.57207,-2.4505 -0.95929,-1.41734 1.05272,0.38267 1.27496,1.01285 0.53933,0.8564 1.8996,2.06086 1.63691,2.68969 -0.65686,-0.42444 -0.62967,0.2069 -1.03667,0.37698 z m -6.13189,-0.31773 c -0.55508,-0.67032 0.28691,-1.59666 0.93554,-1.60704 -0.26268,0.95507 0.90429,-0.23711 0.99315,0.4514 0.55019,0.90591 -1.24633,0.41418 -1.70433,1.04764 -0.11863,-0.20868 0.0609,0.53765 -0.22436,0.108 z m 23.01569,-0.12829 c 0.10795,-0.15157 0.10795,0.15157 0,0 z m -24.505,-0.67102 c 0.0697,-0.19725 0.14663,0.0728 0,0 z m 6.76,-0.38655 c 0.077,-0.50604 0.5477,-0.12517 0,0 z m 18.91431,-0.10018 c 0.005,-0.31539 0.2,0.18855 0,0 z m -19.41693,-0.2101 c -0.87891,-0.27925 -0.54894,-1.21627 -1.43993,-0.98694 -0.24383,-1.07765 -0.0525,-0.75025 0.50522,-0.35514 0.145,-1.00985 1.5831,1.35456 0.93471,1.34208 z m -6.28024,-0.0292 c 0.0282,-0.24329 0.34615,0.18636 0,0 z m 4.29075,0.0134 c 0.0643,-0.29627 0.18713,0.12262 0,0 z m -0.69325,-0.24639 c -0.0166,-0.33821 0.33379,0.19465 0,0 z m 0.9688,-0.0943 c -1.19582,-1.39656 1.18327,0.38141 0,0 z m -0.41817,0.0473 c -0.0919,-0.21421 0.2483,0.0201 0,0 z m -4.38013,-0.5445 c -0.0563,-0.50856 0.28741,0.37149 0,0 z m 1.74186,-0.15489 c -1.14975,-1.24686 0.75625,-0.98654 0.44451,0.0682 -0.12835,0.11404 -0.37653,0.0981 -0.44451,-0.0682 z m -1.17014,-0.20069 c 0.1083,-0.15649 0.16242,0.15147 0,0 z m 4.79538,-1.13577 c 0.0697,-0.19725 0.14662,0.0728 0,0 z"
       style="font-style:normal;font-weight:normal;font-size:121.38px;line-height:125%;font-family:sans-serif;letter-spacing:0px;word-spacing:0px;display:inline;fill:#a96e38;fill-opacity:1;stroke:none;stroke-width:0.04225px;stroke-linecap:butt;stroke-linejoin:miter;stroke-opacity:1" />
    <path
       inkscape:connector-curvature="0"
       id="path4221"
       d="m 762.15616,668.35979 c 0.27163,-0.42943 0.14433,0.14945 0,0 z m 3.28882,-1.81812 c -0.5051,-1.43262 -2.04201,-1.81273 -2.30193,-3.41237 -0.83363,-1.39718 -2.3268,-2.25287 -3.06951,-3.73774 -0.55266,-0.65147 -1.15638,-2.01604 -1.06501,-2.30333 1.29575,0.90828 1.915,2.40872 3.08263,3.44148 1.02708,1.32927 2.4391,2.40521 3.16717,3.92389 0.61248,0.2884 0.74381,2.63485 0.18665,2.08807 z m -1.61222,-0.3297 c -0.17544,-0.80222 0.0525,-1.39547 0.0742,-0.20299 0.0795,-0.13442 -0.0492,0.48866 -0.0742,0.20299 z m -24.94812,-3.69461 c 0.0461,-0.20066 0.0248,0.25449 0,0 z m 1.17235,-3.26382 c -0.57226,-1.57655 -2.48467,-1.70292 -3.2148,-3.12397 -0.53925,-0.71028 1.7925,1.13314 1.59046,0.32411 0.69831,0.66525 1.62438,2.46865 1.62434,2.79986 z m -1.51858,-2.41881 c -0.10795,-0.15157 -0.10795,0.15157 0,0 z m 5.79552,1.70455 c 0.24887,-0.2969 0.0677,0.19844 0,0 z m 8.84018,-3.14092 c 0.42903,-0.56258 1.59823,-0.91418 0.40043,-0.0318 -0.0951,0.18134 -0.74042,0.42474 -0.40043,0.0318 z m -0.1862,-1.3e-4 c 0.1042,-0.15051 0.0511,0.15447 0,0 z m 3.62606,-0.23277 c -1.13748,0.10691 0.0485,-0.57956 0.16488,0.0109 l -0.0575,0.0105 z m -2.10506,-0.39331 c 0.10538,-0.22302 0.18746,0.0103 0,0 z m 0.35684,-0.0959 c -0.0133,-0.41841 0.32709,0.26108 0,0 z m -20.05758,-3.27468 c -0.86014,-0.0819 -0.6719,-0.87979 -0.75066,-1.74675 0.26509,-0.6437 -1.51852,-1.28271 -0.60911,-1.62929 0.67363,-0.39302 2.30513,-1.36601 1.22187,-0.0363 -0.58258,0.70162 -0.318,1.60466 0.23556,1.68263 -0.0287,0.8974 1.89469,0.38308 1.91378,0.52006 -0.85107,0.16151 -1.86961,0.29987 -1.75683,1.38189 l -0.0744,0.0143 -0.18024,-0.18648 z m 0.9699,-1.52406 c 0.053,-0.85898 2.27649,-1.14317 0.72972,-0.34622 -0.18597,0.15727 -0.4935,0.35771 -0.72972,0.34622 z m -0.36616,-0.22081 c 0.46782,-0.74799 0.23313,0.40949 0,0 z m 2.02934,-0.58546 c 0.2521,-0.46516 0.57727,-0.10265 0,0 z m 0.56903,-0.43306 c 0.1042,-0.15051 0.0511,0.15447 0,0 z m 0.31688,-0.24851 c 0.0697,-0.19726 0.14663,0.0728 0,0 z m -6.57074,-0.33751 c -0.90269,-0.829 1.7098,0.13884 1.00881,-1.23101 0.66944,0.18207 3.14284,-1.88441 2.0887,-0.28379 -0.88843,0.6874 -1.89728,1.68493 -3.09751,1.5148 z m -0.19927,-0.80173 c -0.73401,-0.61517 -1.71533,-2.57976 0.0639,-2.19563 0.71011,0.34221 0.31041,1.87445 0.22425,1.58305 -1.57805,0.47614 1.84209,-0.28399 0.36089,0.58851 l -0.33823,0.0931 z m 27.07123,-1.35835 c 0.37551,-0.752 1.45823,-0.52758 0.34281,-0.0442 l -0.22545,0.0577 z m 1.07097,-0.55484 c -0.48893,-0.4196 -0.95459,-0.65238 -0.36937,-0.81293 0.0591,-1.4053 2.10031,-0.0173 1.49422,0.55106 -0.69187,-0.96885 -0.49587,0.44943 -1.12485,0.26187 z m -0.914,-0.33909 c 0.29616,-0.26598 0.0824,0.19127 0,0 z m -24.95004,-1.57281 c 0.22025,-1.09874 1.96862,0.0247 0.36855,0.0474 l -0.28495,0.005 z m -2.37028,-0.443 c -0.0357,-0.24767 -0.12849,-0.10788 0,0 z m 7.26802,-1.2555 c -0.009,-1.41433 0.64305,-0.20975 0,0 z m -1.44579,-1.81082 c -0.42942,-0.92719 0.62168,0.30613 0,0 z m 1.13051,-0.1338 c -1.2079,-1.83389 0.81685,0.42525 0,0 z m -0.48897,-0.84344 c -0.21469,-0.30055 0.27517,0.21191 0,0 z m -1.14154,-1.32425 c 0.0135,-0.20676 0.19098,0.0804 0,0 z"
       style="font-style:normal;font-weight:normal;font-size:121.38px;line-height:125%;font-family:sans-serif;letter-spacing:0px;word-spacing:0px;display:inline;fill:#504c43;fill-opacity:1;stroke:none;stroke-width:0.04225px;stroke-linecap:butt;stroke-linejoin:miter;stroke-opacity:1" />
  </g>
</svg>
