<?xml version="1.0" encoding="UTF-8" standalone="no"?>
<!-- Created with Inkscape (http://www.inkscape.org/) -->

<svg
   width="450.94861mm"
   height="404.84616mm"
   viewBox="0 0 1597.8495 1434.4943"
   id="svg2"
   version="1.1"
   inkscape:version="1.1 (c68e22c387, 2021-05-23)"
   sodipodi:docname="shiba-inu-isolated-no-shadow-trans.svg"
   xmlns:inkscape="http://www.inkscape.org/namespaces/inkscape"
   xmlns:sodipodi="http://sodipodi.sourceforge.net/DTD/sodipodi-0.dtd"
   xmlns:xlink="http://www.w3.org/1999/xlink"
   xmlns="http://www.w3.org/2000/svg"
   xmlns:svg="http://www.w3.org/2000/svg"
   xmlns:rdf="http://www.w3.org/1999/02/22-rdf-syntax-ns#">
  <defs
     id="defs4">
    <linearGradient
       id="linearGradient8435">
      <stop
         offset="0"
         style="stop-color:#ffffff;stop-opacity:0"
         id="stop8437" />
      <stop
         offset=".5"
         style="stop-color:#ffffff;stop-opacity:.83922"
         id="stop8445" />
      <stop
         offset="1"
         style="stop-color:#d8d8d8;stop-opacity:0"
         id="stop8439" />
    </linearGradient>
    <linearGradient
       x1="658.5"
       y1="811.67999"
       x2="122.88"
       gradientUnits="userSpaceOnUse"
       y2="278.10001"
       id="linearGradient5143">
      <stop
         offset="0"
         style="stop-color:#000000"
         id="stop5139" />
      <stop
         offset="1"
         style="stop-color:#2c377b;stop-opacity:.37295"
         id="stop5141" />
    </linearGradient>
    <linearGradient
       x1="158.73"
       y1="340.60999"
       x2="660.94"
       gradientUnits="userSpaceOnUse"
       xlink:href="#linearGradient8435"
       y2="767.78998"
       id="linearGradient8443" />
    <linearGradient
       x1="535.26001"
       y1="683.77002"
       gradientTransform="translate(-13.77,-18.192)"
       x2="159.61"
       gradientUnits="userSpaceOnUse"
       xlink:href="#linearGradient8435"
       y2="354.45999"
       id="linearGradient9438" />
  </defs>
  <sodipodi:namedview
     id="base"
     pagecolor="#ffffff"
     bordercolor="#666666"
     borderopacity="1.0"
     inkscape:pageopacity="0.0"
     inkscape:pageshadow="2"
     inkscape:zoom="0.27709666"
     inkscape:cx="858.90606"
     inkscape:cy="223.74864"
     inkscape:document-units="px"
     inkscape:current-layer="layer1"
     showgrid="false"
     fit-margin-top="0"
     fit-margin-left="0"
     fit-margin-right="0"
     fit-margin-bottom="0"
     inkscape:window-width="3840"
     inkscape:window-height="2054"
     inkscape:window-x="3829"
     inkscape:window-y="-11"
     inkscape:window-maximized="1"
     inkscape:pagecheckerboard="0" />
  <metadata
     id="metadata7">
    <rdf:RDF />
  </metadata>
  <g
     inkscape:label="Layer 1"
     inkscape:groupmode="layer"
     id="layer1"
     style="display:inline">
    <path
       inkscape:connector-curvature="0"
       id="path4231"
       d="m 199.53377,82.84317 c -54.1779,35.44974 -108.355804,70.89947 -162.533704,106.34921 -2.0066,53.50904 -4.0132,107.01809 -6.0198,160.52713 18.6532,5.37373 62.2859,-11.19877 50.4479,20.96343 0.6282,21.46441 -16.2843,54.86996 17.6259,53.6769 19.055304,9.88579 52.278104,6.46002 62.027704,25.08918 21.4901,90.34403 37.221,183.29027 70.7194,269.83034 25.1141,40.1205 53.9917,78.72281 76.7943,119.77578 21.8234,99.28358 30.7598,200.56176 43.4392,301.26056 -6.3394,23.0149 -9.1037,49.7238 -35.6047,57.6841 -16.1758,8.3668 -47.1699,15.0968 -46.9696,36.0175 7.1549,27.0082 40.2679,-0.916 58.4951,12.6476 -24.0591,15.8814 -31.4718,30.1949 1.5282,37.5325 27.5549,18.5686 58.8559,3.3118 88.7684,0.5927 17.7133,-16.7572 34.3319,-34.0512 32.9673,-60.1621 17.6285,-76.0905 -6.403,-155.3737 14.6921,-231.06034 15.5501,-85.52547 31.1001,-171.05094 46.6502,-256.57641 198.6523,-47.48928 397.3047,-94.97857 595.95703,-142.46785 14.715,73.57495 29.43,147.14989 44.145,220.72484 49.9393,61.02983 104.0429,119.94148 151.4023,182.28356 10.982,53.1325 33.3244,105.0307 25.9775,160.1548 5.4878,26.1819 -7.6188,44.6892 -30.2545,56.6394 -31.0929,3.151 -26.9801,32.8437 -34.7563,26.3192 -7.0034,24.6836 37.2948,10.7196 52.6614,19.6152 19.0229,2.4651 52.3786,2.7487 60.9412,-13.0825 6.9463,-42.3094 13.8926,-84.6187 20.8389,-126.9281 32.7169,-19.4809 24.5882,17.7979 27.6513,39.5244 4.2368,35.3496 8.455,73.3564 -15.5047,103.133 -22.8803,19.3371 -3.9106,44.8609 22.4768,37.5914 19.8673,-4.0718 55.041,4.8947 54.748,-24.0161 10.4038,-34.0003 -7.5397,-69.4358 -9.8563,-104.0802 -12.29,-57.0093 -12.3055,-117.6771 -41.0316,-169.7876 -54.1001,-124.7664 -105.8833,-250.6781 -172.6482,-369.44149 -49.376,-87.75453 -90.5782,-182.36006 -155.785,-259.67003 -124.79983,7.27582 -253.55953,-4.74987 -379.59503,-10.49939 -88.542,-5.23623 -177.0519,-11.01642 -265.5259,-17.29746 -66.2855,-75.1567 -130.2748,-153.16927 -197.9849,-226.55425 -22.295,-12.10297 -44.5899,-24.20594 -66.8849,-36.30891 z"
       style="font-style:normal;font-weight:normal;font-size:121.38px;line-height:125%;font-family:sans-serif;letter-spacing:0px;word-spacing:0px;display:inline;fill:#f0e4d1;fill-opacity:1;fill-rule:evenodd;stroke:none;stroke-width:1.69px;stroke-linecap:butt;stroke-linejoin:miter;stroke-opacity:1" />
    <path
       inkscape:connector-curvature="0"
       id="path4227"
       d="m 1426.3138,1305.5309 c 9.0198,-37.7113 23.8943,-33.1171 40.6945,-17.6375 59.8075,-3.8897 -28.7627,28.5004 -40.6945,17.6375 z m -14.8152,-6.4322 c -26.9396,-42.0452 45.5896,-92.6983 11.0265,-143.5204 -19.6014,-53.7408 -13.4707,67.9242 -39.7487,83.1475 -62.5181,54.8353 33.2806,-57.9029 -1.1501,-91.017 -11.2985,-37.6298 -61.9267,-65.1606 -45.0078,-5.2117 -20.048,14.8668 -1.8144,-102.9321 -41.4623,-127.3102 -55.3807,-64.98296 -122.2685,-122.79568 -154.673,-204.59391 -20.1691,-99.41924 -136.1974,-120.19127 -219.05423,-88.96637 -92.3267,25.62574 -182.4322,59.12582 -268.5749,100.56306 -67.4315,5.46541 -145.5805,31.03773 -134.9377,114.92631 -3.0063,74.72561 -49.8517,155.20051 -29.0652,224.93311 -26.2762,64.228 -45.586,153.8843 -137.2216,133.3987 -43.2112,6.5271 -66.3016,-49.2045 -14.0983,-57.0604 -47.7221,34.0316 5.4543,56.7559 37.1706,35.9091 46.1011,43.0207 106.1551,-75.8494 59.6393,-68.4035 -15.3161,48.6618 -53.0996,-45.7342 -56.0786,20.6118 -43.7593,34.6328 -10.3955,-16.3457 -3.5636,-36.7805 41.4981,-50.4626 17.0985,-130.3129 24.0721,-198.09308 5.6144,-39.53701 -28.2116,-182.34264 -74.1636,-123.57503 -2.9912,61.80211 15.7894,121.92759 29.2539,182.10541 10.9347,24.2323 46.8732,79.7788 -8.6027,90.2145 -2.9574,-74.1362 -21.337,-147.08964 -23.2437,-222.25542 8.2434,-94.34163 -70.484,-152.38921 -109.5326,-228.01774 -19.7747,-55.59357 -32.3049,-126.53238 -71.5092,-160.43131 C 152.05077,462.61347 100.96167,421.11566 39.861366,421.40468 19.414666,375.31842 -27.256334,312.57079 23.150566,262.658 0.48196631,202.88718 41.718366,119.24444 7.2486663,54.16857 c -12.5059,-86.21829 68.4791997,-27.92611 102.7202037,-4.239 56.2791,33.25079 119.5646,-18.68932 147.1633,-44.1172697 50.1661,43.1283997 85.587,100.7213397 127.6956,151.2591197 35.7168,54.6345 76.3434,119.20677 149.5016,119.20545 52.5958,-0.39732 120.2369,-14.30788 159.0654,29.50757 59.5726,24.6955 130.244,8.82953 193.7805,5.85199 48.5929,-8.0764 134.18203,-8.21814 99.3414,-78.26682 5.8611,-90.69774 96.61793,-159.20088 183.34693,-161.73168 98.2773,2.43419 149.9381,107.89665 162.759,192.89116 22.1993,63.73622 -34.5959,138.68252 20.3887,189.7565 56.8415,72.02752 76.6632,167.82001 59.2397,257.47607 -7.9222,82.70295 -6.331,168.77681 17.8971,248.56492 46.2519,48.54832 57.8824,108.70342 58.9143,173.66742 1.0326,39.0551 29.2561,140.2694 -16.6056,138.2367 0.7421,-40.269 -32.2917,-77.9612 -49.039,-21.6462 -8.1499,13.33 -25.6436,32.8373 -11.9192,48.5142 z m 51.5727,-83.7099 c -5.644,-9.2431 -2.2744,12.0179 0,0 z m -16.9001,-23.0369 c -6.8464,-4.7225 -4.3447,9.0688 0,0 z m -31.2649,-104.4584 c -5.3346,-7.363 -2.6007,6.9791 0,0 z m -7.605,-10.8852 c -4.6948,-49.3582 -43.7355,-10.4707 0,0 z M 1235.7662,874.95351 c -2.2247,-6.40795 -3.7932,6.54453 0,0 z m -5.9149,-17.23593 c -16.2759,-39.32663 -26.395,1.92393 0,0 z m -21.9893,-26.23466 c 1.4421,-19.95939 -26.5847,-5.07585 0,0 z m -11.8107,-25.55586 c -24.5032,-46.43764 -22.6968,16.01045 0,0 z M 372.22327,782.426 c 15.3361,-57.7117 82.4957,-164.61512 -16.592,-179.56103 -32.9065,-9.85281 -37.1371,0.0482 -17.1025,-24.37247 -23.9987,-36.38022 62.7394,-94.65149 -5.5432,-73.34596 -22.9225,20.01864 -57.473,53.8729 -89.8859,46.55469 38.1994,-50.13489 -106.1795,-0.40722 -28.0167,12.71477 -18.7069,32.35757 25.7871,-0.78247 27.4168,23.19011 51.0111,38.14627 -2.4953,30.07064 -20.6547,10.34138 -2.709,29.12853 -14.4899,95.10534 25.7207,92.47855 -8.3569,-39.82838 -2.0667,-56.47863 24.1306,-43.23611 -19.982,69.19256 72.1465,72.20546 96.6447,127.53186 -1.1519,1.57755 -5.7867,26.30486 3.8822,7.70421 z m -7.652,-23.7445 c 5.6232,-21.15275 14.0389,10.87964 0,0 z m -78.0948,-120.28869 c 3.8963,-23.29464 14.4022,20.16702 0,0 z m -58.789,-1.30681 c 6.8264,-37.997 43.8986,13.32256 0,0 z m 94.6338,-7.18249 c -29.3477,-11.5447 -65.2199,-56.39778 -12.9222,-22.33771 11.4019,-0.47635 24.0669,9.44226 12.9222,22.33771 z m -13.5618,-44.89503 c -7.6885,-27.30573 12.564,16.72065 0,0 z m -31.2232,-10.87498 c 1.6323,-15.51794 15.6345,10.97045 0,0 z m -21.125,-6.49807 c 10.996,-24.37881 17.3685,8.698 0,0 z m 38.2607,-21.71453 c -4.0818,-8.88676 10.2137,1.61227 0,0 z m 870.64133,235.64071 c -6.5761,-11.93279 -9.3849,13.05099 0,0 z M 295.70377,720.04425 c -8.1389,-4.19476 -2.7952,3.4971 0,0 z m -32.5325,-44.31364 c -6.3658,-9.192 -7.1059,5.66869 0,0 z m -47.4351,-55.80549 c 12.493,-46.61792 -31.9216,17.82332 0,0 z m -6.6449,-45.99108 c -6.3493,-3.2602 -1.5792,8.34363 0,0 z m 50.8793,-80.03329 c -8.0602,-9.55355 -8.3159,12.61277 0,0 z m -53.3496,-41.55206 c 19.693,-24.11187 -45.5724,-23.57282 4.845,-37.30853 37.6255,-31.38984 93.3451,-65.20715 102.9653,-113.41507 -42.7974,-4.49747 27.2222,-30.90261 -19.1653,-50.22587 -41.1768,-14.12576 -92.9336,-37.68885 -116.7358,16.40489 -67.6615,-49.23581 -66.0902,106.8747 5.2183,48.63349 30.4431,-4.71679 72.9526,9.02803 24.273,27.46262 17.6335,30.43443 -76.2299,120.3842 -1.4005,108.44847 z m 48.9453,-131.16517 c -2.0121,-18.75232 44.8697,-0.73977 0,0 z m -51.545,109.29998 c -2.2249,-6.40789 -3.7932,6.54457 0,0 z M 43.083866,371.65038 c -6.6224,-9.09941 -5.317,9.26618 0,0 z m 53.6224,-27.35688 c 31.535604,-29.59385 -63.9843,-49.7266 -13.6318,-9.08518 l 8.9454,4.36069 z m -1.8792,-8.75591 c 1.2133,-12.6769 12.864404,7.70234 0,0 z m 1.8792,-30.1141 c -5.7999,-7.03014 -4.371,6.89192 0,0 z m 86.647604,-70.66312 c -5.8844,-8.13306 -5.2709,9.80426 0,0 z m -101.012604,-4.7488 c -8.8252,-9.55032 -3.2979,16.22781 0,0 z M 1233.2313,114.24657 c -7.6834,-5.28746 -1.4745,13.35418 0,0 z m 91.6222,1147.50063 c -10.3564,-14.493 36.3964,8.7349 0,0 z m -44.0982,-3.1679 c -93.796,-17.8553 110.4284,-93.7925 14.367,-33.488 -61.5034,39.0926 59.6677,-1.1701 5.2903,37.1069 l -9.236,0.361 z M 277.95877,1244.9281 c 4.7114,-21.198 34.8319,9.3734 0,0 z m 38.4475,-1.5546 c 7.3793,-7.4613 4.7615,7.246 0,0 z m 91.6464,-10.363 c -14.9131,-19.1685 16.8464,2.6266 0,0 z m -143.1914,-5.3401 c 16.9064,-30.6681 24.3062,-6.9632 0,0 z m 54.7207,-23.4976 c 11.9247,-33.3563 41.4547,-66.3722 17.3794,-12.8693 -1.5068,7.5222 -8.7555,15.7054 -17.3794,12.8693 z"
       style="font-style:normal;font-weight:normal;font-size:121.38px;line-height:125%;font-family:sans-serif;letter-spacing:0px;word-spacing:0px;display:inline;fill:#e4cca9;fill-opacity:1;stroke:none;stroke-width:1.69px;stroke-linecap:butt;stroke-linejoin:miter;stroke-opacity:1" />
    <path
       inkscape:connector-curvature="0"
       id="path4225"
       d="m 1440.38,1305.0339 c 2.3091,-32.7401 57.9081,10.6993 0,0 z M 343.79387,1291.3228 c 15.13,-21.4061 39.4016,-1.1968 0,0 z m -12.1776,-4.0093 c 2.2248,-6.408 3.7934,6.5446 0,0 z m 47.4573,0.032 c 21.8649,-15.5817 9.3428,7.9895 0,0 z m -76.645,-8.7986 c 5.3171,-9.2661 6.6225,9.0995 0,0 z m 4.6827,-13.9668 c 17.1646,-24.9822 20.5255,-4.8661 0,0 z m 145.6187,-10.1871 c 7.7581,-20.3524 2.1494,13.1113 0,0 z m 837.53883,2.8962 c 4.0613,-27.9028 30.538,13.7607 0,0 z m 70.6717,-1.9004 c 9.8958,-20.718 21.4585,7.8325 0,0 z M 288.09877,1242.2543 c 8.1389,-4.1948 2.7952,3.4971 0,0 z m 968.79883,-0.9933 c 24.9534,-40.4589 44.5485,-17.0545 0,0 z m 233.0647,-4.1942 c -24.634,-81.8916 -57.5953,-161.2462 -73.5356,-245.61747 -23.6287,-57.79099 -117.0172,-2.88541 -135.8754,-79.00286 -21.5179,-66.9982 -67.549,-116.60242 -125.0542,-156.631 -29.9145,-8.8728 -39.4662,-57.27194 -0.3344,-28.73228 -8.4365,-35.29762 -75.3322,-32.82566 -58.8086,-10.72642 -20.7939,26.9162 -91.4428,-40.74292 -136.08873,-8.97167 -66.0172,24.15167 -136.573,34.19726 -199.9245,59.59517 -38.5538,19.00116 -91.9707,64.15919 -131.4895,46.38385 31.4251,-37.36057 118.7716,-37.13243 100.3186,-90.35 32.17,-39.5142 -22.7175,-29.84047 -37.3674,-10.58346 -24.2027,0.70836 24.4105,-18.44597 -18.4261,-18.59779 -38.8492,-7.27113 -35.9085,14.0124 -20.3499,30.32405 -43.4742,7.4329 -133.7615,51.48896 -78.7401,97.58627 23.7154,-9.71699 76.5378,-11.51069 25.4605,5.68978 -30.7085,10.1959 -88.7082,52.49741 -58.4913,-9.02948 -9.0914,-68.47333 -38.1755,43.34544 -63.7697,52.77421 -32.91,24.2289 -37.4387,64.89636 -65.0946,85.45027 -9.8557,-51.26588 -3.4232,-108.74046 -10.0582,-157.86029 16.2711,-25.46435 38.172,-45.1887 24.4039,-85.02705 10.087,-54.29138 5.4921,-116.48471 -10.9261,-168.11833 -32.5309,1.75484 -67.5839,33.32438 -33.804,-11.10878 15.1633,-39.39646 55.4667,-136.74229 -23.1866,-85.62603 -22.7538,36.79416 -108.0356,-0.75578 -101.4607,53.74502 62.7656,14.26193 -30.8902,34.77993 -57.1233,27.76008 -32.1882,4.16984 -0.1237,78.73322 -34.6585,25.87402 -44.1054,-25.77796 -10.9678,-141.118 -99.599004,-129.34692 -53.4896,-17.23984 -13.4237,-21.91875 13.1742,-31.00751 16.4763,-31.50452 -41.6144,20.47663 -53.9284,-19.28592 -43.5322,-17.33116 -20.2503997,-112.97485 -7.2237,-91.31672 -4.1746,25.43688 50.0573,-0.82463 41.9636,46.15801 2.6792,100.266 122.729704,-39.60571 123.629904,16.09731 -27.4583,31.96265 -16.9214,34.3355 16.3719,23.33106 -32.3233,34.53372 -69.3355,140.88305 19.3788,96.34093 67.7548,-10.04004 26.3361,-76.24946 80.7474,-112.06361 65.0265,-62.00586 44.8423,-159.23078 -11.629,-213.78824 -43.2619,-37.48957 -24.6302,38.27998 7.5571,47.77625 13.5783,46.55067 -28.104,-25.58496 -46.289,15.32215 -30.1348,-0.0164 -72.1922,-2.09045 -91.6736,-39.14501 -36.1035,12.02554 -102.203604,58.37788 -95.571004,-17.41176 36.1567,-40.92872 -13.8567,-52.63275 -34.096,-68.39238 -19.8843997,46.33782 -36.1871997,-129.24319 29.152,-58.83149 41.4143,33.76265 127.199404,68.22112 163.179304,15.74543 45.2129,-86.19982 87.487,46.76374 125.9473,74.79064 51.332,54.29284 77.7764,142.90347 157.0902,163.25184 62.7309,13.40593 141.2624,-17.8282 191.1843,33.89828 61.5237,28.63997 133.0467,5.59229 198.0032,3.3882 64.2436,5.80397 124.42333,-21.62866 99.2395,-92.23657 3.5044,-33.70192 44.09353,-104.29644 50.81383,-37.58224 4.7793,16.08037 40.2182,29.87328 27.783,-0.83454 11.1583,16.18755 41.8811,47.31899 26.2587,4.73768 15.2645,36.33779 9.5075,-42.86269 29.6508,5.3323 0.2121,-37.40834 27.5455,15.51528 47.2604,-10.84823 -6.6342,52.23138 28.9984,-13.88662 35.722,28.74794 3.8423,-45.84371 41.9291,24.97523 45.8868,6.33194 -0.2389,55.00262 30.0752,27.06899 47.6601,-0.0962 24.9766,13.46719 -4.4186,45.84042 21.8626,28.36088 21.7106,69.21975 -9.462,155.79507 7.8261,214.23724 -33.1592,31.39141 47.619,26.13656 -7.7367,43.86828 -19.8219,25.66248 -8.1775,70.87656 -23.2822,96.13169 23.2848,11.82373 -44.943,2.30261 7.0548,19.41763 59.532,30.90987 -79.3519,2.07936 -28.6698,23.49018 25.8078,4.94566 63.4145,18.38136 40.3979,51.24671 30.4227,31.66217 54.6238,54.51004 74.6649,17.16428 32.0247,45.08647 -6.4369,121.50972 15.9756,178.61936 13.2142,53.17855 1.3257,130.97692 63.5975,143.32382 0.4117,68.6733 27.211,137.5974 15.0491,205.8775 z m 4.6482,-16.0858 c -3.497,2.7953 4.1947,8.139 0,0 z m -68.7192,-231.85275 c -3.1063,-6.41024 -5.0345,3.7492 0,0 z m -154.635,-124.31474 c -2.2248,-6.40812 -3.7935,6.5446 0,0 z m 26.8991,-36.75751 c 24.2568,-5.72554 -15.642,-2.6028 0,0 z m -38.0615,-14.27394 c -17.2748,-12.92121 4.5233,17.7265 0,0 z m 33.9774,-1.35856 c -12.0773,-7.12279 2.8798,6.22041 0,0 z m 20.2799,-1.68999 c -3.7931,-6.54458 -2.2248,6.40794 0,0 z m -30.4199,-1.69001 c -4.0785,-6.6368 -4.0784,6.63681 0,0 z m -9.7394,-9.71749 c -12.4638,-43.23738 -29.4861,12.70107 0,0 z m -25.7506,-0.91264 c -11.7374,-32.65656 -29.7311,-0.18742 0,0 z m 38.87,-2.04487 c -4.6684,-9.3101 -4.2971,9.31321 0,0 z m 16.2443,-1.57404 c -12.4976,-35.36121 -45.5186,2.84073 0,0 z m 53.6795,-22.98235 c -6.801,-12.5726 -29.3851,8.83847 0,0 z m -56.7912,-3.64549 c -5.271,-9.80429 -5.8843,8.13312 0,0 z m 66.2632,-9.16162 c 12.0938,-10.26923 1.5454,-7.6421 -9.6367,1.73566 z m -617.54093,-6.63064 c -23.4759,-18.33645 10.1312,20.76302 0,0 z m 645.84743,-0.12186 -3.4974,0.38498 z m -97.2242,-8.02983 c -22.2374,-28.94103 -40.0655,-0.89214 0,0 z m -118.5488,-1.93416 c -5.8993,-6.4116 -4.7736,9.20083 0,0 z m -8.5393,-3.56082 c -7.053,-8.90438 -4.1424,12.75653 0,0 z m -414.05003,-7.30912 c -8.42,-17.87667 -14.793,3.50662 0,0 z m 459.68003,-11.66339 c -2.1949,-9.38223 -6.6098,5.71779 0,0 z m -49.6807,-13.11182 c -12.3441,-1.93736 0.2765,27.64895 0,0 z m -79.4875,5.88121 c 8.5977,-38.32809 82.0459,-2.29056 69.1518,-62.964 -24.8174,-23.68855 -75.7866,-15.66306 -60.7437,16.841 -36.3252,9.36264 -49.4113,24.47631 -8.4081,46.123 z m 10.5513,-29.69552 c 9.1778,-3.51738 -0.7627,3.87298 0,0 z m 27.7248,-12.62665 c 9.2286,-12.85412 5.7033,7.90289 0,0 z m -6.8719,-10.47007 c -10.4357,-14.59592 31.9393,8.53515 0,0 z m 147.1114,49.26254 c -12.8395,-4.44009 5.6997,11.08494 0,0 z m 17.8301,-4.41208 c -11.1667,-23.85172 -27.0203,18.69235 0,0 z m -134.1033,-2.27839 c 32.2807,-13.65269 -18.9692,-4.525 0,0 z m -536.40423,-1.47393 c -5.4105,-10.88797 -8.2415,7.19758 0,0 z m 136.89,0.053 c -4.0784,-6.6368 -4.0785,6.63678 0,0 z m -147.03,-4.75695 c -13.8185,-16.65248 -14.1174,3.64306 0,0 z m 21.5198,-1.49761 c -17.5968,-21.5065 -27.2289,4.51082 0,0 z m 539.56023,-0.50539 c -3.7935,-6.54461 -2.225,6.40817 0,0 z m -118.1721,-9.45947 c 40.4392,-28.03744 -32.9575,-22.27007 0,0 z m 0.2594,-11.13741 c 5.2712,-9.80439 5.8843,8.13317 0,0 z m -410.21233,8.76688 c 44.1427,1.6573 5.6177,-19.72992 -9.8563,-5.42917 z m 4.225,-6.12193 c 4.608,-5.75284 5.2609,10.55237 0,0 z m -42.25,6.30274 c -4.4403,-9.51313 -6.026,5.82035 0,0 z m 3.8693,-5.43747 c -15.1817,-8.4035 1.8481,9.02673 0,0 z m 421.85293,-5.53822 c 2.6946,-41.96941 -32.35723,17.55263 0,0 z m 236.7577,2.50207 c -8.3237,-17.72176 -12.6107,11.47255 0,0 z m -642.19993,-3.53719 c 22.1114,-27.59596 129.1726,-5.01171 49.6977,-31.4284 -33.5751,-18.65031 -52.4921,-14.24221 -32.8656,-2.57104 -30.0874,-9.96128 -60.1181,34.7167 -16.8321,33.99944 z m 43.1945,-24.55875 c -5.7445,-10.62479 18.9783,12.28179 0,0 z m 201.1034,14.51464 c -26.7129,-59.37364 -24.4431,28.85478 0,0 z m 213.85903,4.79537 c 12.7071,-20.07366 -23.2424,14.88586 0,0 z m -129.45203,-1.51126 c -2.2247,-6.40794 -3.7932,6.54455 0,0 z m 32.3677,-6.08981 c 33.37733,27.28601 69.44673,-57.09447 28.48003,-22.5172 8.3402,16.16407 -66.43953,13.13967 -30.79573,24.66641 z m -285.8676,2.70981 c -8.1588,-7.52836 -6.2235,7.28064 0,0 z m 592.14213,-2.31901 c 6.7797,-19.03672 -23.0623,18.48066 0,0 z m 17.1029,-1.061 c 4.5862,-12.379 -12.6104,14.46761 0,0 z m -432.96403,-1.81675 c -5.3373,-7.38963 -5.3373,7.38965 0,0 z m 195.51903,-1.56325 c -9.3991,-7.24438 -11.1956,7.61936 0,0 z m 205.335,0 c -4.0784,-6.63656 -4.0783,6.63659 0,0 z m -236.6001,-1.68999 c -4.3709,-6.89211 -5.8002,7.03035 0,0 z m 16.9001,0 c -6.1121,-7.12316 -6.1122,7.12314 0,0 z m 194.1081,-4.35765 c 12.046,-16.13039 -33.3926,8.83302 0,0 z m -554.91493,-12.5291 c -28.635,-16.1064 -14.0898,6.65443 0,0 z m 32.3021,-6.43243 c -30.4201,-0.16645 4.3201,10.17374 0,0 z m 380.89473,3.73486 c 46.9844,-26.0649 -75.8571,6.36826 0,0 z m -409.56313,-2.09625 c 18.3688,-37.26304 -29.5036,-5.44095 0,0 z m 356.32803,-1.97943 c -2.2247,-6.40795 -3.7932,6.54453 0,0 z m 225.1925,-3.08267 c 11.4841,-17.49928 -40.5826,14.35069 0,0 z m 46.0526,1.6697 c -14.1592,-7.1774 -12.3651,5.47355 0,0 z m -581.72673,-3.37678 c -7.518,-8.62066 -8.7406,12.67307 0,0 z m 251.4012,-0.39272 c 1.2458,-9.28123 -7.5918,8.05609 0,0 z m -343.9845,-5.03414 c 38.8827,-4.12331 -22.012,-31.93731 0,0 z m 587.28243,-3.31536 c -4.7043,-15.48893 -8.8637,9.12598 0,0 z m 26.1875,-1.67806 c -6.3682,-12.56412 -4.1872,11.85971 0,0 z m -179.9849,0 c -6.2235,-7.28066 -8.1588,7.52835 0,0 z m -290.14693,-7.00771 c 76.3677,-12.65185 -41.8315,-0.98551 0,0 z m -129.27,-8.88303 c -3.1422,-23.0528 -14.2734,6.46322 0,0 z m 422.79693,-0.89158 c -6.422,-11.35675 -8.0039,11.83028 0,0 z m -414.89503,0.90812 c -5.6754,-6.25661 -6.5731,3.82001 0,0 z m 452.86053,-43.16471 c 11.1303,-37.54695 -30.5631,13.56912 0,0 z m 28.7895,-6.78942 c 2.5216,-11.08728 -26.0071,8.81633 0,0 z M 408.19437,535.3691 c -6.276,-6.49589 -3.9372,10.32426 0,0 z m 725.32693,-2.00254 c -10.5792,-9.41775 -6.1826,16.14166 0,0 z m -713.18003,1.99666 c -5.756,-11.62585 -12.8729,7.28859 0,0 z m 746.98003,-5.16973 c -4.371,-6.89184 -5.7998,7.03005 0,0 z m -15.21,-6.88778 c -7.3146,-3.61559 -5.0091,8.63769 0,0 z m -42.5334,-2.18364 c -4.5196,-15.7983 -10.96,12.87663 0,0 z M 202.37247,492.94922 c 15.9755,-33.6678 -24.1918,30.25554 0,0 z m 216.7537,-61.85984 c 58.2481,-48.20116 -42.0683,2.32626 0,0 z m 143.1751,-9.0559 c -6.112,-7.12304 -6.112,7.12304 0,0 z m -469.820004,-1.69 c -4.0785,-6.6368 -4.0785,6.6368 0,0 z m 14.225904,-1.85711 c 36.0569,-20.5314 19.6909,-18.12457 -3.7324,0.84159 l 3.7322,-0.84162 z m 479.619,-8.06428 c 6.9192,-22.82131 -21.7223,18.89531 0,0 z m -296.1149,-12.04861 c -10.5,-7.74343 -8.0243,7.50479 0,0 z m 294.7628,-1.08403 c -0.6246,-6.94762 -7.1063,11.42281 0,0 z m -148.5307,-1.63728 c 76.5448,-13.15776 -36.9019,-3.91974 0,0 z m 141.8437,-2.58306 c 31.0782,-57.82766 -23.013,-18.86859 -10.898,3.32465 z m -123.2414,-14.325 c 12.3096,-15.52601 -22.6333,7.25781 0,0 z M 44.351866,374.05135 c 6.5563,-23.28003 -22.1067,7.91025 0,0 z m 394.192104,-14.231 c -4.1638,-7.9492 -4.3875,10.18918 0,0 z m 19.7428,1.10185 c 35.584,-4.72151 -16.9617,-42.95813 0,0 z m 119.9443,-4.2369 c -1.0676,-17.76414 -9.6947,16.33393 0,0 z m -1.5244,-12.51918 c 28.7125,-53.32079 -59.3563,-8.59292 0,0 z m -100.5954,-10.01264 c -2.2249,-6.40789 -3.7932,6.54457 0,0 z m 3.1674,-31.265 c -14.7741,-26.71152 -35.5684,65.8467 -4.3219,8.06491 1.4406,-2.6883 2.8813,-5.3766 4.3219,-8.06491 z m 13.7326,-14.4084 c -10.927,-3.95134 -8.7753,14.31292 0,0 z m -13.194,-11.36409 c 14.8476,-23.49471 -20.8164,3.63631 0,0 z m 802.88333,-6.06873 c 52.2055,-60.05125 -34.9903,-2.42784 0,0 z m 30.5624,-0.62014 c 23.1647,-36.33468 -20.7144,7.25995 0,0 z m -250.7218,-37.57389 c -2.4881,-9.06866 -5.5203,6.46257 0,0 z m 25.854,-6.23695 c -0.1433,-19.56802 -14.2068,4.89164 0,0 z m -34.304,-9.0728 c -6.1119,-7.12311 -6.112,7.12309 0,0 z m 59.3343,-6.22738 c -11.9222,-23.94255 0.2421,18.34546 0,0 z M 247.54267,182.14569 c 30.9263,-43.42097 -40.4462,3.6269 0,0 z m 13.9386,1.59779 c -6.1844,-7.80707 -3.8414,5.06455 0,0 z m 767.26003,-0.9561 c -2.916,-21.75665 -11.3415,4.75445 0,0 z M 239.28867,169.37091 c -15.9402,-31.14711 -20.9105,17.03056 0,0 z m -26.4037,-1.68243 c -2.2743,-15.18852 -8.7051,16.3037 0,0 z m 25.6356,-19.19929 c -1.85,-12.21513 -8.9018,10.05701 0,0 z m -7.4593,-7.63377 c -7.6554,-18.46033 -12.0319,12.10155 0,0 z m 26.6175,-7.56155 c -16.1559,-37.98459 -44.3697,6.27869 0,0 z m 57.2425,-4.8979 c 19.9425,-43.17815 -20.4884,15.913 0,0 z M 69.305766,91.88737 c 11.6594,-36.06703 -38.5623,-0.499 0,0 z m -44.8812,-39.4388 c -5.3669,-12.34873 -8.0575,9.02504 0,0 z m 25.8067,-8.8248 c -19.7909,-26.14431 -16.6235,4.42833 0,0 z M 1381.9513,1236.0207 c 9.4533,-37.5241 4.678,11.8197 2.5974,2.885 z M 369.83387,1211.9696 c -15.2799,-28.243 18.0224,7.447 0,0 z M 1394.942,1173.661 c 3.0253,-54.6568 -88.8574,-104.4454 -65.4746,-28.6034 9.1074,-78.3796 -33.738,-147.57169 -92.7001,-195.81315 -41.2602,-52.15973 -97.3661,-109.10367 -102.621,-177.38094 60.8512,47.13286 95.4876,119.12535 152.1986,170.9136 46.5327,56.4803 110.6932,109.50359 123.3953,184.86689 0.6346,14.5007 4.5183,42.6 -14.7982,46.017 z M 345.55877,1119.0258 c -7.0849,-44.7363 10.4598,-57.3896 0,0 z m -9.5542,-90.7048 c -10.8135,-22.521 -9.422,-116.17473 -1.1445,-40.56727 -2.4713,9.24011 9.6959,38.44197 1.1445,40.56727 z M 1377.6568,976.24107 c -0.4198,-9.72079 8.4855,7.60112 0,0 z m -21.97,-5.07 c 2.4892,-9.78889 10.5647,9.14998 0,0 z M 382.60177,888.051 c -20.873,-65.87202 -99.2201,-83.60227 -132.2184,-141.6875 -26.3104,-21.71463 -36.5569,-58.62846 5.9719,-26.09559 53.0764,26.70532 103.2323,62.63736 123.5205,130.04834 2.9981,4.54145 18.9158,58.07348 2.726,37.73475 z M 1100.685,738.25564 c -2.9546,-37.99504 30.6288,-5.59224 0,0 z m -425.15373,-7.93793 c -13.7806,-9.82017 33.9968,11.36225 0,0 z m 15.21,-4.08421 c 4.371,-6.89201 5.8,7.03027 0,0 z m 715.29253,-31.53925 c -5.9394,-11.41157 13.487,2.39661 0,0 z m -65.4875,-5.64074 c 7.4295,-7.64945 6.9533,5.88452 0,0 z m 69.199,-5.21726 c -1.3556,-12.97071 6.8662,5.20948 0,0 z m -78.494,-33.65275 c 3.7933,-6.54461 2.2248,6.40799 0,0 z m -12.1469,-63.68445 c 9.178,-3.51751 -0.7624,3.87301 0,0 z M 314.71627,481.1835 c 5.3344,-7.36277 2.6008,6.97897 0,0 z m 1021.60503,-5.81526 c 2.4883,-9.06861 5.5203,6.46257 0,0 z M 250.63637,440.85032 c -0.7444,-9.52359 -5.3232,-3.64912 0,0 z M 49.087266,284.06542 c 32.404,-48.29611 93.799804,-87.03349 150.751304,-69.65346 -39.0127,36.68317 -105.424304,45.51829 -150.751304,69.65346 z m -18.3236,-37.89473 c -2.6135,-14.95571 9.8576,8.79581 0,0 z m 12.6434,-5.3897 c -47.9721997,-24.12958 -19.2964,-110.51642 -5.2061,-130.28355 22.391,17.4495 19.5303,47.57516 -2.8324,76.73846 -6.5315,14.38189 31.7641,51.13555 8.0385,53.54509 z m 1228.720134,1.22056 c 1.1777,-20.02605 9.9603,5.98708 0,0 z M 310.80707,226.416 c 9.8339,-14.19681 6.669,10.63085 0,0 z m 1000.58673,-9.295 c 7.134,-8.8041 7.134,8.80407 0,0 z M 307.11127,216.16768 c -25.2635,-10.68973 27.5362,-0.53585 0,0 z m -37.6025,-10.58955 c -9.2131,-21.83852 17.1066,10.18725 0,0 z M 1086.4224,191.615 c -10.1824,-12.65534 3.5725,9.2133 0,0 z m 211.6711,-12.01557 c -1.6088,-15.3252 9.842,8.14673 0,0 z m -231.187,-2.38912 c -0.7445,-9.52351 -5.323,-3.64897 0,0 z m 12.6682,-1.21265 c 1.4375,-6.3696 1.3506,8.1095 0,0 z m -45.1212,-35.26823 c -2.1805,-16.08988 10.5662,7.04618 0,0 z m 21.8752,-1.05459 c -28.661,-33.27239 66.7511,-41.26846 8.5878,-5.9014 z m 166.8288,-39.07677 c -21.3062,-23.78137 13.2989,-11.77652 0,0 z m -74.1331,-16.5646 c -0.061,-25.2127 12.1702,12.19442 0,0 z m -40.8532,-0.7311 c 11.5516,-15.48157 10.0886,8.29417 0,0 z m 21.8821,-1.9099 c -2.8288,-10.61172 12.4772,10.84237 0,0 z m 54.922,-0.8862 c 0.586,-13.30727 10.1055,7.53731 0,0 z m -10.049,-1.5428 c 2.2248,-6.40806 3.7934,6.54457 0,0 z"
       style="font-style:normal;font-weight:normal;font-size:121.38px;line-height:125%;font-family:sans-serif;letter-spacing:0px;word-spacing:0px;display:inline;fill:#ca9962;fill-opacity:1;stroke:none;stroke-width:1.69px;stroke-linecap:butt;stroke-linejoin:miter;stroke-opacity:1" />
    <path
       inkscape:connector-curvature="0"
       id="path4223"
       d="m 1444.4813,1296.6085 c 4.1901,-8.9047 4.1901,8.9048 0,0 z m -151.0438,-40.9122 c -1.0974,-10.0502 15.069,1.6397 0,0 z m -31.4762,-21.7212 c 17.8555,-22.1107 12.3396,3.3531 0,0 z m 136.1742,-61.7288 c -21.4137,-64.4713 -84.5478,-87.8196 -100.076,-156.8026 -34.6362,-51.30027 -89.879,-85.45785 -118.5634,-141.92024 -23.023,-25.19917 -77.5814,-141.13581 -15.1631,-67.76187 42.9922,43.93905 74.2943,97.81841 120.2141,139.82676 44.5848,52.40163 95.2547,99.62415 122.6872,163.71465 6.8311,14.0192 -0.9686,61.0545 -9.0988,62.9433 z m -67.4199,-25.2933 c -11.3562,-69.1104 8.0063,-31.5094 0,0 z M 333.79067,1012.6885 c -8.6078,-28.8253 5.7605,-20.70368 1.0324,1.8477 z M 1400.3582,888.57199 c -20.6002,-13.05793 20.2158,7.67253 0,0 z M 382.02177,878.05957 c -23.8817,-67.11941 -102.9301,-79.95549 -135.7642,-139.60697 -22.6058,-30.6133 17.1787,-7.13615 16.9248,8.39838 17.8636,-3.06359 54.7128,37.51543 40.1775,-1.41233 39.7539,33.37515 66.3317,81.67862 81.8673,131.24556 l -1.1733,2.33059 -2.0315,-0.95523 z M 254.72127,731.49532 c -15.3464,-9.81719 -10.9081,7.1367 0,0 z M 1389.4329,860.62479 c -6.8162,-8.59798 12.8989,6.78721 0,0 z M 548.79487,838.9749 c 22.6661,-21.44399 -1.9009,19.22188 0,0 z m 847.52133,1.00774 c -28.0975,3.45967 20.2244,-32.7722 7.2846,-1.7178 0.7315,9.39497 -2.5254,3.67393 -7.2846,1.7178 z m -953.42523,-9.3173 c 19.2568,-30.46632 49.9852,-35.70534 72.7806,-57.50379 -0.077,23.00483 -31.5352,76.98282 -70.8575,62.12791 -3.4995,1.25294 -1.7392,-2.6396 -1.9231,-4.62412 z m 957.61623,-14.92567 c -3.4129,-23.70545 9.8759,8.00043 0,0 z M 680.55947,799.63848 c -4.8485,-24.1518 12.6044,15.26295 0,0 z m -137.7317,-7.61608 c -13.496,-45.37409 42.0193,-48.22717 0,0 z m 158.0535,2.83692 c 7.124,-5.57924 4.2497,2.99003 0,0 z m 696.28003,-4.43329 c -4.2759,-10.03485 14.4472,2.30888 0,0 z M 452.45127,771.21798 c 2.0265,-10.96804 6.2157,6.15936 0,0 z m 67.0826,-2.1252 c -0.2196,-8.91125 9.1837,4.35805 0,0 z m -22.8815,-20.13211 c 8.0852,-12.59414 2.3625,8.72657 0,0 z m 52.1289,0.4638 c 1.6074,-3.87612 36.8844,-45.48507 35.3721,-6.42543 -11.4075,2.55662 -23.1725,12.56954 -35.3721,6.42543 z m -32.11,-0.85931 c 0.073,-9.79423 -28.8859,-27.40357 6.1005,-14.36558 4.4518,4.32865 -1.4334,15.65513 -6.1005,14.36558 z m 332.3617,-19.97184 c -44.2483,-7.96973 25.9788,-55.39379 43.6694,-28.17505 14.1887,-18.50631 43.2788,-13.31281 64.6042,-23.7905 37.2138,-11.80897 55.33053,21.68267 90.89943,12.50259 3.6928,21.37546 31.446,27.08981 -12.3797,15.72311 -31.0679,-15.76203 -67.32983,-22.02812 -99.05423,-1.45587 -21.8749,29.54058 -60.3009,20.12474 -74.6899,13.39613 -6.2804,-1.4842 -6.1018,23.26802 -13.0492,11.79959 z m 17.8411,-0.53744 c 8.1552,-15.61062 0.2516,10.39094 0,0 z m -77.3555,-19.464 c -43.2616,-2.57804 -8.999,-31.32707 -6.6255,-50.83492 17.214,21.56509 46.807,-20.79349 36.8688,23.0713 -22.3581,-5.82498 -10.5511,40.37497 -30.2433,27.76362 z m 27.1427,-7.66098 c -27.5222,-15.1728 44.0091,-3.00705 2.0975,3.13772 z m -292.3832,-8.49443 c -8.2688,-29.34179 26.0544,-81.63042 10.3415,-20.91043 0.3687,3.97955 -2.3888,26.9586 -10.3415,20.91043 z m -12.6768,-19.5555 c 7.9234,-9.39567 12.4459,10.95508 0,0 z m -16.4112,-4.76041 c 10.8919,-9.30592 20.1659,9.7816 0,0 z m 11.3412,-7.79706 c 8.8604,-6.22723 8.8604,6.22725 0,0 z m -20.28,-4.97025 c 3.5751,-8.39072 6.5691,6.11469 0,0 z m -15.21,-1.78975 c 4.3179,-6.0628 4.3179,6.0628 0,0 z m 20.28,-16.71919 c 12.0068,-14.93346 10.3493,16.69204 0,0 z m 19.0125,-4.54852 c -25.7183,-26.99649 26.1889,12.06271 0,0 z m -52.6409,-1.34054 c 6.3171,-19.49769 25.8655,-95.61546 33.6284,-70.00375 29.3173,-5.51054 -3.5691,50.5408 3.2587,46.89047 5.6023,1.54229 -28.9391,18.08111 -36.8871,23.11328 z m 20.9343,-31.91338 c -6.3876,-19.99815 -6.4109,22.4072 0,0 z m -7.5859,29.80971 c 2.8249,-5.84096 7.285,9.16005 0,0 z m 20.28,-7.39808 c 4.3179,-6.06278 4.3178,6.06281 0,0 z m -10.14,-3.28026 c 3.003,-11.47014 5.2248,9.13588 0,0 z m 414.9731,-7.10024 c -10.1293,-17.12815 20.4154,9.09324 0,0 z m 9.6339,-1.70841 c 10.1498,-30.75739 -38.7851,-34.0248 -21.4567,-31.34856 27.6014,-5.70015 41.4423,-19.13229 25.4319,-40.95775 33.7738,27.61014 49.5117,-32.41744 86.5083,-34.98045 38.11643,-18.09341 -30.3788,-17.59747 9.84223,-35.44778 30.21,-28.48136 -27.21773,5.11082 -6.52523,-23.10235 -12.5352,31.85533 -53.354,21.27016 -44.2724,6.29447 22.6266,0.22113 27.3988,-63.11 4.8801,-17.64867 14.0427,5.66543 -33.8082,6.70223 -27.2219,6.58752 35.4862,-27.91886 -59.8279,-9.27648 -28.7398,-33.35087 -19.7032,3.44122 -33.3559,1.52528 -2.1474,-13.19409 14.5935,28.08175 6.1252,11.74742 23.1848,14.13151 -4.0731,6.21985 65.3782,-34.01375 52.0035,-19.53279 39.12753,8.02999 -19.0336,10.65502 15.2514,24.33321 1.3251,-28.20852 58.43893,-45.53254 24.38413,-63.81249 -18.30893,30.48731 -30.50673,-41.48806 -44.78503,-6.20275 -15.4883,-1.10368 -79.5049,24.90571 -43.7037,5.0468 15.5127,-18.90482 -36.8241,2.6158 -27.27,-1.86669 -48.7379,-23.32155 35.6307,-19.49308 60.0416,-20.17177 6.5533,-15.39834 50.13603,-57.01263 85.39403,-21.03051 32.0209,9.10377 30.054,5.6772 65.9432,-18.58925 -15.7341,-12.69055 16.1229,-3.98414 1.1498,-23.03783 24.7957,2.30203 44.7657,-41.29502 74.7674,-15.96774 10.3373,-30.19743 21.811,26.57781 27.1765,-0.70769 13.7446,42.41255 38.7731,26.68822 50.5661,64.28031 -12.9013,40.7639 24.9792,46.46848 25.7677,72.57712 37.1403,18.19173 -44.4031,23.16023 -20.9438,1.81537 -24.5788,-2.05255 -50.9766,-22.51622 -64.7711,-18.09485 -23.3587,8.54072 -6.8862,29.98359 -45.1884,19.89005 7.4104,-9.03739 -8.8425,-12.84522 13.0257,-8.7059 -42.7044,-12.55411 -59.3902,-9.79067 -95.2482,-22.24957 -31.9598,-0.86637 -27.3422,0.60664 -15.8692,20.92713 -20.3037,-36.68184 -37.028,-2.69631 -36.8451,15.64257 10.2524,-31.94454 45.0775,13.53684 38.3155,7.4677 6.0786,29.59244 -0.5839,54.41382 -13.725,80.92388 -24.616,32.21627 25.7136,53.81272 -14.6462,45.70619 9.5449,53.00674 -43.64853,14.56325 -32.1228,0.57711 -22.49073,39.03254 -56.68913,42.08333 -85.24623,77.37586 l -9.0761,8.37252 -3.8303,-1.94891 z m 33.3829,-58.89108 c -2.0436,-6.1789 -4.168,6.02024 0,0 z m 95.48513,-101.28232 c -6.3194,-10.53388 -8.9122,10.55551 0,0 z m 27.8849,-1.80768 c -6.4971,-6.05915 -4.3315,6.25977 0,0 z m -82.32713,-10.11368 c -1.3375,-12.65314 -6.2317,15.38505 0,0 z m 38.38723,4.29842 c -4.0441,-5.77029 -6.8417,3.23705 0,0 z m -13.907,-5.69903 c -6.12943,-4.31642 -6.11163,8.3212 0,0 z m 5.457,-12.04597 c -4.3743,-12.17896 -15.14863,9.09122 0,0 z m 38.025,-0.0998 c -4.3318,-6.25956 -6.4967,6.059 0,0 z m -86.74563,-2.79694 c -4.3837,-40.60494 -34.4609,1.62094 0,0 z m 78.60503,-2.58994 c -2.8974,-2.90558 1.4591,9.44808 0,0 z m -5.4977,-7.94163 c -3.7733,-12.70633 -8.3077,4.64811 0,0 z m -16.9629,-15.10821 c 1.5465,-22.05301 -19.34423,4.67293 0,0 z m 125.103,-57.0891 c 9.31,-11.27169 -18.9105,5.92594 0,0 z m -143.41163,-4.20636 c -4.0846,-17.97585 -16.6618,8.04811 0,0 z m 174.23163,-12.58571 c -0.9035,-12.14272 -15.6033,12.95961 0,0 z m -82.5455,-7.59795 c 12.1267,-13.89184 -17.7606,11.49507 0,0 z M 501.46127,607.93346 c 4.3317,-6.25966 6.4969,6.05909 0,0 z M 1029.6182,587.6887 c 0.503,-18.18938 34.784,16.9669 0,0 z m -518.78973,-4.98845 c 0.6168,-8.32354 5.387,5.62235 0,0 z m -335.735,-20.62423 c -18.9656,-19.05045 -42.6888,-11.44984 -31.9891,-48.16126 4.4086,-38.71724 -17.5924,-62.9013 -44.044304,-89.16692 26.568004,-11.9974 117.906604,-79.91862 73.964504,-10.24138 -39.0996,36.27564 -20.9661,83.23979 31.0685,59.8964 7.5099,-0.32077 -27.4404,52.04929 3.8956,11.7272 20.281,-36.02764 78.4938,-26.99725 89.4803,-56.56572 6.7841,-19.33423 34.6738,-46.44126 30.5451,-36.76477 19.5107,-33.82269 14.9369,27.8562 28.5297,-2.87613 2.0279,-15.03561 38.7855,-64.34264 37.6159,-59.32294 25.0313,0.92596 -29.4604,-14.89241 16.0119,-14.09255 35.4223,-18.44689 -19.4763,58.09177 -38.7883,68.4989 -13.0157,29.02348 -62.6824,57.62607 -100.3851,88.02096 -40.5418,21.98018 -28.8448,29.96252 6.1949,32.25869 -45.8183,14.57138 -88.8296,3.15577 -95.6106,57.74094 l -2.6714,2.25941 -3.8177,-3.21087 z m 33.1528,-63.99256 c -6.4967,-6.059 -4.3318,6.25956 0,0 z m 118.3,-84.5 c -2.0439,-6.17887 -4.1679,6.02024 0,0 z m 313.4197,146.88941 c 15.9746,-24.80951 11.4682,-61.22692 -8.8165,-21.05769 0.2633,-13.84383 -27.5025,-39.01611 -13.6314,-71.09425 41.6186,-11.58702 -8.6817,-44.98519 38.7203,-47.42512 -2.4065,-18.69986 8.3123,-47.11794 21.8475,-62.0111 18.3001,-30.01046 37.2919,35.69264 2.5635,34.2437 27.1799,-17.81181 5.3615,-35.82671 -2.2152,-22.48771 -5.7977,23.55125 -16.8464,57.81774 -17.1331,89.94029 15.5105,18.55735 -30.4298,24.23971 -19.0328,39.04415 39.3012,-4.56006 16.2968,53.74129 -2.3016,60.84777 z m 2.6798,-123.34184 c -8.9414,-3.5949 -1.6868,-1.65724 0,0 z m -142.2015,117.2526 c -19.9247,-12.24627 -16.5074,-32.89619 1.017,-53.76512 29.0187,-23.87572 17.4522,59.91221 -1.017,53.76512 z m 6.087,-49.54013 c -2.0438,-6.17882 -4.168,6.02026 0,0 z m 128.44,41.66694 c 7.7209,-15.27747 5.0863,9.99754 0,0 z m -17.2169,-22.5414 c 9.4481,-1.45899 -2.9057,2.89733 0,0 z m 216.1195,0.0737 c -3.7887,-13.65403 17.0726,6.84742 0,0 z m 57.125,-4.00121 c 6.8415,-14.28379 7.5969,8.9387 0,0 z m -491.7826,-10.12802 c 8.4303,-6.1349 4.483,6.51783 0,0 z m 465.5949,-9.94289 c 7.5158,-8.60101 5.9165,4.355 0,0 z m 11.83,-5.26712 c 4.168,-6.02021 2.0441,6.1788 0,0 z m -356.2103,-1.99983 c 16.2871,-20.25814 15.5198,11.5703 0,0 z m 342.6904,0.42372 c -29.5021,-30.80455 18.226,5.79089 0,0 z m -324.48,-5.08414 c 3.2069,-8.50983 5.2493,6.12893 0,0 z m 364.4289,-2.63474 c 3.5616,-8.84877 3.5616,8.84875 0,0 z m -492.5703,-5.31137 c 19.9595,-34.96157 55.3178,-82.59984 73.4202,-129.08654 4.4131,-42.23288 38.6603,-71.81218 17.5412,-11.36583 -20.3283,41.19959 -27.0542,91.97619 -64.2455,122.65441 2.2873,12.22892 -17.5064,28.3247 -26.7159,17.79796 z m 86.7364,-144.25364 c -2.0439,-6.17882 -4.168,6.02029 0,0 z m 308.425,144.5384 c 10.6604,-10.45672 11.767,1.94027 0,0 z m -283.535,-2.74124 c -18.3467,-18.91436 32.9553,-1.05399 0,0 z m 394.5116,-9.41382 c -2.1423,-10.59103 10.9355,2.34737 0,0 z m -476.0166,-4.32645 c 5.471,-14.83667 2.9735,8.67926 0,0 z m 498.8497,-3.93708 c 6.2388,-8.50221 2.4883,6.95262 0,0 z m -64.5197,-4.1298 c 4.3179,-6.063 4.3179,6.063 0,0 z m 35.4067,-0.58187 c -10.4904,-25.62761 10.0023,-1.9508 0,0 z m -35.4571,-7.77401 c 5.8471,-15.74202 -14.5127,-17.14812 17.5772,-25.60793 -25.9004,24.58871 32.0152,-7.46546 27.4314,9.50085 -24.3446,-13.27502 -28.2166,20.80824 -45.0086,16.10708 z m -43.8896,-3.47412 c 11.8327,-6.25884 8.3004,6.38759 0,0 z M 47.648366,421.83329 c -42.6262997,-33.72541 73.338204,-0.83874 33.8654,-45.39259 -33.8086,58.81219 -125.6263,-71.37159 -55.7409,-78.00865 55.9668,-3.45402 10.2514,50.15755 35.2705,67.22497 45.872904,28.11272 96.654204,-44.25947 125.954104,-24.42904 -31.5227,44.19414 -83.3614,80.80284 -139.349404,80.60531 z m -0.4475,-49.51592 c 18.9344,-21.36627 -41.9351997,7.60231 0,0 z m 819.722804,45.16029 c -13.3293,-12.90457 24.2665,3.29522 0,0 z m -233.6166,-12.76665 c 2.8039,-16.48842 12.8989,9.49042 0,0 z m 293.1434,-9.79153 c 3.0956,-15.71491 21.6599,3.42592 0,0 z m -16.0093,-2.96797 c -8.9102,-39.47768 28.9084,-1.98121 0,0 z m -265.3041,-2.4505 c 5.3612,-19.41674 9.7454,8.89378 0,0 z m 245.0836,-2.84641 c -2.7541,-16.27376 23.3226,10.64589 0,0 z m 61.9531,0.49818 c -0.8059,-9.93244 8.5688,3.6773 0,0 z m -14.6925,-3.14427 c -27.8539,-20.75834 -7.8591,-24.89473 9.216,-5.37313 4.0761,5.20763 -6.3017,11.6134 -9.216,5.37313 z m 146.60753,1.37003 c -13.0479,-23.42079 16.1869,0.97543 0,0 z m 44.3624,-0.46559 c 10.4174,-14.71873 7.3354,7.59019 0,0 z m -127.5779,-5.157 c 6.8171,-3.25846 3.8287,5.87097 0,0 z m 217.148,0.0275 c 6.4967,-6.059 4.3318,6.25956 0,0 z m -872.88503,-6.76 c 4.4373,-29.28447 34.1395,2.18048 0,0 z m 601.6733,0.10495 c 6.0941,-23.52168 7.3722,11.12466 0,0 z m -302.7241,-1.08818 c 15.6693,-16.54529 26.0534,5.54385 0,0 z m 350.2925,1.54655 c 1.0642,-20.97153 26.60653,-5.27107 0,0 z m -99.1456,-2.67582 c 11.1421,-4.84025 11.1358,5.47417 0,0 z m -172.8438,-3.38 c 19.4408,-10.44971 -1.7369,13.72529 0,0 z m 131.832,-1.47721 c 9.0731,-5.0351 -4.118,5.19389 0,0 z m 131.4257,0.20971 c 9.2367,-6.18695 6.2878,6.34621 0,0 z m -154.3739,-4.31284 c 8.0852,-12.59413 2.3625,8.72656 0,0 z m 141.1992,-0.19834 c 0.2234,-11.67502 8.1755,-2.22938 0,0 z m -74.508,-4.8789 c -1.9502,-12.24846 10.0253,5.06944 0,0 z m -579.749,-2.24842 c 3.9763,-12.60901 11.379,6.35397 0,0 z m 628.5616,-3.57151 c 0.5961,-14.53852 15.4594,5.89586 0,0 z m -613.928,-2.00572 c 6.1118,-8.3212 6.1295,4.31646 0,0 z m 335.9231,-13.04227 c 28.9207,-19.49455 -7.9192,-49.7298 26.5139,-17.81133 2.5959,17.25096 -16.5072,13.20987 -26.5139,17.81133 z m 16.9,-17.062 c -4.3178,-6.06281 -4.3179,6.06278 0,0 z m -339.69,11.82999 c 4.3179,-6.06278 4.3178,6.06281 0,0 z m 76.9043,-30.43035 c 11.8465,-10.12381 -6.0411,11.64637 0,0 z m 85.3357,-6.56883 c 6.5945,-14.61993 4.4175,10.61611 0,0 z m 158.86,-1.87082 c 6.5964,-6.17378 6.5963,6.17381 0,0 z m -44.3614,-5.95533 c 4.2373,-18.70042 8.7152,13.46728 0,0 z m 26.1939,3.14608 c -4.9022,-9.53214 20.8367,5.67933 0,0 z m 482.91753,-35.21574 c 8.0345,-8.99596 3.9158,8.68359 0,0 z M 119.48457,240.49074 c 2.5577,-41.89913 103.1777,-20.15649 36.6202,-2.09421 -12.0771,1.2153 -24.4428,4.27955 -36.6202,2.09421 z M 41.480266,228.10595 c -22.6717,-25.26716 9.5782,-13.15737 3.5765,2.79933 z M 351.05127,202.28041 c 6.598,-5.51039 6.7735,2.99997 0,0 z m 30.42,0.053 c 14.1831,-5.46387 -3.2029,6.02896 0,0 z m 2.5857,-8.36793 c -43.0882,-9.69167 25.9786,-16.90497 0,0 z m -50.9478,-4.21129 c -2.2421,-23.0438 -52.3717,-34.81118 -12.1249,-65.16072 -2.2692,-27.7178 -56.4464,-54.37018 -62.883,-98.02 -38.3715,-56.69374 42.1089,15.30697 50.9985,40.51398 21.5731,34.25603 75.9839,82.43442 65.4765,107.58747 -26.2746,-16.97755 -25.1869,8.27604 -41.4671,15.07927 z M 87.833766,177.04512 c -22.2033,-26.81267 11.4765,-63.86649 37.421604,-64.28165 -10.5071,38.20301 36.1715,-9.48429 39.7259,18.0559 22.0077,36.2365 -49.8532,16.5673 -68.173004,41.90592 -4.7452,-8.34721 2.4363,21.50597 -8.9745,4.31983 z m 920.627534,-5.13171 c 4.3179,-6.0628 4.3179,6.0628 0,0 z M 28.261266,145.07288 c 2.7886,-7.89016 5.8653,2.91333 0,0 z M 298.66127,129.61057 c 3.0799,-20.24129 21.9081,-5.00678 0,0 z m 756.57233,-4.0069 c 0.1937,-12.61589 8.0001,7.54185 0,0 z m -776.67723,-8.4043 c -35.1563,-11.17006 -21.9576,-48.65069 -57.597,-39.47739 -9.7533,-43.1061 -2.0986,-30.0099 20.2089,-14.20566 5.7997,-40.3941 63.3239,54.1822 37.3881,53.68305 z m -251.209604,-1.1684 c 1.1282,-9.73143 13.8463,7.45458 0,0 z m 171.630304,0.535 c 2.5735,-11.85078 7.4852,4.90457 0,0 z m -27.73,-9.8558 c -0.6654,-13.52825 13.3516,7.78601 0,0 z m 38.7519,-3.7716 c -47.8328,-55.86233 47.3309,15.2566 0,0 z m -16.727,1.8922 c -3.677,-8.56856 9.9323,0.80617 0,0 z M 18.067366,83.04657 c -2.251,-20.34216 11.4965,14.85966 0,0 z m 69.6744,-6.1956 c -45.9901,-49.87433 30.250204,-39.4615 17.780504,2.7279 -5.1341,4.56137 -15.061304,3.92228 -17.780504,-2.7279 z m -46.8055,-8.0275 c 4.3318,-6.25956 6.4967,6.059 0,0 z M 232.75127,23.39287 c 2.7889,-7.89018 5.8651,2.9136 0,0 z"
       style="font-style:normal;font-weight:normal;font-size:121.38px;line-height:125%;font-family:sans-serif;letter-spacing:0px;word-spacing:0px;display:inline;fill:#a96e38;fill-opacity:1;stroke:none;stroke-width:1.69px;stroke-linecap:butt;stroke-linejoin:miter;stroke-opacity:1" />
    <path
       inkscape:connector-curvature="0"
       id="path4221"
       d="m 1263.6513,1232.8659 c 10.8654,-17.1772 5.7733,5.9778 0,0 z m 131.5531,-72.7249 c -20.204,-57.3047 -81.6804,-72.509 -92.0774,-136.4948 -33.345,-55.88717 -93.0718,-90.11472 -122.7804,-149.50959 -22.1063,-26.05863 -46.2553,-80.6417 -42.6003,-92.1331 51.8298,36.3312 76.5998,96.34871 123.3052,137.65904 41.0831,53.17097 97.5639,96.20845 126.6867,156.95565 24.4994,11.5361 29.7525,105.3941 7.4662,83.5228 z m -64.4888,-13.188 c -7.0177,-32.0888 2.098,-55.8187 2.969,-8.1195 3.1816,-5.3767 -1.9691,19.5465 -2.969,8.1195 z M 332.79067,999.16851 c 1.8423,-8.02604 0.9902,10.17989 0,0 z m 46.8939,-130.5525 c -22.8904,-63.06198 -99.3866,-68.11679 -128.5921,-124.95885 -21.5699,-28.41144 71.7,45.32537 63.6186,12.96449 27.9325,26.60983 64.975,98.74592 64.9735,111.99436 z m -60.7433,-96.7525 c -4.3178,-6.06281 -4.3179,6.06278 0,0 z m 231.821,68.18213 c 9.9546,-11.87633 2.7096,7.93743 0,0 z M 904.36937,714.4085 c 17.1614,-22.50297 63.9291,-36.56703 16.0171,-1.2725 -3.8052,7.25348 -29.6166,16.98969 -16.0171,1.2725 z m -7.4481,-0.005 c 4.168,-6.02021 2.0439,6.17888 0,0 z m 145.04263,-9.31073 c -45.49933,4.27638 1.9415,-23.18251 6.595,0.43824 l -2.2979,0.4225 z m -84.20263,-15.7326 c 4.2152,-8.92063 7.4987,0.41083 0,0 z m 14.2739,-3.83392 c -0.5306,-16.73642 13.0835,10.44322 0,0 z M 169.73167,554.53894 c -34.4053,-3.2737 -26.8759,-35.19146 -30.0264,-69.8698 10.6039,-25.74806 -60.740604,-51.30856 -24.3643,-65.17182 26.9453,-15.72078 92.2052,-54.64036 48.875,-1.45375 -23.3034,28.06453 -12.7203,64.18618 9.4223,67.305 -1.147,35.89608 75.7875,15.32324 76.551,20.80258 -34.0428,6.4604 -74.7843,11.99469 -70.2732,55.2755 l -2.9751,0.57141 -7.2097,-7.45921 z m 38.7963,-60.9621 c 2.1194,-34.35935 91.0594,-45.72694 29.1888,-13.84876 -7.439,6.29053 -19.7401,14.30835 -29.1888,13.84876 z m -14.6467,-8.83252 c 18.713,-29.9197 9.3252,16.37971 0,0 z m 81.1737,-23.41832 c 10.084,-18.60631 23.091,-4.10594 0,0 z m 22.7613,-17.3225 c 4.168,-6.02021 2.0439,6.17888 0,0 z m 12.675,-9.94052 c 2.7886,-7.89016 5.8653,2.91333 0,0 z M 47.661766,420.56277 c -36.1074,-33.15998 68.392204,5.55354 40.3525,-49.24057 26.777704,7.2828 125.713404,-75.37647 83.547804,-11.35155 -35.5372,27.49611 -75.891004,67.39712 -123.900304,60.59212 z m -7.9709,-32.06909 c -29.3603,-24.60689 -68.6129,-103.19069 2.557,-87.8254 28.4043,13.68823 12.4162,74.97782 8.9699,63.32207 -63.1221,19.0454 73.683704,-11.35952 14.4357,23.54018 l -13.5292,3.72453 z M 1122.5401,334.15947 c 15.0207,-30.07982 58.3295,-21.1031 13.7125,-1.76713 l -9.0181,2.30831 z m 42.8389,-22.19373 c -19.5573,-16.78371 -38.1834,-26.09501 -14.7747,-32.5169 2.3643,-56.21212 84.0122,-0.69159 59.7686,22.04231 -27.6747,-38.75415 -19.8345,17.97701 -44.9939,10.47459 z m -36.5599,-13.56358 c 11.8464,-10.63909 3.2978,7.65094 0,0 z m -998.00153,-62.9123 c 8.81,-43.94971 78.7445,0.98851 14.742,1.89749 l -11.3982,0.21868 z M 36.006366,217.77007 c -1.4269,-9.90686 -5.1396,-4.31554 0,-1.6e-4 z M 326.72707,167.55004 c -0.3771,-56.57322 25.7219,-8.38996 0,0 z m -57.8316,-72.43277 c -17.1767,-37.08796 24.8672,12.24516 0,0 z m 45.2202,-5.352 c -48.3158,-73.35573 32.6741,17.00965 0,0 z m -19.5588,-33.7378 c -8.5876,-12.02217 11.0069,8.47657 0,0 z M 248.89547,3.0575703 c 0.5406,-8.27035 7.6391,3.21488 0,0 z"
       style="font-style:normal;font-weight:normal;font-size:121.38px;line-height:125%;font-family:sans-serif;letter-spacing:0px;word-spacing:0px;display:inline;fill:#504c43;fill-opacity:1;stroke:none;stroke-width:1.69px;stroke-linecap:butt;stroke-linejoin:miter;stroke-opacity:1" />
  </g>
</svg>
